<svg id="Layer_2" data-name="Layer 2" xmlns="http://www.w3.org/2000/svg" xmlns:xlink="http://www.w3.org/1999/xlink" viewBox="0 0 41 49"><defs><style>.cls-1{fill:none;}.cls-2{fill:#f6f6f6;}.cls-3{fill:#e0e0e0;}.cls-4{clip-path:url(#clip-path);}.cls-5{fill:#3098d8;}.cls-6{fill:#2c8ac4;}.cls-7{clip-path:url(#clip-path-2);}.cls-8{fill:#97cbec;}.cls-9{fill:#fff;}.cls-10{fill:#d8d8d8;}</style><clipPath id="clip-path" transform="translate(-32 -24)"><polyline class="cls-1" points="72 43 32 43 32 25 72 25 72 43"/></clipPath><clipPath id="clip-path-2" transform="translate(-32 -24)"><path class="cls-1" d="M72,68a5,5,0,0,1-5,5H37a5,5,0,0,1-5-5V30a5,5,0,0,1,5-5H61L72,36V68"/></clipPath></defs><title>doc</title><path class="cls-2" d="M37,72.5A4.5,4.5,0,0,1,32.5,68V30A4.5,4.5,0,0,1,37,25.5H60.79L71.5,36.21V68A4.5,4.5,0,0,1,67,72.5H37" transform="translate(-32 -24)"/><path class="cls-3" d="M60.59,26L71,36.41V68a4,4,0,0,1-4,4H37a4,4,0,0,1-4-4V30a4,4,0,0,1,4-4H60.59M61,25H37a5,5,0,0,0-5,5V68a5,5,0,0,0,5,5H67a5,5,0,0,0,5-5V36Z" transform="translate(-32 -24)"/><g class="cls-4"><path class="cls-5" d="M37,72.5A4.5,4.5,0,0,1,32.5,68V30A4.5,4.5,0,0,1,37,25.5H60.79L71.5,36.21V68A4.5,4.5,0,0,1,67,72.5H37Z" transform="translate(-32 -24)"/><path class="cls-6" d="M60.59,26L71,36.41V68a4,4,0,0,1-4,4H37a4,4,0,0,1-4-4V30a4,4,0,0,1,4-4H60.59M61,25H37a5,5,0,0,0-5,5V68a5,5,0,0,0,5,5H67a5,5,0,0,0,5-5V36Z" transform="translate(-32 -24)"/><g class="cls-7"><polygon class="cls-6" points="30.43 10.5 40.11 20.18 40.11 10.5 30.43 10.5"/></g><g class="cls-7"><path class="cls-8" d="M73,36H66a5,5,0,0,1-5-5V24H73V36Z" transform="translate(-32 -24)"/></g></g><path class="cls-9" d="M37.56,31.23h2a2.69,2.69,0,0,1,2,.8,2.89,2.89,0,0,1,.77,2.1,2.82,2.82,0,0,1-.79,2.09,2.87,2.87,0,0,1-2.11.79H37.56V31.23Zm1.25,1.09v3.56H39.3a1.88,1.88,0,0,0,1.26-.42,1.74,1.74,0,0,0,.49-1.39,2.07,2.07,0,0,0-.24-1,1.22,1.22,0,0,0-.69-0.59,2.64,2.64,0,0,0-.86-0.16H38.81Z" transform="translate(-32 -24)"/><path class="cls-9" d="M43.11,34.11A2.84,2.84,0,0,1,44,32a2.77,2.77,0,0,1,2-.83,3,3,0,0,1,2.13,5.06,2.82,2.82,0,0,1-2.09.84,2.78,2.78,0,0,1-2.08-.83A2.91,2.91,0,0,1,43.11,34.11ZM46,32.32a1.43,1.43,0,0,0-1.17.5,2,2,0,0,0-.44,1.33,1.84,1.84,0,0,0,.45,1.27,1.47,1.47,0,0,0,1.14.51,1.49,1.49,0,0,0,1.17-.5,1.9,1.9,0,0,0,.45-1.32,1.86,1.86,0,0,0-.44-1.29A1.52,1.52,0,0,0,46,32.32Z" transform="translate(-32 -24)"/><path class="cls-9" d="M52.63,31.15a4.07,4.07,0,0,1,1.64.39v1.41a3.3,3.3,0,0,0-1.64-.56,1.42,1.42,0,0,0-1.12.48,1.91,1.91,0,0,0-.42,1.3,1.71,1.71,0,0,0,.44,1.24,1.56,1.56,0,0,0,1.19.46,3.25,3.25,0,0,0,1.56-.52v1.4a5.57,5.57,0,0,1-1.69.34,2.63,2.63,0,0,1-2-.85,2.91,2.91,0,0,1-.81-2.09A3,3,0,0,1,50.62,32a2.68,2.68,0,0,1,2-.87h0Z" transform="translate(-32 -24)"/><path class="cls-10" d="M64.5,49H40a1.5,1.5,0,0,0,0,3H64.5a1.5,1.5,0,0,0,0-3" transform="translate(-32 -24)"/><path class="cls-10" d="M64.5,55H40a1.5,1.5,0,0,0,0,3H64.5a1.5,1.5,0,0,0,0-3" transform="translate(-32 -24)"/><path class="cls-10" d="M54,61H40a1.5,1.5,0,0,0,0,3H54a1.5,1.5,0,0,0,0-3" transform="translate(-32 -24)"/></svg>