<svg id="Capa_1" data-name="Capa 1" xmlns="http://www.w3.org/2000/svg" viewBox="0 0 234.68 80.51"><defs><style>.cls-1{fill:#ffffff;}</style></defs><title>dp-logo</title><polygon class="cls-1" points="200.41 68.76 200.4 68.76 200.41 68.76 200.41 68.76"/><polygon class="cls-1" points="200.31 64.16 200.38 64.16 200.31 64.15 200.31 64.16 200.31 64.16"/><path class="cls-1" d="M687.14,25.41l-1.34.34,1.32,0.78c-2.7.28-3.42-1.64-3.42-1.64,2.38-.54,3.44.52,3.44,0.52h0ZM685.68,20a3.26,3.26,0,0,1,1.94,2.72l-1.12-1,0.08,1.4a3.41,3.41,0,0,1-.9-3.14h0Zm4.56,8.51-1.69.36,1.38,0.66a3.33,3.33,0,0,1-3.41-1,3.38,3.38,0,0,1,3.72,0h0Zm-1.06-6.83a3.64,3.64,0,0,1,1.91,3.57L690,24.11v1.78a4.31,4.31,0,0,1-.85-4.21h0ZM693,31.88l-1.62.24,1.49,1.06a4,4,0,0,1-4-1.85,3.71,3.71,0,0,1,4.09.56h0ZM692.75,25s1.92,0.88,1.42,4.27l-1.06-1.75-0.21,1.8a4.32,4.32,0,0,1-.16-4.32h0Zm2.82,10.94-1.8.12,1.86,1.44c-3.43.08-4.31-2.44-4.31-2.44a3.9,3.9,0,0,1,4.25.88h0Zm0.84-6.51a4.53,4.53,0,0,1,1.18,4.79l-1-2.28L696,33.74s-1.06-2.45.36-4.31h0Zm1.36,12.4c-2.64,0-3.94-2.65-3.94-2.65,3-.72,4.13,1.28,4.13,1.28l-1.89-.18,1.7,1.56h0Zm1.43,3.32-1.89-.52,1.48,2.08s-2.4-.28-3.36-3.41a3.36,3.36,0,0,1,3.77,1.86h0Zm0.3-11.09a4,4,0,0,1,.64,4.43l-0.62-1.86-0.7,1.62a4.35,4.35,0,0,1,.68-4.2h0ZM702,39.61s1.6,2-.26,4.84l-0.3-2.24L700.52,44s-0.62-2.88,1.45-4.44h0Zm1.91,4.85a4.37,4.37,0,0,1-1.08,4.69V47l-1.26,1.73a4.35,4.35,0,0,1,2.34-4.27h0ZM705,49.78s0.84,2.52-2,4.41l0.4-2.16-1.58,1.32A4.23,4.23,0,0,1,705,49.78h0Zm-2.78,10,1.24-2.45-1.87.9s0.4-2.14,3.53-3c0,0,.52,2.93-2.89,4.51h0Zm-1.54,5,1.2-1.92-1.94.68s0.88-2.28,4.25-2.4a4.13,4.13,0,0,1-3.52,3.64h0Zm-2,4.49,1.24-1.3-2.19.22s1.26-2,4.45-1.32a3.57,3.57,0,0,1-3.5,2.4h0Zm-3.07,4.25,2.06-1.39-2-.22a4.46,4.46,0,0,1,4.46-.58,4.22,4.22,0,0,1-4.48,2.2h0Zm-3,3.18,1.78-1-2.21-.34a5,5,0,0,1,4.89,0,4.5,4.5,0,0,1-4.45,1.26h0Zm-3.64,3,1.66-.78-2.4-.42a5.37,5.37,0,0,1,5.19.18s-1.27,1.74-4.45,1h0Zm1.6,4.21-2.42,0a7.39,7.39,0,0,0,2.72-1.11,2.24,2.24,0,0,0-.3,1.14h0Zm-6.1-2.14,2.3-.26L685,80.3a5.74,5.74,0,0,1,4.52,1.32s-1.83,1.6-5,.1h0Zm-2.89,2.16-0.4-.58,1.8-.1-2.09-1.26,0.12,0a3.52,3.52,0,0,1,3.52,2h-2.94Zm1.54-8.11s1.08,2.07-1.32,3.82l0.36-2-1.36,1.11a4,4,0,0,1,2.32-2.89h0Zm3.48-2a3.32,3.32,0,0,1-.73,3.93V75.63l-1.12,1.54a3.23,3.23,0,0,1,1.84-3.4h0Zm3.11-2.8a3.82,3.82,0,0,1-.29,4.71l-0.11-2.21-1.05,1.75A3.85,3.85,0,0,1,689.71,71h0Zm2.64-2.68s1.93,1.14.52,4.15l-0.6-1.86-0.75,2a3.93,3.93,0,0,1,.83-4.26h0ZM694.53,65s2,0.9,1.22,3.6L694.85,67l-0.5,1.8a3.67,3.67,0,0,1,.18-3.76h0Zm2.22-8.27a2.81,2.81,0,0,1,2.41,3.21l-1.49-1.3,0.4,2.18a3.93,3.93,0,0,1-1.33-4.09h0Zm1.52-7.17,0.7,1.66a3.7,3.7,0,0,1-2.22-3.48A3.41,3.41,0,0,1,700,50.4l-1.74-.85h0Zm0.78,6.7a4.19,4.19,0,0,1-1.86-3.82,3.13,3.13,0,0,1,3.06,2.86l-1.75-1L699,56.25h0ZM695.79,61s2.28,0.32,2,3.67l-1.22-1.52V65a4,4,0,0,1-.74-4h0ZM681,20.5a3.94,3.94,0,0,1,3.28,1.36l-1.44-.1,0.82,1.18A4,4,0,0,1,681,20.5h0Zm11,63.57A0.91,0.91,0,0,1,693,83h9.22v7.41a0.51,0.51,0,0,1-.5.52h-9.7V84.07h0Zm9.37-4c0.91,0,.83,1.26.83,1.26h-1.72s0-1.27.89-1.26h0ZM677,83.88l-0.58-.8,1.61,0.22-0.38-1a3.92,3.92,0,0,1,2.06,1.56H677ZM679.37,77a3.71,3.71,0,0,1-2,3.57L678,78.66l-1.77,1.55a5.5,5.5,0,0,1,3.14-3.2h0Zm5.08-56.89a7,7,0,0,0-5.3-.76c0,0.18.08,0.35,0.12,0.51l0.63-.1,0.85,2.3-0.18.27a6.15,6.15,0,0,0,1.79,1.48l-1.37.33a10.2,10.2,0,0,1,1.59,1.7,6.4,6.4,0,0,0,1.74,1.44l-1.14.34A8.69,8.69,0,0,1,685,29.05a8.51,8.51,0,0,0,2,1.44l-1.11.4a8.52,8.52,0,0,1,2.07,1.81,4.38,4.38,0,0,0,1.7,1.33l-1,.3a7.19,7.19,0,0,1,1.64,1.91,6.69,6.69,0,0,0,2,1.84l-1,.33a7.18,7.18,0,0,1,1.3,1.64,14,14,0,0,0,1.54,1.89L693.2,42a7.22,7.22,0,0,1,.86,1.8A8.69,8.69,0,0,0,695.38,46l-0.89,0a8.42,8.42,0,0,1,.85,1.92,12.87,12.87,0,0,0,.8,2.24l-0.74-.1a6.3,6.3,0,0,1,.21.81l0.5,0,0.4,2.76-0.63.08a5.36,5.36,0,0,0,.42,1.19l-0.8-.23a5.18,5.18,0,0,1,0,1.8,11.8,11.8,0,0,0-.12,2.37l-0.54-.37a9.25,9.25,0,0,1-.33,1.84,9.49,9.49,0,0,0-.2,2.47l-0.7-.67a4.47,4.47,0,0,1-.41,1.71,8.78,8.78,0,0,0-.57,1.73L692.2,65a6.45,6.45,0,0,1-.84,1.71,8.15,8.15,0,0,0-.93,2l-0.34-.57a5.41,5.41,0,0,1-1.36,1.63,5.44,5.44,0,0,0-1.37,1.83L687,71a3.76,3.76,0,0,1-1.28,1.67,6.68,6.68,0,0,0-1.54,1.5L683.95,73a3.61,3.61,0,0,1-1.46,1.47A6.64,6.64,0,0,0,680.74,76V74.51A8.18,8.18,0,0,1,678.42,76a6.94,6.94,0,0,0-3.11,2.9c-1,1.72-2,1.89-2.37,1.9l0,1.58h0a1.92,1.92,0,0,1,2.17,1.53h-2.13v1.49l17.6,0v7.81c0,0.87-.63.73-0.63,0.73l-17,0v1.78h17.41a1.63,1.63,0,0,0,1.7-1.84,1.24,1.24,0,0,1,1.57-1.2s5.88,0,8.58,0a1.39,1.39,0,0,0,1.57-1.54v-10a2.45,2.45,0,0,0-2.44-2.44c-2.28,0-2.21,2.71-2.21,2.71h-6.33a2.57,2.57,0,0,0-1,.22l-0.32-.38a7,7,0,0,0,3.15-1.32,5,5,0,0,1,2.1-1l-1.24-.77A6.11,6.11,0,0,0,698,76.55,10.91,10.91,0,0,1,700,75l-1.3-.47a5.85,5.85,0,0,0,2.33-2.1,24.05,24.05,0,0,1,1.81-2.33L701.54,70a6.66,6.66,0,0,0,2.21-2.74,10.92,10.92,0,0,1,1.54-2.36l-1.64,0s1.34-.73,1.94-3.26a19.93,19.93,0,0,1,1-2.57l-1.1.14s0.93-.9,1.14-4.17a9.56,9.56,0,0,1,.57-2.67l-1.07.33a7.75,7.75,0,0,0,.37-2.83,8.23,8.23,0,0,1,.26-2.81l-1.26.47a7.4,7.4,0,0,0,0-3.5,26.46,26.46,0,0,1-.53-2.9l-1,.9a6.75,6.75,0,0,0-.43-3.44,22.15,22.15,0,0,1-.64-2.54l-0.83.7a5.6,5.6,0,0,0-.81-2.9,15.7,15.7,0,0,1-1.26-2.93l-0.76.83s0.13-1.2-1.54-3.43a11.2,11.2,0,0,1-1.44-2.67l-0.6,1.1a6.87,6.87,0,0,0-1.84-3.37,10,10,0,0,1-1.43-2.14l-0.51,1a8.39,8.39,0,0,0-2-2.37c-0.51-.38-1.71-1.5-1.71-1.5l-0.36,1.53a6.33,6.33,0,0,0-3.08-2.44h-0.2a13.6,13.6,0,0,0,0,2.64h0Z" transform="translate(-472.5 -16.59)"/><path class="cls-1" d="M665,31.31L664.65,30l0.51-.52,0.37,1.28,0.7-.67L666,28.8l0.52-.5,0.31,1.31,0.67-.65-0.15-1.27,0.57-.5,0.21,1.2,0.83-.7-0.08-1.05,0.6-.48,0.18,1.06,0.77-.55,0-1,0.7-.45,0.11,1.05,0.8-.55V24.62l0.85-.5-0.05,1.2,0.81-.4,0.09-1.3,0.8-.3-0.15,1.3,0.91-.4,0.29-1.36,0.65-.25L676,24l0.89-.25,0.55-1.63,1.28-.4-0.53.95-0.56.08-0.36.92,0.52,0-0.28.65-1.27.22-0.31,1,1.35-.21-0.12.58-1.31.25-0.2.93,1.17-.22-0.15.62-1.22.33-0.17.92,1.3-.32-0.15.62-1.23.45-0.1.78,1.25-.43-0.12.7-1.16.35,0,1,1.14-.4,0.05,0.75-1.11.58v0.87l1.14-.53,0.05,0.75-1.08.63,0,0.93,1.13-.62,0,0.65-1,.63,0.08,0.9,1-.58,0.08,0.48-0.95.62,0.2,0.9,1-.68L677,38.36l-0.88.62,0.15,0.8,0.93-.58,0.17,0.61-0.88.62,0.27,0.78,0.85-.67,0.23,0.57-0.83.7,0.25,0.78,0.82-.68,0.26,0.53-0.73.73L678,44l0.74-.73,0.26,0.6-0.63.73,0.45,0.93,0.67-.8,0.26,0.5L679.1,46l0.49,0.82,0.7-.68,0.35,0.53-0.37.37,0.57,0.43,0.32-.1c0.46,0.58,1.13,1.68,1.13,1.68l-1.43-.45,0.38-.82-0.68-.27-0.48.82-0.6-.17,0.5-.93L679.15,47l-0.47.93L678,47.8l0.54-1-0.83-.15-0.58.9-0.6-.1,0.62-1-0.93-.22-0.68,1.07-0.6-.1,0.57-1-1-.15-0.62,1-0.69-.07,0.56-1-1.08-.05-0.6,1-0.65,0,0.42-1-1.07,0-0.58,1-0.55,0,0.45-1H669l-0.52,1.08-0.54.08,0.42-1.08-1,0-0.51,1.08-0.54.07,0.37-1.08-1,.05-0.55,1.15-0.55.08,0.32-1.08-1,.15-0.29,1.05-0.65.18,0.32-1.1-1,.15-0.32,1.15-0.6.17,0.28-1.18-1,.33-0.28,1.1-0.67.22,0.18-1.15-1,.33-0.19,1.12L658,49l0.17-1.18-0.95.4-0.18,1.18-0.72.42,0.1-1.4-1.16.58L655,50.51l-1.76,1,0.26-1.4,0.85,0.45,0.27-.87-0.88-.63,0.19-.65,0.85,0.75,0.27-1-0.82-.83,0.17-.7,0.87,0.83,0.28-1-0.78-.9,0.17-.6,0.88,0.83,0.35-1-0.78-1,0.2-.63,0.83,0.95,0.47-.9-0.82-1,0.3-.75,0.76,1.13,0.49-.93-0.73-1.07,0.33-.73,0.65,1.15,0.58-1-0.62-1.2,0.36-.7,0.66,1.17,0.49-1-0.49-1.13,0.38-.68,0.55,1.18,0.52-.85-0.4-1.13,0.38-.75,0.55,1.13,0.63-.9L661,34.08l0.37-.55,0.56,1.08,0.57-.67-0.38-1.15,0.51-.65,0.45,1.16,0.66-.75-0.38-1.13,0.58-.63L664.3,32l0.68-.67h0Zm18.91,21.91-7.88.34-1.47,1.87H671.4c-0.6-.73-2.74-6.54-2.74-6.54l0.41-.06c11.34,0.33,15.41,3.47,15.41,3.47l-0.59.94h0Zm-30.3.13a27.93,27.93,0,0,1,12-4.27L666,49s1.4,4.14,2.41,6.34c0,0-10.16-.54-14.83-2h0Zm9.56-27.49a4.42,4.42,0,0,1-1.22,1.1l0,0.5,0.58,0.17s-0.24.15-.54,0.37l0.12,2C651,41.84,651,54.2,651,54.2c0.54,2.81,4.26,7,4.26,7a8.08,8.08,0,0,0-1.76.55,1.81,1.81,0,0,0,2,1.2s1.9-.45,4.6,1.2a8,8,0,0,0,8.71.05,7.87,7.87,0,0,1,8.51.2,8.06,8.06,0,0,0,8.46-.1s2.2-1.7,4.35-1.35,2.55-1.06,2.55-1.06l-2.2-.55a23.53,23.53,0,0,0,4-7.46l1.47-.17,0.63-.08-0.4-2.76-0.5,0L688,51.3c-9.69-6.49-10.64-16.72-9.56-23.18a15.38,15.38,0,0,1,2.17-5.79l0.18-.27-0.85-2.3-0.63.1c-6.92,1.22-14.8,7.91-14.8,7.91l-0.18-3.2a6.65,6.65,0,0,0-1.14,1.29h0Z" transform="translate(-472.5 -16.59)"/><polygon class="cls-1" points="220.61 73.36 221.77 73.36 221.77 67.53 220.61 67.53 220.61 73.36 220.61 73.36"/><polygon class="cls-1" points="222.9 73.38 224.06 73.38 224.06 67.55 222.9 67.55 222.9 73.38 222.9 73.38"/><polygon class="cls-1" points="225.25 73.34 226.4 73.34 226.4 67.51 225.25 67.51 225.25 73.34 225.25 73.34"/><polygon class="cls-1" points="227.49 73.4 228.65 73.4 228.65 67.57 227.49 67.57 227.49 73.4 227.49 73.4"/><path class="cls-1" d="M685.82,65.27a8,8,0,0,1-8.32.29A8,8,0,0,0,673,64h0s-1.74-.16-4.46,1.58a8,8,0,0,1-8.33-.29,7.53,7.53,0,0,0-5.6-1.06s0.08,1.08,1.77,1.13A6.1,6.1,0,0,1,660,66.46a7.88,7.88,0,0,0,8.44.43s2.74-1.66,4.55-1.66h0c1.82,0,4.57,1.67,4.57,1.67a7.86,7.86,0,0,0,8.43-.43,6.08,6.08,0,0,1,3.62-1.13c1.7-.05,1.78-1.14,1.78-1.14a7.54,7.54,0,0,0-5.61,1.07h0Z" transform="translate(-472.5 -16.59)"/><path class="cls-1" d="M685.66,67.64a8.08,8.08,0,0,1-8.11.13c-3-1.56-4.2-1.56-4.48-1.54h0S672,66,668.53,67.76a8.08,8.08,0,0,1-8.11-.13,6.7,6.7,0,0,0-4.5-1.4,2,2,0,0,0,1.54,1.26A6.6,6.6,0,0,1,660,68.56s3.52,2.64,8.61.32a11,11,0,0,1,4.4-1.45h0a10.87,10.87,0,0,1,4.46,1.45c5.1,2.32,8.62-.32,8.62-0.32a6.6,6.6,0,0,1,2.53-1.06,2,2,0,0,0,1.53-1.26,6.67,6.67,0,0,0-4.49,1.4h0Z" transform="translate(-472.5 -16.59)"/><path class="cls-1" d="M685.53,69.92c-2.08,1.5-5.5,1.45-8.3-.13-2.46-1.39-3.85-1.36-4.16-1.33h0s-1.43-.26-4.23,1.32-6.21,1.64-8.29.13-2.39-1.19-2.39-1.19,3.09,3.59,6.16,3.46a12.85,12.85,0,0,0,5.58-1.69,5.34,5.34,0,0,1,3.08-.84h0a5.4,5.4,0,0,1,3.2.84,12.8,12.8,0,0,0,5.57,1.69c3.06,0.13,6.16-3.47,6.16-3.47s-0.29-.32-2.38,1.19h0Z" transform="translate(-472.5 -16.59)"/><path class="cls-1" d="M673,70.68h0a8.86,8.86,0,0,0-3.49.95s-3,1.56-4.33,1.53a3.14,3.14,0,0,0,3.65.16A8.76,8.76,0,0,1,673,72h0a8.68,8.68,0,0,1,4.23,1.35,3.14,3.14,0,0,0,3.64-.16c-1.38,0-4.33-1.53-4.33-1.53a9,9,0,0,0-3.48-.95h0Z" transform="translate(-472.5 -16.59)"/><path class="cls-1" d="M673.07,72.79h0s-1.93-.18-4.81,1.72c0,0,.72,1,2.35,0a5.39,5.39,0,0,1,2.4-.52h0a5.56,5.56,0,0,1,2.45.53c1.64,1,2.35,0,2.35,0a8.64,8.64,0,0,0-4.74-1.72h0Z" transform="translate(-472.5 -16.59)"/><path class="cls-1" d="M673.07,74.88h0a4.6,4.6,0,0,0-2.93.9,1.33,1.33,0,0,0,1.69.45,4.18,4.18,0,0,1,1.2-.16h0a4,4,0,0,1,1.22.16,1.32,1.32,0,0,0,1.69-.45,4.63,4.63,0,0,0-2.87-.9h0Z" transform="translate(-472.5 -16.59)"/><path class="cls-1" d="M673.07,77.12h0a3.59,3.59,0,0,0-1.45.21,1.71,1.71,0,0,0,1.39,1h0a1.68,1.68,0,0,0,1.45-1,3.54,3.54,0,0,0-1.39-.22h0Z" transform="translate(-472.5 -16.59)"/><path class="cls-1" d="M654.83,82.7a7.25,7.25,0,0,0,2.71,1.12l-2.41,0a2.23,2.23,0,0,0-.3-1.14h0Zm-2.56-4.1a5.36,5.36,0,0,1,5.19-.18l-2.4.41,1.67,0.78c-3.18.72-4.46-1-4.46-1h0Zm-3.63-3.19a5,5,0,0,1,4.88,0l-2.21.34,1.78,1a4.5,4.5,0,0,1-4.45-1.26h0Zm-3-4.12a4.47,4.47,0,0,1,4.46.58l-2,.22,2.06,1.4a4.2,4.2,0,0,1-4.47-2.2h0Zm-2.1-4.46c3.2-.7,4.46,1.32,4.46,1.32l-2.19-.22,1.24,1.3a3.57,3.57,0,0,1-3.5-2.4h0Zm-2-5.73c3.37,0.12,4.25,2.39,4.25,2.39l-1.93-.67,1.2,1.92a4.12,4.12,0,0,1-3.51-3.64h0Zm-0.93-5.85c3.14,0.82,3.54,3,3.54,3l-1.87-.9,1.24,2.46c-3.41-1.58-2.9-4.51-2.9-4.51h0Zm0.12-5.49a4.22,4.22,0,0,1,3.18,3.57L642.26,52l0.4,2.16c-2.83-1.9-2-4.41-2-4.41h0Zm1.16-5.31a4.35,4.35,0,0,1,2.33,4.27L642.9,47v2.15a4.34,4.34,0,0,1-1.07-4.69h0Zm1.89-4.86c2.08,1.56,1.46,4.44,1.46,4.44l-0.89-1.84L644,44.43c-1.85-2.86-.26-4.84-0.26-4.84h0ZM646.2,34a4.35,4.35,0,0,1,.68,4.19l-0.7-1.61-0.62,1.85A4,4,0,0,1,646.2,34h0Zm4.07,9.23c-1,3.14-3.35,3.42-3.35,3.42l1.48-2.08-1.9.52a3.37,3.37,0,0,1,3.77-1.86h0Zm1.6-4.11s-1.29,2.65-3.93,2.65l1.7-1.56-1.89.18s1.1-2,4.13-1.28h0Zm-2.57-9.75c1.43,1.86.36,4.32,0.36,4.32l-0.57-1.8-1,2.28a4.56,4.56,0,0,1,1.18-4.8h0ZM651.93,36l-1.8-.12s1.37-1.74,4.26-.88c0,0-.88,2.51-4.31,2.43L651.93,36h0Zm1-11.06a4.32,4.32,0,0,1-.16,4.31l-0.2-1.8-1.06,1.76c-0.5-3.4,1.42-4.27,1.42-4.27h0Zm3.9,6.33a4,4,0,0,1-4,1.85l1.5-1.05-1.62-.24a3.71,3.71,0,0,1,4.1-.56h0Zm-0.32-9.65a4.31,4.31,0,0,1-.86,4.22V24.1l-1.05,1.14a3.65,3.65,0,0,1,1.92-3.58h0Zm2.66,6.81a3.35,3.35,0,0,1-3.42,1l1.38-.66-1.67-.36a3.37,3.37,0,0,1,3.71,0h0ZM660,20a3.4,3.4,0,0,1-.89,3.14l0.08-1.4-1.12,1A3.23,3.23,0,0,1,660,20h0Zm2,4.89s-0.71,1.92-3.41,1.63l1.32-.78-1.33-.34s1.06-1.06,3.43-.52h0Zm2.65-4.39A4,4,0,0,1,662,22.92l0.82-1.18-1.44.1a4,4,0,0,1,3.28-1.36h0ZM648.73,52a4.21,4.21,0,0,1-1.86,3.81l0.56-1.92-1.76,1A3.13,3.13,0,0,1,648.73,52h0Zm-3-1.6A3.4,3.4,0,0,1,649,47.73a3.72,3.72,0,0,1-2.22,3.48l0.7-1.66-1.73.84h0Zm0.83,9.55A2.82,2.82,0,0,1,649,56.72a4,4,0,0,1-1.33,4.1L648,58.64l-1.5,1.3h0Zm3.38,1a4,4,0,0,1-.75,4V63.11L648,64.63c-0.33-3.36,2-3.68,2-3.68h0Zm1.25,4a3.65,3.65,0,0,1,.18,3.76l-0.5-1.8L650,68.58c-0.74-2.7,1.21-3.6,1.21-3.6h0Zm2.17,3.3a3.91,3.91,0,0,1,.83,4.25l-0.75-2-0.6,1.86c-1.42-3,.52-4.15.52-4.15h0ZM656,71a3.86,3.86,0,0,1,1.46,4.26l-1.06-1.75-0.11,2.21A3.84,3.84,0,0,1,656,71h0Zm4.71,9.33-1.77,1.16,2.3,0.26c-3.2,1.5-5-.1-5-0.1a5.7,5.7,0,0,1,4.51-1.32h0Zm-1.59-6.53a3.23,3.23,0,0,1,1.83,3.39l-1.11-1.54v2.08a3.3,3.3,0,0,1-.72-3.93h0Zm5.59,8.13,0.12,0-2.1,1.26,1.8,0.1-0.4.58h-2.94a3.52,3.52,0,0,1,3.51-2h0Zm-2.12-6.13a4,4,0,0,1,2.32,2.9l-1.36-1.12,0.36,2c-2.4-1.73-1.32-3.81-1.32-3.81h0Zm-8.93,15.18h-9.7a0.51,0.51,0,0,1-.5-0.52V83h9.22a0.92,0.92,0,0,1,1,1.07v6.87h0Zm-9.38-10.86c0.93,0,.88,1.26.88,1.26h-1.71s-0.09-1.24.83-1.26h0ZM668,82.31l-0.38,1,1.62-.22-0.58.8h-2.71A3.88,3.88,0,0,1,668,82.31h0ZM666.33,77a5.51,5.51,0,0,1,3.14,3.19l-1.78-1.54,0.62,1.92a3.7,3.7,0,0,1-2-3.57h0Zm6.57,16.9H655.83s-0.66.13-.64-0.74V85.34h17.73V83.86h-2.24a2,2,0,0,1,2.21-1.53h0l0-1.58h-0.12c-0.36,0-1.35-.16-2.4-1.89A7,7,0,0,0,667.31,76,8.23,8.23,0,0,1,665,74.53V76a6.61,6.61,0,0,0-1.73-1.43,3.62,3.62,0,0,1-1.47-1.47l-0.27,1.1a6.54,6.54,0,0,0-1.54-1.5A3.65,3.65,0,0,1,658.7,71l-0.34.7A5.35,5.35,0,0,0,657,69.85a5.42,5.42,0,0,1-1.36-1.63l-0.35.56a7.8,7.8,0,0,0-.92-2,6.41,6.41,0,0,1-.85-1.7l-0.39.53a9.45,9.45,0,0,0-.57-1.74,4.52,4.52,0,0,1-.4-1.7l-0.71.67a9.44,9.44,0,0,0-.2-2.47,8.91,8.91,0,0,1-.33-1.84l-0.54.37a11.38,11.38,0,0,0-.13-2.37,4.82,4.82,0,0,1,0-1.81l-0.8.24A5.29,5.29,0,0,0,650,52.7a7.9,7.9,0,0,1,.37-2.57l-0.74.1a13.48,13.48,0,0,0,.8-2.23,8.81,8.81,0,0,1,.85-1.92l-0.9,0a8.38,8.38,0,0,0,1.32-2.24,7.38,7.38,0,0,1,.87-1.8l-0.93-.07a14,14,0,0,0,1.54-1.89,6.89,6.89,0,0,1,1.3-1.63l-1-.34a6.85,6.85,0,0,0,2-1.84,7.09,7.09,0,0,1,1.63-1.9l-1-.3a4.29,4.29,0,0,0,1.71-1.33,8.52,8.52,0,0,1,2.07-1.8l-1.1-.4a8.76,8.76,0,0,0,2-1.44A5.53,5.53,0,0,1,662,28c0.3-.22.54-0.37,0.54-0.37L662,27.47l-0.56-.16,0.52-.34a4.42,4.42,0,0,0,1.22-1.1,6.65,6.65,0,0,1,1.14-1.29l0.45-.41-1.37-.33a6.51,6.51,0,0,0,3.21-4.47,7,7,0,0,0-5.32.77,12.24,12.24,0,0,0,0-2.63v0h-0.11A6.14,6.14,0,0,0,658,19.93l-0.37-1.54s-1.2,1.13-1.7,1.5a8.78,8.78,0,0,0-2,2.37l-0.5-1A10.51,10.51,0,0,1,652,23.4a6.85,6.85,0,0,0-1.84,3.37l-0.6-1.1a11.38,11.38,0,0,1-1.43,2.67c-1.68,2.23-1.54,3.44-1.54,3.44l-0.76-.84a16.43,16.43,0,0,1-1.27,2.94,5.64,5.64,0,0,0-.81,2.9l-0.83-.7a23.31,23.31,0,0,1-.63,2.53,6.74,6.74,0,0,0-.44,3.44l-1-.9a26.46,26.46,0,0,1-.53,2.91,7.32,7.32,0,0,0,0,3.5L639,47.09a8.23,8.23,0,0,1,.27,2.8,7.74,7.74,0,0,0,.36,2.84l-1.07-.33a9.94,9.94,0,0,1,.58,2.67c0.2,3.27,1.12,4.17,1.12,4.17l-1.1-.13a17.61,17.61,0,0,1,1,2.57c0.61,2.54,1.94,3.27,1.94,3.27l-1.64,0A11.27,11.27,0,0,1,642,67.29,6.57,6.57,0,0,0,644.18,70l-1.26.07a24.62,24.62,0,0,1,1.8,2.33,5.88,5.88,0,0,0,2.33,2.1l-1.3.47a10.74,10.74,0,0,1,2,1.57,6.07,6.07,0,0,0,2.54,1.53l-1.24.77a5.07,5.07,0,0,1,2.1,1,7,7,0,0,0,3.15,1.31l-0.33.38a2.63,2.63,0,0,0-1-.22h-6.33s0.06-2.7-2.2-2.7A2.44,2.44,0,0,0,642,81.1v10a1.39,1.39,0,0,0,1.56,1.54l8.58,0a1.25,1.25,0,0,1,1.57,1.2,1.64,1.64,0,0,0,1.7,1.84h17.51V93.89h0Z" transform="translate(-472.5 -16.59)"/><polygon class="cls-1" points="178.92 73.35 180.09 73.35 180.09 67.51 178.92 67.51 178.92 73.35 178.92 73.35"/><polygon class="cls-1" points="176.64 73.36 177.81 73.36 177.81 67.53 176.64 67.53 176.64 73.36 176.64 73.36"/><polygon class="cls-1" points="174.3 73.33 175.46 73.33 175.46 67.5 174.3 67.5 174.3 73.33 174.3 73.33"/><polygon class="cls-1" points="172.04 73.38 173.2 73.38 173.2 67.55 172.04 67.55 172.04 73.38 172.04 73.38"/><path class="cls-1" d="M682.75,91.58c-1.05,1.43-3,.62-3,0.62a2.89,2.89,0,0,0,1.63,1.37c1.71,0.19,2.17-2,2.17-2l1.63,0c0.33-.07.38-0.15,0.38-0.2l0,0.17c1.58,0,1.55-.36,1.55-0.36C689,92.05,689,91.1,689,91.1a2.3,2.3,0,0,0-.15-2.4l-0.6.72c1.15,1.35-.75.5-0.75,0.5a2.23,2.23,0,0,0,.13-0.78l-0.43.05a1.07,1.07,0,0,1-1.35.87,5,5,0,0,0,.22-0.83l-0.43.05c-0.52.95-.95,0.77-0.95,0.77h-1.27c-0.63,0-.68-1-0.68-1-1.28,1.63,0,2.46,0,2.46h0Z" transform="translate(-472.5 -16.59)"/><path class="cls-1" d="M680.45,90.08h-2.83s2-1.88,2.83,0h0Zm-6.68-.55,0.3-.15,0.17,0.6s-1.67.15-.47-0.45h0Zm0.15-1.28L674,88.77s-1.58.73-1.73,1.43a0.67,0.67,0,0,0,.46,1,3.37,3.37,0,0,0,1.12.12l0.6-.52a1.19,1.19,0,0,0,.85.73H681l0.63-1.48s-0.55-2.93-3.45-1.25V87.67l0.27,0,0.35-1.15a2.09,2.09,0,0,1-1.13-.77l-0.06-.17s-1,.45-0.25,1.7l0.08,1.95a1.82,1.82,0,0,1-.68.8h-1s-0.86.17-1.31-2.38l-0.6.55h0Z" transform="translate(-472.5 -16.59)"/><path class="cls-1" d="M669.23,87.54c-0.64-.37-0.6,1.16-0.6,1.16a2,2,0,0,1,1.47,1.38h-2l-0.23,1.5,2.38,0c0.7-.07.55-1.47,0.55-1.47a3.23,3.23,0,0,0-1.6-2.53h0Z" transform="translate(-472.5 -16.59)"/><path class="cls-1" d="M666.66,89.17c1.2-1.83-.65-3.35-0.65-3.35l-0.4,1a3.59,3.59,0,0,1,.73.95c0.4,0.7-1.5.86-1.5,0.86l-0.25.64c1.7,0.2,1.68.75,1.68,0.75h-7.81c-1.31,0-.68-1.83-0.68-1.83l-0.22,0c-1.6,3.13.7,3.28,0.7,3.28h8a0.76,0.76,0,0,0,.62-0.28l0.43-1.12a1.16,1.16,0,0,0-.6-1h0Z" transform="translate(-472.5 -16.59)"/><polygon class="cls-1" points="189.12 76.01 188.33 75.21 187.48 76.06 188.33 76.91 189.14 76.09 189.09 76.04 189.12 76.01 189.12 76.01"/><polygon class="cls-1" points="189.12 76.01 189.09 76.04 189.14 76.09 189.93 76.89 190.79 76.04 189.93 75.19 189.12 76.01 189.12 76.01"/><polygon class="cls-1" points="192.79 76.09 193.64 76.94 194.5 76.09 193.65 75.24 192.79 76.09 192.79 76.09"/><polygon class="cls-1" points="200.72 70.11 199.92 69.32 199.07 70.17 199.92 71.02 200.74 70.2 200.68 70.14 200.72 70.11 200.72 70.11"/><polygon class="cls-1" points="200.68 70.14 200.74 70.2 201.53 71 202.39 70.14 201.53 69.3 200.72 70.11 200.68 70.14 200.68 70.14"/><polygon class="cls-1" points="214.73 71.45 214.68 71.39 214.71 71.36 213.91 70.57 213.06 71.42 213.91 72.27 214.73 71.45 214.73 71.45"/><polygon class="cls-1" points="214.73 71.45 215.53 72.25 216.38 71.39 215.53 70.55 214.71 71.36 214.68 71.39 214.73 71.45 214.73 71.45"/><polygon class="cls-1" points="215.54 70.15 214.69 69.31 213.84 70.15 214.69 71 215.54 70.15 215.54 70.15"/><polygon class="cls-1" points="52.17 27.55 50.56 30.24 53.87 32.22 55.47 29.53 52.17 27.55 52.17 27.55"/><polygon class="cls-1" points="56.96 26.96 55.36 29.63 58.67 31.62 60.27 28.93 56.96 26.96 56.96 26.96"/><polygon class="cls-1" points="28.76 36.34 27.16 39.02 30.48 40.99 32.07 38.32 28.76 36.34 28.76 36.34"/><path class="cls-1" d="M511.06,21.49a0.64,0.64,0,0,1-.29-1,1.42,1.42,0,0,1,1.53-.62c0.26,0.16.85,1,.54,2.53a18.5,18.5,0,0,0-1.79-.94h0Zm3.59,2.19a6.74,6.74,0,0,0-1.16-.87c0.87-3-.2-4.81-0.54-4.86s-1.74.24-2.93,2.71c-0.47,1-.44,2.16.45,2.63,0.45,0.24,1.16.54,1.8,0.85l-0.05.1c-1.37,2.8-9.57,9.27-11.48,11.4s0.34,0.61,3.67-1.74a24.9,24.9,0,0,0,8.41-9.33l0.05-.1a2.12,2.12,0,0,1,.75.62c0.33,0.6.57,1.07,0.57,1.07l0.33-1.1a3.64,3.64,0,0,0,.13-1.36h0Z" transform="translate(-472.5 -16.59)"/><path class="cls-1" d="M543.75,55.86l-0.69.13a26.33,26.33,0,0,1-4.78.44c-0.34,0-.67,0-1-0.05,1-1.19,6.31-7.12,9.9-7.05a5.31,5.31,0,0,1,5.07,3.12,26.41,26.41,0,0,1-8.52,3.42h0Zm9.45-7.17c-3.74-3.67-6.79-2.5-8.9-1.25-1.07.64-3.08,3-4.78,5.07l0.1-.32a19,19,0,0,0,.35-5.78c-0.41-5.62-2.24-20.37-2.45-22l1.46,1a61.39,61.39,0,0,0-3.33-8.85l-1,2.7a14.81,14.81,0,0,1,.73,3.65c0.1,1.87,1.51,12.76,2.24,19.22,0.55,4.83.83,7.39,1,9.89a5,5,0,0,1-.46,2.24c-0.78,1-1.36,1.78-1.51,2A6.53,6.53,0,0,1,531.82,53c-0.52-1-1.57-2.19-2.81-2-2.79.52-4.77,5.74-5.46,8-0.78,2.5-2.12,4.34-3.91,4.37-4,.08-4.6-6.94-4.76-9.05s-0.48-.24-0.48-0.24C513.94,61,516.52,66,519.88,66.33c2.34,0.23,3.9-3.74,5.07-7.33a7.78,7.78,0,0,1,3.67-4.53c0.7-.31,2,0,3,1.64,2.26,3.91,5.38,3.75,7,3.75a20.06,20.06,0,0,0,3.37-.29l0.63-.12a24.09,24.09,0,0,0,9.19-4.12c1.09-.77,1.72-3.43,2-4.52a2.92,2.92,0,0,0-.57-2.1h0Z" transform="translate(-472.5 -16.59)"/><path class="cls-1" d="M514.73,50.31c-0.28-1.65-2.55-2.83-4.77-3.86s-3.57-1.48-4.81-2.76l1.41-.35-5.08-3.1L501.67,43s1.17,1.2,1.72,1.87a12.86,12.86,0,0,0,3.71,2.82c1.36,0.6,6.72,2.77,7.16,5.14,0,0-7.24,6.77-13.13,9.74-2.2,1.11-6.18,1.2-3.78-8.88,0,0,.16-1.8-0.49.31s-2.8,11,1.89,12.21c0.74,0.19,3.48.59,15.28-10.38,0,0,1.32-1.75.7-5.51h0Z" transform="translate(-472.5 -16.59)"/><path class="cls-1" d="M519.66,57.07c0.55,0.15,1.54-.31,1.94-2.7,0.23-1.34-.34.05-0.34,0.05s-0.43.69-.85,0.43-1-1-.34-3.09a35.72,35.72,0,0,1,1.39-3.9c0.08-.16-0.09-0.56-0.55.5A29.72,29.72,0,0,0,519,54.07c-0.15,1.43,0,2.57.5,2.91l0.2,0.09h0Z" transform="translate(-472.5 -16.59)"/><path class="cls-1" d="M511.29,66.44c0.46,0.12,1.28-.26,1.61-2.22,0.19-1.11-.28,0-0.28,0s-0.37.57-.72,0.35-0.78-.81-0.27-2.54a25.86,25.86,0,0,1,1.13-3.2c0.06-.14-0.07-0.46-0.44.41a22.55,22.55,0,0,0-1.6,4.69,2.92,2.92,0,0,0,.41,2.39l0.15,0.08h0Z" transform="translate(-472.5 -16.59)"/><path class="cls-1" d="M476,24.57c1.56,0.93,1.55,3.31,1.6,3.85s0.35,0,.35,0a9.34,9.34,0,0,0,0-6.77c-0.37-1.44-.53-1.37-0.4-2.11s1.95,0,1.95,0l0-1.83s-1.61-.6-2.41-0.11-0.78,2.11-.24,3.1a10.67,10.67,0,0,1,1.24,4,1.07,1.07,0,0,1-.29.87c-0.46-3-3.34-4-4.19-4.28s-1,0-1.09,1.34,2.2,1.71,2.2,1.71l0.12-.35,0.47,0.2L476,24.57h0Z" transform="translate(-472.5 -16.59)"/><polygon class="cls-1" points="11 46.24 9.47 49.02 12.9 50.91 14.43 48.13 11 46.24 11 46.24"/><polygon class="cls-1" points="15.84 45.7 14.32 48.47 17.74 50.35 19.28 47.58 15.84 45.7 15.84 45.7"/><path class="cls-1" d="M493.28,46a4.72,4.72,0,0,0,2.55-4,8.19,8.19,0,0,0-1.27-5.24c-1.24-2.15-1.57-2.61-1.57-2.61l1.19,0.1L490,29.79l-0.28,3.43a12.5,12.5,0,0,1,1.4,2.14A33.81,33.81,0,0,0,493.35,39a11,11,0,0,1,1.6,2.93s-0.6,1.94-6.95,3.34l-0.63,2.9s1.67,1.12,6.13,1.27c1.87,0.17,3.68.14,4,1,0,0-8.43,7.87-16,8s-7.52-7.89-6.7-11.43c0,0,0-.42,0-0.76h-0.12l-0.19,0a11.48,11.48,0,0,0-.28,1.15c-0.68,3.21-1.25,5.78-.11,9s3.35,5.6,8.17,5.48S495.3,56.35,497.65,53c0,0,1.24-3.08.58-5.19-0.59-1.84-2.87-1.71-4.95-1.83h0Z" transform="translate(-472.5 -16.59)"/><path class="cls-1" d="M481.93,54.68c0.62,0.11,1.64-.38,1.79-2.6,0.09-1.25-.37.06-0.37,0.06a0.81,0.81,0,0,1-.87.45c-0.48-.22-1.14-0.84-0.72-2.82a28,28,0,0,1,1-3.67c0.07-.15-0.14-0.51-0.52.49A22.33,22.33,0,0,0,480.85,52c0,1.32.33,2.35,0.86,2.63l0.22,0.07h0Z" transform="translate(-472.5 -16.59)"/><path class="cls-1" d="M484.48,25c0.52,0.1,1.4-.32,1.52-2.2,0.08-1.06-.31.06-0.31,0.06a0.68,0.68,0,0,1-.73.38c-0.42-.18-1-0.71-0.6-2.39a20.55,20.55,0,0,1,.87-3.11c0-.13-0.13-0.43-0.45.42a19.41,19.41,0,0,0-1.22,4.55,2.65,2.65,0,0,0,.73,2.23L484.48,25h0Z" transform="translate(-472.5 -16.59)"/><path class="cls-1" d="M509.56,41.62c0.51,0.1,1.38-.32,1.53-2.2,0.08-1.06-.32.05-0.32,0.05a0.69,0.69,0,0,1-.75.38c-0.41-.18-1-0.72-0.6-2.39a24,24,0,0,1,.87-3.11c0.06-.13-0.12-0.43-0.44.42a19,19,0,0,0-1.22,4.56,2.67,2.67,0,0,0,.73,2.23l0.19,0.06h0Z" transform="translate(-472.5 -16.59)"/><path class="cls-1" d="M474.11,66.13c0.47,0.08,1.22-.28,1.33-1.94,0.08-.93-0.26,0-0.26,0a0.62,0.62,0,0,1-.66.34c-0.37-.17-0.85-0.63-0.53-2.11a20.19,20.19,0,0,1,.77-2.73c0-.12-0.11-0.39-0.38.36a16.06,16.06,0,0,0-1.08,4,2.35,2.35,0,0,0,.64,2l0.17,0h0Z" transform="translate(-472.5 -16.59)"/><path class="cls-1" d="M474.59,46.19c0.7,0.13,1.86-.43,2-3,0.1-1.43-.42.07-0.42,0.07a0.94,0.94,0,0,1-1,.52c-0.56-.25-1.3-1-0.82-3.21a32.92,32.92,0,0,1,1.19-4.19c0.09-.18-0.16-0.58-0.6.56s-1.62,4.5-1.64,6.13,0.39,2.69,1,3l0.25,0.07h0Z" transform="translate(-472.5 -16.59)"/><path class="cls-1" d="M522.41,22s-0.34-.41.37-1.05c0,0,1-1.25,1.72.77,0,0,.25.23-0.18,0.69l-0.17.06s-1.37.12-1.74-.46h0Zm2.89-1,0.29,0.06a4.92,4.92,0,0,0,.57.2c0.22,0.13.52,0.26,0.69,0.38,2.46,1.7-1.69.68-1.69,0.68A3.82,3.82,0,0,0,525.3,21h0ZM512.56,35.52s7.69-4.77,10-8.29l2-3.15a5.73,5.73,0,0,1,1.87.15c1.37,0.25,2.43-.86,2.2-2.45a3.74,3.74,0,0,0-2.65-2.9l-3.49-1s-1.07-.29-1,0.5L521.59,20l0.23,0.09s-0.51,2.55-.16,3.29a1.41,1.41,0,0,0,1.44.89l0.26,0a46.64,46.64,0,0,1-3.62,4.19c-1.46,1.4-6.89,6.1-7.28,6.44,0,0-1,1.16.1,0.54h0Z" transform="translate(-472.5 -16.59)"/><path class="cls-1" d="M478.5,38.57s0.33,0.08.27,1.59,0.16,2.71,1.43,2.76S482,41.2,482,41.2a1.73,1.73,0,0,0,2.11,1.15A2.48,2.48,0,0,0,485,40c-0.36-1.36-1.12-3.73-1.12-3.73l-0.54,1.52,1,2.78s-1.51.44-1.85-.6-0.3-2.39-.81-3.41L481,37.78l0.46,2.55a1.79,1.79,0,0,1-1.34.83c-0.64-.14-0.72-0.46-0.67-1.34a15.38,15.38,0,0,0-.38-2.47l-0.62,1.22h0Z" transform="translate(-472.5 -16.59)"/><path class="cls-1" d="M521.53,40.39c3.34-2.82,3.31-4.89,3.31-4.89,1.3,0.64,1.42,2.54,1.5,3s0.27,0,.27,0a7.47,7.47,0,0,0-.37-5.39c-0.38-1.12-.51-1.07-0.45-1.66s1.55-.09,1.55-0.09l-0.13-1.44a2.89,2.89,0,0,0-1.92,0c-0.6.45-.5,1.72,0,2.49a8.61,8.61,0,0,1,1.2,3.13,0.81,0.81,0,0,1-.16.7c-0.55-2.34-2.9-3-3.6-3.15s-0.75.08-.78,1.13,1.75,1.45,1.75,1.45l0.19-.4,0.14,0,0.34,0.19c-2.3,4.77-9.59,8.28-9.59,8.28a15.17,15.17,0,0,0,6.76-3.34h0Z" transform="translate(-472.5 -16.59)"/><path class="cls-1" d="M497.79,27.49c3-2.27,3.11-4.06,3.11-4.06,1.09,0.63,1.1,2.28,1.14,2.64s0.23,0,.23,0a6.47,6.47,0,0,0,0-4.67,3,3,0,0,1-.31-1.46c0.08-.51,1.35,0,1.35,0l0-1.26a2.46,2.46,0,0,0-1.67,0c-0.55.34-.52,1.46-0.13,2.14a7.44,7.44,0,0,1,.9,2.77,0.73,0.73,0,0,1-.18.6,4,4,0,0,0-3-2.91c-0.59-.19-0.67,0-0.74.94s1.44,1.34,1.44,1.34l0.19-.34,0.13,0.05,0.26,0.17c-2.21,4-8.7,6.66-8.7,6.66a13,13,0,0,0,6-2.54h0Z" transform="translate(-472.5 -16.59)"/><path class="cls-1" d="M474.12,33.65l-0.9,2.18s15.15-9.68,21.77-12.9l0.84-1.75c-5.75,2.62-20,11.33-21.71,12.48h0Z" transform="translate(-472.5 -16.59)"/><polygon class="cls-1" points="150.87 24.02 149.29 26.66 152.56 28.6 154.13 25.96 150.87 24.02 150.87 24.02"/><polygon class="cls-1" points="155.6 23.43 154.02 26.06 157.28 28.02 158.87 25.37 155.6 23.43 155.6 23.43"/><polygon class="cls-1" points="152.05 19.78 150.47 22.41 153.74 24.36 155.32 21.72 152.05 19.78 152.05 19.78"/><path class="cls-1" d="M629.83,20.79a0.62,0.62,0,0,1-.21-1,1.37,1.37,0,0,1,1.54-.5c0.26,0.18.77,1,.38,2.52-0.49-.33-1.07-0.69-1.71-1h0Zm3.36,2.4a5.83,5.83,0,0,0-1.07-.93c1.07-2.89.15-4.74-.18-4.82s-1.73.11-3.07,2.46c-0.54.95-.59,2.09,0.26,2.61,0.42,0.27,1.09.61,1.7,1l-0.06.1c-1.53,2.65-10,8.45-12.06,10.4-2.59,2.5-3.67,2.86,3.72-1.45a23.87,23.87,0,0,0,8.92-8.6l0-.1a2,2,0,0,1,.68.67c0.3,0.62.5,1.09,0.5,1.09L633,24.52a3.53,3.53,0,0,0,.22-1.33h0Z" transform="translate(-472.5 -16.59)"/><path class="cls-1" d="M630.95,65.95c0.59,0.16,1.62-.2,1.93-2.21,0.18-1.13-.36,0-0.36,0a0.77,0.77,0,0,1-.88.32c-0.45-.25-1-0.86-0.48-2.63a23,23,0,0,1,1.28-3.25c0.08-.14-0.1-0.48-0.53.4a19.25,19.25,0,0,0-1.79,4.77c-0.1,1.21.14,2.18,0.65,2.48l0.2,0.08h0Z" transform="translate(-472.5 -16.59)"/><path class="cls-1" d="M630.34,35.69c0.58,0.16,1.61-.2,1.93-2.2,0.18-1.14-.36,0-0.36,0a0.78,0.78,0,0,1-.88.32c-0.46-.25-1-0.87-0.48-2.64A23.25,23.25,0,0,1,631.82,28c0.08-.14-0.11-0.48-0.54.4a19.57,19.57,0,0,0-1.79,4.77c-0.1,1.2.15,2.18,0.64,2.48l0.2,0.09h0Z" transform="translate(-472.5 -16.59)"/><path class="cls-1" d="M567.4,43.09c0.59,0.16,1.64-.33,2.06-2.85,0.24-1.42-.37.05-0.37,0.05s-0.46.74-.91,0.45-1-1-.35-3.26a34.87,34.87,0,0,1,1.46-4.12c0.09-.17-0.11-0.59-0.57.53a30.31,30.31,0,0,0-2.06,6c-0.16,1.51,0,2.71.53,3.07l0.2,0.1h0Z" transform="translate(-472.5 -16.59)"/><path class="cls-1" d="M615.34,45.25c0.45,0.12,1.24-.17,1.5-1.8,0.16-.92-0.28,0-0.28,0a0.59,0.59,0,0,1-.68.27c-0.35-.19-0.78-0.7-0.34-2.13a22.46,22.46,0,0,1,1-2.65c0.06-.11-0.08-0.39-0.41.33a16,16,0,0,0-1.42,3.88,2.28,2.28,0,0,0,.47,2l0.15,0.07h0Z" transform="translate(-472.5 -16.59)"/><path class="cls-1" d="M546.25,42.95c0.45,0.12,1.24-.18,1.5-1.81,0.15-.92-0.28,0-0.28,0a0.59,0.59,0,0,1-.67.28c-0.35-.2-0.79-0.7-0.35-2.15a19.1,19.1,0,0,1,1-2.64c0.07-.11-0.07-0.39-0.41.33a17.27,17.27,0,0,0-1.42,3.88,2.28,2.28,0,0,0,.47,2l0.15,0.08h0Z" transform="translate(-472.5 -16.59)"/><path class="cls-1" d="M556.38,23.85c0.44,0.12,1.24-.18,1.49-1.81,0.16-.92-0.27,0-0.27,0a0.6,0.6,0,0,1-.67.28c-0.35-.2-0.8-0.7-0.35-2.14a21.52,21.52,0,0,1,1-2.64c0.06-.12-0.08-0.39-0.42.33a16,16,0,0,0-1.41,3.88,2.3,2.3,0,0,0,.46,2l0.16,0.07h0Z" transform="translate(-472.5 -16.59)"/><path class="cls-1" d="M562.07,65.41c2.93-1.66,3.21-3.2,3.21-3.2,0.89,0.66.71,2.08,0.71,2.41s0.21,0,.21,0a5.59,5.59,0,0,0,.49-4.06,2.42,2.42,0,0,1-.11-1.3c0.13-.44,1.19.14,1.19,0.14l0.11-1.09a2.26,2.26,0,0,0-1.47-.22,1.53,1.53,0,0,0-.35,1.85,6.42,6.42,0,0,1,.48,2.49,0.61,0.61,0,0,1-.23.5A3.46,3.46,0,0,0,564,60.1c-0.52-.23-0.59,0-0.76.74s1.13,1.31,1.13,1.31l0.2-.27,0.1,0.05,0.23,0.18c-2.42,3.24-8.45,4.87-8.45,4.87a12,12,0,0,0,5.6-1.57h0Z" transform="translate(-472.5 -16.59)"/><path class="cls-1" d="M618.84,27.18c3.22-2.1,3.16-4.5,3.16-4.5,1.06,0.71,1,2.37,1,2.76s0.25,0,.25,0a6.6,6.6,0,0,0,.27-4.74,2.85,2.85,0,0,1-.22-1.49c0.12-.52,1.37.1,1.37,0.1l0-1.28a2.51,2.51,0,0,0-1.69-.16c-0.59.31-.64,1.45-0.27,2.17a7.29,7.29,0,0,1,.7,2.86,0.73,0.73,0,0,1-.23.59,4,4,0,0,0-2.78-3.15c-0.6-.24-0.68,0-0.81.9S621,22.66,621,22.66l0.21-.33,0.12,0.06,0.26,0.2c-2.53,3.9-8.4,7.07-8.4,7.07a19.41,19.41,0,0,0,5.66-2.47h0Z" transform="translate(-472.5 -16.59)"/><path class="cls-1" d="M541.94,35.91s6.71-4.49,28.32-14l1.18-1.9A285.55,285.55,0,0,0,543.11,33.6l-1.17,2.31h0Z" transform="translate(-472.5 -16.59)"/><path class="cls-1" d="M555.58,39.51c-0.85.39-.92,0.55-0.54,0.7a7.13,7.13,0,0,0,2.92-.7c0.86-.38,2.31-2.38,2.78-3.15a1.11,1.11,0,0,0-.32-1.7,11.59,11.59,0,0,0-4.53-.61c-1,.23-1.93,3-1.93,3l0.77-.31c2.62,0,4.31.54,4.15,0.93s-2.45,1.46-3.3,1.84h0Z" transform="translate(-472.5 -16.59)"/><path class="cls-1" d="M544.76,27.4C548.11,25,548.22,23,548.22,23c1.19,0.7,1.16,2.5,1.21,2.9s0.26,0,.26,0a7.09,7.09,0,0,0,0-5.1c-0.28-1.09-.4-1-0.3-1.59s1.47,0,1.47,0l0-1.37a2.74,2.74,0,0,0-1.82-.09c-0.61.37-.6,1.59-0.19,2.34a8.29,8.29,0,0,1,.94,3,0.82,0.82,0,0,1-.22.65c-0.35-2.25-2.53-3-3.17-3.23s-0.72,0-.83,1,1.56,1.48,1.56,1.48l0.22-.36,0.12,0.06,0.29,0.2c-2.48,4.33-9.62,7.13-9.62,7.13a14.31,14.31,0,0,0,6.61-2.68h0Z" transform="translate(-472.5 -16.59)"/><path class="cls-1" d="M608.81,64.65c3.75-1.75,4.24-3.65,4.24-3.65,1,0.91.67,2.66,0.63,3.07s0.26,0,.26,0a7.09,7.09,0,0,0,1-5c-0.08-1.12-.21-1.1,0-1.63s1.43,0.31,1.43.31l0.23-1.35a2.66,2.66,0,0,0-1.77-.43c-0.65.25-.88,1.45-0.62,2.27a8.16,8.16,0,0,1,.34,3.16,0.78,0.78,0,0,1-.33.6c0.08-2.28-1.91-3.43-2.51-3.77s-0.71-.11-1,0.85S612,60.82,612,60.82l0.26-.32,0.13,0.08,0.24,0.25C609.36,64.62,601.83,66,601.83,66a14.28,14.28,0,0,0,7-1.38h0Z" transform="translate(-472.5 -16.59)"/><polygon class="cls-1" points="162.76 55.47 162.6 55.1 162.76 55.47 162.76 55.47"/><path class="cls-1" d="M632.18,46.86l-1.39,2.44a5.38,5.38,0,0,1,.84,1.45s-0.92,1.31-3,.25a2,2,0,0,1-1.09-1.55c0.1-.5.4-1.64,0.4-1.64s-0.2-.55-0.8.44c-0.1.17-.22,0.37-0.35,0.57a13,13,0,0,1-2.48,2.58,7.17,7.17,0,0,1-1.7.63,3,3,0,0,1-2.87-.68c-0.84-1.08,0-2.82,0-2.82s-0.14-.31-0.84.24c-0.12.08-.4,0.25-0.82,0.48-11.19,4.42-30.09,6.26-39.28,5.26a59.77,59.77,0,0,1-10.29-2.09c-3.51-1.22-5.36-2.74-6.55-4.35a13,13,0,0,0-.84-1.69,10.48,10.48,0,0,0-.83-1.45l-0.87,3.29a7.59,7.59,0,0,1,.48.66l0,0.07a17.21,17.21,0,0,0,.93,1.46,11.29,11.29,0,0,1,.88,1.88,13.35,13.35,0,0,1,.67,2s-6.9,6.22-28.49,12.24c0,0,12.53-1,15.68-2.07,2.22-.77,10.57-4.55,12.42-7.09a7,7,0,0,0,1.19-4.23,13.09,13.09,0,0,0,5.75,3.11,29.33,29.33,0,0,0,3.42.75c16.32,2.68,34.36.14,46-5.14,0,0-.48,3.28,2.39,3.41h0a3.61,3.61,0,0,0,1,0c1.5-.23,2.93-0.68,4.36-3.29l0.2,0.4v0l0.06,0.17,0.16,0.35,0.19,0.32,0,0.05,0,0,0.06,0.09a2.84,2.84,0,0,0,2.06,1.31c1.94,0.2,3.39-2.14,3.74-3.49a5.21,5.21,0,0,0-.45-4.33h0Z" transform="translate(-472.5 -16.59)"/><path class="cls-1" d="M476.8,94.52a8.36,8.36,0,0,0,1.83.19c3.74,0,7.07-2.11,7.07-6.81s-2.46-7.13-6.64-7.13a9.35,9.35,0,0,0-2.26.3V94.52h0Zm-2.56-12c0-1.25.19-3.23-1.1-3.64V78.82h6.14c5.72,0,9.28,3.36,9.28,8.76s-3.79,9.08-9.41,9.08h-6V96.58c1.25-.92,1.1-2.22,1.1-3.83V82.54h0Z" transform="translate(-472.5 -16.59)"/><path class="cls-1" d="M501.73,94.87a6,6,0,0,1-4.91,2.22,5.91,5.91,0,0,1-4.54-1.9c-1.32-1.57-1.28-3.39-1.28-5.34V82.62c0-1.22.18-3.2-1.1-3.72V78.82h4.76V78.9c-1.25.51-1.11,2.5-1.11,3.72v7.24c0,3.61,1.42,5.29,4,5.29a4.32,4.32,0,0,0,3.66-1.9,3.79,3.79,0,0,0,.53-2.47V82.62c0-1.22.15-3.2-1.1-3.72V78.82h4.76l0,0.08c-1.27.51-1.12,2.5-1.12,3.74V92.87c0,1.22-.15,3.2,1.12,3.71v0.08h-3.67V94.87h0Z" transform="translate(-472.5 -16.59)"/><path class="cls-1" d="M513.16,94.71c2.05,0.22,4.14-.81,4.14-3.39s-2.35-3.77-4.56-3.63L511,87.8v6.7l2.19,0.22h0ZM511.8,86c1.63,0,4-.59,4-2.82a2.71,2.71,0,0,0-3.12-2.68l-1.68.19V86h0.83Zm-3.38-3.39c0-1.22.18-3.2-1.1-3.72V78.82h5.94c3.32,0,5.25,1.52,5.25,3.93A3.77,3.77,0,0,1,516,86.28a4.84,4.84,0,0,1,4.09,4.79,5.46,5.46,0,0,1-3,4.75c-1.75.92-3.73,0.84-5.61,0.84h-4.14V96.58c1.25-.51,1.1-2.49,1.1-3.74V82.62h0Z" transform="translate(-472.5 -16.59)"/><path class="cls-1" d="M529.56,81.12L527.09,88H532l-2.46-6.83h0ZM526.43,90l-1.3,3.82c-0.53,1.52-.71,2.31.49,2.79v0.08H521V96.58c1.45-.78,1.89-2.3,2.44-3.85l4.18-11.31c0.35-1,.83-2.11-0.37-2.52V78.82h4l5.21,13.91c0.57,1.55,1,3.07,2.45,3.85v0.08h-5.14V96.58c1.23-.59,1-0.89.35-2.79L532.75,90h-6.32Z" transform="translate(-472.5 -16.59)"/><path class="cls-1" d="M541,82.65c0-1.25.18-3.23-1.1-3.74V78.82h4.77V78.9c-1.26.51-1.11,2.52-1.11,3.74V92.87c0,1.22-.15,3.2,1.11,3.71v0.08h-4.77V96.58c1.25-.48,1.1-2.49,1.1-3.71V82.65h0Z" transform="translate(-472.5 -16.59)"/><path class="cls-1" d="M559.71,78.82c3.26,0,5.75,1.71,5.75,4.74a5.25,5.25,0,0,1-5.51,5.1,3.9,3.9,0,0,1-1.83-.38c2.16-.13,4.49-1.57,4.49-4.17,0-2.39-1.56-3.34-3.56-3.34a9.17,9.17,0,0,0-1.75.17V93.16c0,1.52,0,2.6,1.29,3.42v0.08h-5V96.58c1.27-.48,1.12-2.49,1.12-3.71V82.65c0-1.22.15-3.2-1.1-3.74V78.82h6.09Z" transform="translate(-472.5 -16.59)"/><path class="cls-1" d="M569,87.45c0,3.79,2.48,7.7,6.41,7.7s6.25-3,6.25-7.05-2.33-7.78-6.29-7.78-6.37,3-6.37,7.13h0Zm15.52,0.11a9.29,9.29,0,0,1-9.23,9.55,9.11,9.11,0,0,1-9.15-9.41,9.23,9.23,0,0,1,9.4-9.33,9,9,0,0,1,9,9.19h0Z" transform="translate(-472.5 -16.59)"/><path class="cls-1" d="M593.27,94.71a5.88,5.88,0,0,0,4.44-1.65h0.08l-1.31,3.61H586.17V96.58c1.29-.48,1.13-2.49,1.13-3.71V82.65c0-1.25.15-3.23-1.13-3.74V78.82H591V78.9c-1.28.51-1.1,2.52-1.1,3.74V94.47l3.41,0.24h0Z" transform="translate(-472.5 -16.59)"/><path class="cls-1" d="M600.17,82.65c0-1.25.17-3.23-1.11-3.74V78.82h4.76V78.9c-1.24.51-1.1,2.52-1.1,3.74V92.87c0,1.22-.14,3.2,1.1,3.71v0.08h-4.76V96.58c1.25-.48,1.11-2.49,1.11-3.71V82.65h0Z" transform="translate(-472.5 -16.59)"/><path class="cls-1" d="M618.53,82.18a8.28,8.28,0,0,0-4.64-1.55c-3.46,0-5.87,2.74-5.87,6.67s2.51,7.54,6.36,7.54a10.44,10.44,0,0,0,5.35-1.71h0.08l-1.28,3.15a8.38,8.38,0,0,1-3.79.81c-5.92,0-9.57-3.58-9.57-9.38,0-5.62,3.66-9.33,8.8-9.33a18.46,18.46,0,0,1,4.57.68v3.12h0Z" transform="translate(-472.5 -16.59)"/><path class="cls-1" d="M624.45,94.39l3.18,0.32a6,6,0,0,0,4.64-1.6h0.07l-1.12,3.55H620.76V96.58c1.28-.48,1.13-2.49,1.13-3.71V82.65c0-1.25.15-3.23-1.13-3.74V78.82h8a2.39,2.39,0,0,0,1.18-.14H630v3.17H630a3.36,3.36,0,0,0-3-1.09,13,13,0,0,0-2.56.2v5h3a2.46,2.46,0,0,0,1.1-.16h0.07v2.88h-0.07c-0.4-.79-1.46-0.76-2.23-0.76h-1.86v6.43h0Z" transform="translate(-472.5 -16.59)"/></svg>