<svg id="Layer_1" data-name="Layer 1" xmlns="http://www.w3.org/2000/svg" viewBox="0 0 199.06 82.59"><defs><style>.cls-1{fill:#fff;}</style></defs><title>govt</title><path class="cls-1" d="M179.45,134.36c-2.59-.53-5,3.47-5,3.47a1.36,1.36,0,0,0-.46-0.23c-0.08,0-1.88,2.29-2.16,2.66-2.77,3.75-5.54,3.3-5.56,3.32-5.14.06-6.81-4.51-6.94-4.69-1.15-2.5-1.33-2.32-1.63-2.5s-1.93-.08-4.14,1.8-4,7-4,7.08c-2.71,8.89-4,8.67-5,8.64s-1.82-1.19-2.65-2.78-1.28-5.7-1.26-7.38,0.16-2.31,0-2.3a1.86,1.86,0,0,0-.61,1.09,23,23,0,0,0-.07,5.68c0.16,2.95,2.07,8.45,4.69,8.47s3.71-3.89,3.95-4.52a71.11,71.11,0,0,1,2.9-8.29,5.2,5.2,0,0,1,5-3.27c0.29,0.1,3.21,6.83,8.22,7.12s6.7-3.8,7.12-4.56a3,3,0,0,1,1-1.06,0.53,0.53,0,0,1,.42.16c0.84,1.53,6.73,4.82,7.94,3.69a8.41,8.41,0,0,0,2-4C183.19,141.44,182,134.89,179.45,134.36Zm0.35,7.25c-0.1,0-3.16-1-3.93-2.32,0,0,2.7-3.21,4.15,2.32C180,141.66,179.9,141.66,179.8,141.61Z" transform="translate(-41.67 -100.13)"/><path class="cls-1" d="M127.11,124.9l-0.08-.26,1.48,0,0.65,0a1.55,1.55,0,0,0-.65-0.8c-0.29-.15-4.32-2.61-5.3-2.93,0,0-.77,4.51-0.77,4.51a2.18,2.18,0,0,1,1.24.42,42.69,42.69,0,0,0,2.95,3.85A30.07,30.07,0,0,0,137,136.22a4.93,4.93,0,0,1,3.16,2.16s-2.68,2.17-4.93,3.68c-0.71.48-11.14,7.16-15.58,9.12-0.15.06-4.32,2-5.37,0.21-0.9-1.51-1.07-3.07.7-7.68,0,0,.52-1.29.52-1.29l0.34-1.37s-1.07,1.18-2.49,5.41c-0.77,1.94-1.8,7,.09,8.76s3.78,1.12,7.22-.43c4-1.8,17.75-10.15,19.77-12.85a6.42,6.42,0,0,0,1.07-3.2c0-.35.38-3.53-1.07-4.92a10.87,10.87,0,0,0-3.48-2.27c-1.93-.93-7.07-3.51-9.09-5.91C127.85,125.64,127.11,124.9,127.11,124.9Z" transform="translate(-41.67 -100.13)"/><polygon class="cls-1" points="79.82 36.68 81.81 32.77 85.88 35.65 83.88 39.71 79.82 36.68"/><polygon class="cls-1" points="41.73 59.48 43.71 55.57 47.78 58.45 45.79 62.51 41.73 59.48"/><polygon class="cls-1" points="48.24 58.63 50.22 54.72 54.3 57.6 52.3 61.66 48.24 58.63"/><polygon class="cls-1" points="100.08 30.59 102.06 26.68 106.13 29.56 104.14 33.62 100.08 30.59"/><polygon class="cls-1" points="106.59 29.74 108.57 25.82 112.65 28.71 110.65 32.77 106.59 29.74"/><path class="cls-1" d="M112.36,115.81l-0.08-.35,2.16,0.09a1.1,1.1,0,0,0-.34-0.81c-0.29-.33-4.46-4.16-4.46-4.16l-1.34,4.5a3.77,3.77,0,0,1,1,.77,30.81,30.81,0,0,0,1.4,3.56c0.45,0.76,3,5.25,3.46,5.94a3.48,3.48,0,0,1,.53,1.82,0.77,0.77,0,0,1-.16.29,15.43,15.43,0,0,1-6.06,2.14l-2,0-1.85,3.58s2.12,0.77,2.3.93a33.24,33.24,0,0,0,4.58,1.77,31.83,31.83,0,0,1,4.3,1.31,1.65,1.65,0,0,1,1,1.22s-6.06,4.73-19.59,7.71c-1.22.19-19.2,3.93-35.18-2-0.26-.13-7.82-2.62-13.21-7.09-0.52-.52-4.77-4.32-4.77-4.32l-2.21-2.38,1,2.32s6.46,9.54,6.79,9.86,6.06,5.28,20.17,8.51c6.19,1.42,18.43.84,24-.13s19.2-4.66,23.46-9.6c0.26-.32,2.38-4.32,2.26-5.41a2.72,2.72,0,0,0-1.8-2.71c-0.77-.19-4.51-1.22-4.9-1.35a6.85,6.85,0,0,0,3.67-6.06c0.13-3.16-.64-4-0.84-4.45s-3.16-5.07-3.16-5.07Z" transform="translate(-41.67 -100.13)"/><path class="cls-1" d="M88.44,124.68l-2.23,3.7v0.11a62.15,62.15,0,0,1,6.22.3c0.57,0.2,0,.58,0,0.58s-4.6,2-6,2.46a0.69,0.69,0,0,0-.37.37s5.18-.36,6.44-0.93a18.55,18.55,0,0,0,3.7-4.71c0.14-.37.14-0.54,0-0.62s-0.79-1.3-4-1.36A18.79,18.79,0,0,0,88.44,124.68Z" transform="translate(-41.67 -100.13)"/><path class="cls-1" d="M119.71,101.26s-19.55,6.48-30.23,10-26.25,9.92-26.25,9.92L61,125.09l27.91-10.31c1.24-.46,29.06-10.12,29.06-10.12Z" transform="translate(-41.67 -100.13)"/><path class="cls-1" d="M135.44,105.65c1.84-4.16.39-5.07,0-5.32-0.87-.57-2,0.15-2.94.92a3.29,3.29,0,0,0-1.54,3.16c0.15,1.23,2.25,2.56,2.58,2.77l0,0,0.06,0a41.53,41.53,0,0,1-8.12,7c-2.31,1.53-8.54,5.8-8.54,5.8s1.41-.52,1.61-0.66c0.87-.4,4.88-2.66,8.26-4.62s7.35-7.1,7.35-7.1a0.57,0.57,0,0,0,.22.11,4.93,4.93,0,0,1,1.45,1.82s0,0.17.22-.14a8.76,8.76,0,0,0,.42-2.49A3.49,3.49,0,0,0,135.44,105.65Zm-0.81-.48s-1.73-1.51-2-1.68a0.89,0.89,0,0,1-.41-0.7c1.68-1.15,2.37-.42,2.59.08A3.4,3.4,0,0,1,134.63,105.17Z" transform="translate(-41.67 -100.13)"/><path class="cls-1" d="M159.33,106.77c1.84-4.16.4-5.07,0-5.32-0.86-.57-2,0.15-2.93.92a3.29,3.29,0,0,0-1.54,3.16c0.16,1.23,2.25,2.56,2.58,2.77l0,0,0.06,0a41.61,41.61,0,0,1-8.12,7c-2.31,1.53-8.54,5.8-8.54,5.8s1.41-.52,1.61-0.66c0.87-.4,4.88-2.66,8.26-4.62s7.35-7.1,7.35-7.1a0.56,0.56,0,0,0,.22.11,4.94,4.94,0,0,1,1.45,1.82s0,0.17.22-.14a8.69,8.69,0,0,0,.42-2.49A3.49,3.49,0,0,0,159.33,106.77Zm-0.81-.48s-1.73-1.51-2-1.68a0.89,0.89,0,0,1-.41-0.7c1.68-1.15,2.37-.42,2.59.09A3.4,3.4,0,0,1,158.52,106.28Z" transform="translate(-41.67 -100.13)"/><path class="cls-1" d="M229.09,116.68c1.48-3.33.32-4.06,0-4.25-0.69-.46-1.56.12-2.35,0.74a2.63,2.63,0,0,0-1.23,2.53c0.12,1,1.8,2.05,2.07,2.21l0,0,0,0a33.26,33.26,0,0,1-6.49,5.62c-1.85,1.22-6.83,4.64-6.83,4.64s1.13-.42,1.28-0.53c0.69-.32,3.9-2.13,6.61-3.7s5.88-5.68,5.88-5.68a0.45,0.45,0,0,0,.18.09,4,4,0,0,1,1.16,1.45s0,0.13.18-.11a7,7,0,0,0,.33-2A2.8,2.8,0,0,0,229.09,116.68Zm-0.65-.39s-1.38-1.21-1.59-1.34a0.71,0.71,0,0,1-.33-0.56c1.34-.92,1.89-0.34,2.07.07A2.72,2.72,0,0,1,228.44,116.3Z" transform="translate(-41.67 -100.13)"/><path class="cls-1" d="M170,110.06v0.52a5.87,5.87,0,0,0-1.72-.89,0.44,0.44,0,0,1-.24-0.15,11.12,11.12,0,0,1,.33-1.95,1.38,1.38,0,0,1,.61-0.34c0.11,0,2.19.83,3.15,4.65,0,0,.43,1.76.43,1.76l0.13-1s0.45-4.22.53-4.62,0.53-1.49,1.19-1.5a4.3,4.3,0,0,1,1.85,1.11l-0.59,1.54a4.42,4.42,0,0,0-1.32-.87c-0.78-.05-0.93,1.25-1.13,3.46a10.65,10.65,0,0,1-.49,3.06,4.59,4.59,0,0,1-.31.59A11.36,11.36,0,0,0,170,110" transform="translate(-41.67 -100.13)"/><path class="cls-1" d="M204.58,120.29v0.52a5.87,5.87,0,0,0-1.72-.89,0.44,0.44,0,0,1-.24-0.15,11,11,0,0,1,.33-1.95,1.4,1.4,0,0,1,.61-0.34c0.11,0,2.19.83,3.15,4.65,0,0,.43,1.76.43,1.76l0.13-1s0.45-4.22.53-4.62,0.53-1.49,1.19-1.5a4.31,4.31,0,0,1,1.85,1.11l-0.59,1.54a4.44,4.44,0,0,0-1.32-.87c-0.78-.05-0.93,1.25-1.13,3.46a10.7,10.7,0,0,1-.49,3.06,4.49,4.49,0,0,1-.31.59,11.35,11.35,0,0,0-2.4-5.41" transform="translate(-41.67 -100.13)"/><path class="cls-1" d="M171.23,126.54a1.53,1.53,0,0,0-.55.36,12.44,12.44,0,0,0-2.07,4.6c-0.71,2.91.91,3.43,0.91,3.43s1,0.49,2-1.84a3.85,3.85,0,0,0,.33-1.17s0-.31-0.27-0.09A3,3,0,0,0,171,133a0.64,0.64,0,0,1-.43.34c-0.1,0-1.62,0-1.14-2.34a21.31,21.31,0,0,1,1.33-3.37S171.23,126.54,171.23,126.54Z" transform="translate(-41.67 -100.13)"/><path class="cls-1" d="M99.86,133.63a1.52,1.52,0,0,0-.55.36,12.4,12.4,0,0,0-2.07,4.6c-0.71,2.91.91,3.43,0.91,3.43s1,0.49,2-1.83a3.9,3.9,0,0,0,.33-1.17s0-.31-0.27-0.09a3,3,0,0,0-.55,1.14,0.64,0.64,0,0,1-.43.34c-0.1,0-1.62,0-1.14-2.34a21.41,21.41,0,0,1,1.33-3.37S99.86,133.63,99.86,133.63Z" transform="translate(-41.67 -100.13)"/><path class="cls-1" d="M185.06,114.89l-14.3,5c-4.41,1.55-12.67,5.12-12.67,5.12l-0.79,2.14s24.23-9.49,26.18-9.85C183.44,117.27,185.06,114.89,185.06,114.89Z" transform="translate(-41.67 -100.13)"/><path class="cls-1" d="M240.63,137v0S240.63,137,240.63,137Zm-1.39-.07a41.3,41.3,0,0,1-12.09-4.14c-5.46-2.83-8.31-2.07-8.39-2-5.31,1.34-5.41,7.26-5.36,8s1,4.31,1,4.31-0.45-.13-0.52-0.13c-3.93-1.61-6.44-5.93-6.83-6.51-3.29-5.54-10.18-12.69-10.83-13.4s-6.57-6.25-6.57-6.25l3.54-1.87c10.89-4.64,21.5-7.65,26.87-8.38,3.78-.51,3.29,2.06,3.09,2.32s-2,3.35-2.23,3.74-2.56,5-3.05,6.44c-0.77,2.23-.47,2.79-0.47,2.79s0.73-1.44.73-1.5a96.57,96.57,0,0,1,4.9-9.22c1.11-1.91,2.49-3.67,2.64-6.7s-8.18-1.29-8.31-1.22a133.54,133.54,0,0,0-28.55,10.18l-1.29,2.38-0.9,2.9s3.61,4.38,3.67,4.38a171.86,171.86,0,0,1,11.6,16.63,1.51,1.51,0,0,1,.17,1.25c-0.55.64-4.17,1.76-4.17,1.76l-0.32-.56c-5.48-9.92-9.8-1.61-9.92-1.1-1.65,3.29.07,4.73,0.07,4.8,2.21,3,8,1,8.19,1.26a6,6,0,0,1,.52,1.3c-7.61,8.28-15.61,10.26-17,10.37-8,.57-7.54-6.13-7.28-8.46a54.21,54.21,0,0,1,1.84-7l-0.74.71s-0.1.21-.35,0.66a23.88,23.88,0,0,0-2.23,8.63c-0.13,11.68,9.28,11.49,16.7,6.38,7.63-5.27,8.73-7.13,9.68-8.58,0.76-1.15,1.15-4.71,1.15-4.71l2.93-1.29a6.63,6.63,0,0,0,2.15-4.36,8.25,8.25,0,0,0-.54-4.58l0-.44a78.36,78.36,0,0,0,5.49,7.85c3.44,4.36,7.24,4,7.24,4l0.27,2.8,0.32-.1a1.37,1.37,0,0,0,.41-0.71,8.9,8.9,0,0,0,.35-2.24s1-.24,1-0.22c3.65-.6,13.22-5.51,17-6.19a14.77,14.77,0,0,1,4,0l1.86-3.9A5.41,5.41,0,0,1,239.24,136.92Zm-49.52,5.78a0.37,0.37,0,0,1-.06-0.37,1.89,1.89,0,0,1,2.13-1,4.74,4.74,0,0,1,2.44,2S190.81,143.61,189.72,142.71Zm35-1.7a72.6,72.6,0,0,1-8,2.18s-1.79-5.73-1.69-6.16a3.68,3.68,0,0,1,2.06-2.09,8.72,8.72,0,0,1,6.25.74c2.48,1.24,6.44,3,6.8,3l0.58,0.15Z" transform="translate(-41.67 -100.13)"/><path class="cls-1" d="M50.7,172.15a4,4,0,0,0-4.91.86,5.06,5.06,0,0,0-1,1.65,6.64,6.64,0,0,0-.37,2.33,6.09,6.09,0,0,0,.28,1.89,4.53,4.53,0,0,0,.8,1.5,3.68,3.68,0,0,0,1.29,1,4.07,4.07,0,0,0,1.74.36l0.5,0,0.54-.06a3.46,3.46,0,0,0,.48-0.09,1.07,1.07,0,0,0,.32-0.13,4.58,4.58,0,0,0,0-.51c0-.2,0-0.43,0-0.68q0-1.37,0-2t-0.06-.89l0.45,0.06c0.19,0,.45,0,0.81,0s0.71,0,.91,0l0.47-.06a3.19,3.19,0,0,0-.06.44c0,0.2,0,.44,0,0.7s0,0.55,0,.85,0,0.59,0,.86v0.56c0,0.28,0,.55,0,0.79a3.6,3.6,0,0,0,0,.52,19,19,0,0,1-2.26.51,14.06,14.06,0,0,1-2.26.19,9,9,0,0,1-2.69-.38,6.08,6.08,0,0,1-2.12-1.12,5.19,5.19,0,0,1-1.39-1.78,5.39,5.39,0,0,1-.5-2.35,7,7,0,0,1,.53-2.83,5.56,5.56,0,0,1,1.47-2A6.29,6.29,0,0,1,45.9,171a9.19,9.19,0,0,1,2.78-.41,8.27,8.27,0,0,1,2.23.27,9.06,9.06,0,0,1,1.86.76l-0.26.86a8.69,8.69,0,0,0-.21.87H52.06A4.22,4.22,0,0,0,50.7,172.15Z" transform="translate(-41.67 -100.13)"/><path class="cls-1" d="M55.12,174.34a5.88,5.88,0,0,1,1.31-1.93,6.1,6.1,0,0,1,2.05-1.31,7.27,7.27,0,0,1,2.68-.48,8.3,8.3,0,0,1,2.53.37,5.74,5.74,0,0,1,2,1.12A5.2,5.2,0,0,1,67.09,174a6.65,6.65,0,0,1,.5,2.67,5.83,5.83,0,0,1-.48,2.37A6,6,0,0,1,65.77,181a6.08,6.08,0,0,1-2,1.28,7.16,7.16,0,0,1-2.61.46,9.31,9.31,0,0,1-2.52-.33,5.43,5.43,0,0,1-2.05-1.07,5.18,5.18,0,0,1-1.38-1.88,6.72,6.72,0,0,1-.51-2.74A6,6,0,0,1,55.12,174.34Zm9.42,0a4.53,4.53,0,0,0-.75-1.49,3.33,3.33,0,0,0-1.17-.94,3.4,3.4,0,0,0-1.5-.33,3,3,0,0,0-1.55.42,3.69,3.69,0,0,0-1.16,1.13,5.34,5.34,0,0,0-.72,1.67,8.21,8.21,0,0,0-.25,2,7.77,7.77,0,0,0,.29,2.29,4.11,4.11,0,0,0,.78,1.5,2.91,2.91,0,0,0,1.14.82,3.64,3.64,0,0,0,1.36.25,3.4,3.4,0,0,0,1.46-.32,3.3,3.3,0,0,0,1.21-1,5.2,5.2,0,0,0,.83-1.68,8.18,8.18,0,0,0,.31-2.41A6.69,6.69,0,0,0,64.54,174.36Z" transform="translate(-41.67 -100.13)"/><path class="cls-1" d="M75.66,175q0.83-2.18,1.49-4.18a3.24,3.24,0,0,0,1.49,0l-1,2.41q-0.59,1.41-1.24,3t-1.27,3.21q-0.63,1.63-1.12,3.05a6.26,6.26,0,0,0-1.49,0l-0.62-1.65-0.78-2.05q-0.42-1.09-.87-2.22l-0.88-2.2-0.8-2c-0.25-.61-0.46-1.13-0.64-1.56l0.77,0.06,0.75,0,0.75,0,0.75-.06q0.29,0.95.65,2L72.34,175q0.39,1.1.81,2.2t0.81,2.17Q74.83,177.21,75.66,175Z" transform="translate(-41.67 -100.13)"/><path class="cls-1" d="M80.18,173q0-1.1-.1-2.2l1.51,0.05c0.5,0,1,0,1.51,0q1.25,0,2.23,0c0.65,0,1.09,0,1.31-.06a3.08,3.08,0,0,0-.07.71,3.84,3.84,0,0,0,0,.42c0,0.1,0,.22.05,0.34l-1.08-.07-1.14-.07-1-.05-0.63,0q-0.07.93-.08,1.85c0,0.61,0,1.22,0,1.85l2-.05,1.86-.08c0,0.19-.06.34-0.07,0.44a2.86,2.86,0,0,0,0,.32,1.66,1.66,0,0,0,0,.28c0,0.09,0,.23.06,0.41Q84.64,177,82.73,177c0,0.36,0,.72,0,1.08s0,0.72,0,1.08q0,1.1,0,2.12,1,0,1.93,0t2-.16c0,0.12,0,.24-0.05.34a3.85,3.85,0,0,0,0,.42,3.9,3.9,0,0,0,0,.43,1.29,1.29,0,0,0,.05.25l-1.13,0h-5.1l-0.33,0q0.07-1.05.1-2.15t0-2.5v-2.31Q80.21,174.14,80.18,173Z" transform="translate(-41.67 -100.13)"/><path class="cls-1" d="M91.36,177.16v0.69q0,1.41,0,2.5c0,0.73.05,1.45,0.1,2.15a4.1,4.1,0,0,0-.63,0H89.34a4.07,4.07,0,0,0-.63,0q0.07-1.05.1-2.15t0-2.5v-2.31q0-1.41,0-2.5t-0.1-2.2l0.63,0.06c0.23,0,.48,0,0.76,0s0.65,0,1,0,0.87,0,1.45,0,0.8,0,1.1,0a6.62,6.62,0,0,1,.79.1,2.86,2.86,0,0,1,.58.18,3,3,0,0,1,.47.26,2.76,2.76,0,0,1,.81.93,2.71,2.71,0,0,1,.3,1.31,3,3,0,0,1-.68,2,3.69,3.69,0,0,1-2,1.1c0.54,1,1.12,1.92,1.75,2.88l1.86,2.84a6.63,6.63,0,0,0-.76,0H95.32a6.76,6.76,0,0,0-.77,0l-3-5.34H91.36Zm2.52-4.31a1.36,1.36,0,0,0-.47-0.67,1.76,1.76,0,0,0-.81-0.3,8.85,8.85,0,0,0-1.19-.07q0,2.3,0,4.61l0.19,0h0.18a2.29,2.29,0,0,0,1.71-.6A2.51,2.51,0,0,0,94,174,3.77,3.77,0,0,0,93.88,172.85Z" transform="translate(-41.67 -100.13)"/><path class="cls-1" d="M99.32,172.26q0-.8-0.05-1.41a3.4,3.4,0,0,0,1.53,0l3.66,4q1.81,2,3.71,4V175.8c0-.55,0-1.1,0-1.64s0-1,0-1.48,0-.84,0-1.17a5.34,5.34,0,0,0-.06-0.66,3.41,3.41,0,0,0,1.53,0q-0.09,1.54-.14,2.79c0,0.83-.07,1.62-0.09,2.35s0,1.46,0,2.18,0,1.49,0,2.3v2a5.29,5.29,0,0,0-.69,0,4.33,4.33,0,0,0-.66,0q-3.49-4.07-7.41-8.2c0,0.33,0,.66,0,1s0,0.66,0,1v2q0,1,0,1.73t0,1.21c0,0.33,0,.6,0,0.81s0,0.38,0,.5a1.88,1.88,0,0,0-.41,0H99.8a6.77,6.77,0,0,0-.78,0,9.48,9.48,0,0,0,.08-1q0.05-.83.11-2c0-.8.07-1.66,0.1-2.6s0-1.83,0-2.69S99.35,172.79,99.32,172.26Z" transform="translate(-41.67 -100.13)"/><path class="cls-1" d="M113.35,178.7q-0.14,1.9-.27,3.8a1.88,1.88,0,0,0-.41,0h-0.79a1.83,1.83,0,0,0-.4,0q0.54-2.92,1-5.8t0.78-5.85l0.35,0.06,0.35,0,0.32,0,0.36-.06q0.46,1,1,2.07l1,2.09q0.5,1,1,2l1,1.9q1-1.9,2-4t1.92-4.13a3.68,3.68,0,0,0,.73.09,3.63,3.63,0,0,0,.71-0.09q0.17,1.46.36,3.14t0.38,3.28q0.19,1.6.37,3t0.34,2.24a5.22,5.22,0,0,0-.69,0H123.3a5.68,5.68,0,0,0-.71,0q-0.08-1.75-.28-3.78t-0.4-4h0l-1.9,3.94q-0.94,1.93-1.85,3.89l-0.16,0h-0.32l-0.16,0-1.82-3.8q-0.91-1.9-1.87-3.85h0C113.58,176.15,113.44,177.44,113.35,178.7Z" transform="translate(-41.67 -100.13)"/><path class="cls-1" d="M127.28,173q0-1.1-.1-2.2l1.51,0.05c0.5,0,1,0,1.51,0q1.25,0,2.23,0c0.65,0,1.09,0,1.32-.06a3,3,0,0,0-.07.71c0,0.18,0,.32,0,0.42s0,0.22.05,0.34l-1.08-.07-1.13-.07-1-.05-0.63,0c0,0.62-.07,1.24-0.08,1.85s0,1.22,0,1.85l2-.05,1.86-.08c0,0.19-.06.34-0.07,0.44a2.61,2.61,0,0,0,0,.32,1.7,1.7,0,0,0,0,.28c0,0.09,0,.23.06,0.41q-1.93-.15-3.85-0.16c0,0.36,0,.72,0,1.08s0,0.72,0,1.08q0,1.1,0,2.12,1,0,1.93,0t2-.16c0,0.12,0,.24-0.05.34a4,4,0,0,0,0,.42,4,4,0,0,0,0,.43,1.28,1.28,0,0,0,.05.25l-1.13,0h-5.1l-0.33,0q0.07-1.05.1-2.15t0-2.5v-2.31Q127.31,174.14,127.28,173Z" transform="translate(-41.67 -100.13)"/><path class="cls-1" d="M136.06,172.26q0-.8-0.05-1.41a3.4,3.4,0,0,0,1.53,0l3.66,4q1.81,2,3.71,4V175.8c0-.55,0-1.1,0-1.64s0-1,0-1.48,0-.84,0-1.17a6,6,0,0,0-.06-0.66,3.39,3.39,0,0,0,1.53,0q-0.09,1.54-.14,2.79c0,0.83-.07,1.62-0.09,2.35s0,1.46,0,2.18,0,1.49,0,2.3v2a5.31,5.31,0,0,0-.7,0,4.32,4.32,0,0,0-.66,0q-3.49-4.07-7.41-8.2c0,0.33,0,.66,0,1s0,0.66,0,1v2q0,1,0,1.73t0,1.21c0,0.33,0,.6,0,0.81s0,0.38,0,.5a1.87,1.87,0,0,0-.41,0h-0.39a6.78,6.78,0,0,0-.78,0,9.34,9.34,0,0,0,.08-1c0-.55.07-1.23,0.11-2s0.07-1.66.1-2.6,0-1.83,0-2.69S136.09,172.79,136.06,172.26Z" transform="translate(-41.67 -100.13)"/><path class="cls-1" d="M151.14,172.72a4,4,0,0,0,0-.59l-0.63,0-0.8,0-0.87.07-0.81.09c0-.12,0-0.25.06-0.38a2.69,2.69,0,0,0,0-.75c0-.12,0-0.25-0.06-0.37l1,0,0.95,0,1.05,0h2.74l1,0,0.92,0,1,0c0,0.12,0,.25-0.06.37a3,3,0,0,0,0,.75c0,0.13,0,.25.06,0.38l-0.76-.09-0.84-.07-0.79,0-0.63,0a1.81,1.81,0,0,0,0,.24c0,0.1,0,.22,0,0.36v5.14q0,1.41,0,2.5t0.1,2.15a4.07,4.07,0,0,0-.63,0h-1.53a4.11,4.11,0,0,0-.63,0q0.07-1.05.1-2.15t0-2.5v-4.24C151.15,173.29,151.14,173,151.14,172.72Z" transform="translate(-41.67 -100.13)"/><path class="cls-1" d="M162.84,174.34a5.92,5.92,0,0,1,1.31-1.93,6.07,6.07,0,0,1,2.05-1.31,7.25,7.25,0,0,1,2.68-.48,8.3,8.3,0,0,1,2.53.37,5.72,5.72,0,0,1,2,1.12,5.24,5.24,0,0,1,1.37,1.89,6.65,6.65,0,0,1,.5,2.67,5.82,5.82,0,0,1-.48,2.37,6,6,0,0,1-1.34,1.93,6.1,6.1,0,0,1-2,1.28,7.18,7.18,0,0,1-2.61.46,9.3,9.3,0,0,1-2.52-.33,5.41,5.41,0,0,1-2.05-1.07,5.2,5.2,0,0,1-1.38-1.88,6.72,6.72,0,0,1-.51-2.74A6,6,0,0,1,162.84,174.34Zm9.42,0a4.52,4.52,0,0,0-.76-1.49,3.3,3.3,0,0,0-1.17-.94,3.42,3.42,0,0,0-1.5-.33,3,3,0,0,0-1.55.42,3.68,3.68,0,0,0-1.16,1.13,5.33,5.33,0,0,0-.72,1.67,8.25,8.25,0,0,0-.25,2,7.83,7.83,0,0,0,.29,2.29,4.15,4.15,0,0,0,.78,1.5,2.91,2.91,0,0,0,1.14.82,3.62,3.62,0,0,0,1.35.25,3.41,3.41,0,0,0,1.46-.32,3.31,3.31,0,0,0,1.21-1,5.16,5.16,0,0,0,.83-1.68,8.15,8.15,0,0,0,.31-2.41A6.67,6.67,0,0,0,172.26,174.36Z" transform="translate(-41.67 -100.13)"/><path class="cls-1" d="M177.21,173q0-1.1-.1-2.2l1.51,0.05c0.5,0,1,0,1.51,0q1.26,0,2.23,0c0.65,0,1.09,0,1.32-.06a3,3,0,0,0-.07.71c0,0.18,0,.32,0,0.42s0,0.22.05,0.34l-1.08-.07-1.14-.07-1-.05-0.63,0c0,0.62-.07,1.24-0.08,1.85s0,1.22,0,1.85l2-.05,1.86-.08c0,0.19-.06.34-0.07,0.44s0,0.21,0,.32a1.47,1.47,0,0,0,0,.28c0,0.09,0,.23.06,0.41q-1.93-.15-3.85-0.16v0.87q0,1.41,0,2.51c0,0.73.05,1.45,0.1,2.15a4,4,0,0,0-.63,0h-1.53a4.09,4.09,0,0,0-.63,0q0.07-1.05.1-2.15t0-2.5v-2.31Q177.24,174.14,177.21,173Z" transform="translate(-41.67 -100.13)"/><path class="cls-1" d="M190.56,173q0-1.1-.1-2.2l0.63,0.06c0.23,0,.48,0,0.77,0s0.79,0,1.25,0,1.07,0,1.81,0a12.34,12.34,0,0,1,2.66.26,5.45,5.45,0,0,1,2.06.89,4.11,4.11,0,0,1,1.34,1.69,6.54,6.54,0,0,1,.48,2.67,6.64,6.64,0,0,1-.47,2.55,5.82,5.82,0,0,1-1.27,1.94,5.46,5.46,0,0,1-1.87,1.23,6,6,0,0,1-2.27.43l-2.17,0-1.56,0h-0.77a4.09,4.09,0,0,0-.63,0q0.07-1.05.1-2.15t0-2.5v-2.31Q190.59,174.14,190.56,173Zm2.55,6.06v1c0,0.33,0,.63,0,0.9s0,0.45,0,.53l0.61,0h0.88a3.79,3.79,0,0,0,3-1.31,7.19,7.19,0,0,0,.84-5.84,4.17,4.17,0,0,0-.79-1.42,3.45,3.45,0,0,0-1.22-.9,3.91,3.91,0,0,0-1.6-.32q-0.61,0-1,0l-0.77.06c0,0.08,0,.26,0,0.53s0,0.58,0,.92v5.76Z" transform="translate(-41.67 -100.13)"/><path class="cls-1" d="M206.92,182.49a4.29,4.29,0,0,1-1.63-.76,3.67,3.67,0,0,1-1.09-1.37,4.76,4.76,0,0,1-.4-2c0-.45,0-0.86,0-1.21s0-.69,0-1,0-.6,0-0.88,0-.58,0-0.88q0-1.37,0-2.22t0-1.27l0.7,0.06,0.69,0,0.69,0,0.69-.06q-0.17,1.64-.2,3.06t0,2.87a11.46,11.46,0,0,0,.22,2.49,3.48,3.48,0,0,0,.65,1.47,2.05,2.05,0,0,0,1.06.69,5.63,5.63,0,0,0,1.45.17,2.31,2.31,0,0,0,1.59-.51,3.16,3.16,0,0,0,.87-1.36,7.26,7.26,0,0,0,.36-1.94q0.07-1.09.07-2.28t0-2.33q0-1.16-.1-2.33l0.46,0.06,0.41,0,0.43,0,0.42-.06c0,0.25-.05.58-0.07,1s-0.05.9-.08,1.45,0,1.16-.06,1.82,0,1.36,0,2.09q0,3-1.27,4.23a5,5,0,0,1-3.72,1.28A8.39,8.39,0,0,1,206.92,182.49Z" transform="translate(-41.67 -100.13)"/><path class="cls-1" d="M217,173c0-.73-0.06-1.46-0.12-2.2l0.63,0.06c0.23,0,.48,0,0.77,0,0.49,0,1,0,1.53,0s1,0,1.53,0a5.93,5.93,0,0,1,1.39.15,3.23,3.23,0,0,1,1.09.47,2.09,2.09,0,0,1,.71.81,2.69,2.69,0,0,1,.25,1.2,2.34,2.34,0,0,1-.29,1.19,2.89,2.89,0,0,1-.71.83,3.4,3.4,0,0,1-.91.52,4.56,4.56,0,0,1-.88.25v0a3.76,3.76,0,0,1,.91.18,3.5,3.5,0,0,1,1,.5,3,3,0,0,1,.8.87,2.43,2.43,0,0,1,.33,1.3,3.39,3.39,0,0,1-.33,1.56,3,3,0,0,1-.88,1.06,3.34,3.34,0,0,1-1.26.57,6.62,6.62,0,0,1-1.47.16l-1.26,0-1.23,0h-0.94a5.26,5.26,0,0,0-.77,0c0.05-.7.09-1.42,0.12-2.15s0-1.56,0-2.5v-2.31Q217,174.14,217,173Zm5.15,0a1.56,1.56,0,0,0-.31-0.63,1.67,1.67,0,0,0-.56-0.42,2,2,0,0,0-.85-0.16h-0.52l-0.31,0c0,0.42,0,.84-0.05,1.27s0,0.79,0,1.08,0,0.59,0,.87,0,0.56,0,.85h0.76a1.89,1.89,0,0,0,.7-0.13,1.82,1.82,0,0,0,.62-0.4,1.92,1.92,0,0,0,.44-0.67,2.43,2.43,0,0,0,.17-0.95A3,3,0,0,0,222.11,173Zm-0.33,4.48a2,2,0,0,0-1.54-.59h-0.73c0,0.24,0,.48,0,0.74s0,0.56,0,.91,0,0.55,0,.83,0,0.56,0,.83,0,0.52,0,.75,0,0.41,0,.56l0.44,0h0.49a1.68,1.68,0,0,0,1.3-.6,2.31,2.31,0,0,0,.4-0.72,2.94,2.94,0,0,0,.15-1A2.58,2.58,0,0,0,221.78,177.5Z" transform="translate(-41.67 -100.13)"/><path class="cls-1" d="M236.27,182.5a7,7,0,0,0-.77,0h-1.44a5.76,5.76,0,0,0-.72,0l-0.56-1.7q-0.29-.87-0.61-1.74l-1.08,0h-2l-0.88,0q-0.34.87-.63,1.74c-0.19.58-.37,1.15-0.53,1.7a1.85,1.85,0,0,0-.4,0h-0.8a2.37,2.37,0,0,0-.44,0c0.13-.29.32-0.7,0.54-1.22s0.47-1.11.75-1.77l0.87-2.11,0.93-2.28,0.92-2.28q0.45-1.12.82-2.09l0.32,0.06a1.88,1.88,0,0,0,.64,0l0.32-.06,1.16,3.09q0.62,1.65,1.25,3.23t1.22,3Q235.78,181.52,236.27,182.5Zm-6-8.47c-0.29.68-.57,1.35-0.83,2s-0.51,1.34-.76,2h3.1L231,176C230.8,175.38,230.54,174.71,230.27,174Z" transform="translate(-41.67 -100.13)"/><path class="cls-1" d="M238,173q0-1.1-.1-2.2l0.63,0.06c0.22,0,.48,0,0.76,0s0.54,0,.76,0l0.63-.06q-0.07,1.1-.1,2.2t0,2.5v2.31q0,1.41,0,2.5t0.1,2.15a4.08,4.08,0,0,0-.63,0h-1.53a4,4,0,0,0-.63,0q0.07-1.05.1-2.15c0-.73,0-1.56,0-2.5v-2.31C238.08,174.61,238.07,173.77,238,173Z" transform="translate(-41.67 -100.13)"/></svg>