<svg id="_ÎÓÈ_1" data-name="—ÎÓÈ_1" xmlns="http://www.w3.org/2000/svg" viewBox="0 0 2498.7 763.3"><defs><style>.cls-1{fill:#fff;}</style></defs><title>icons-pattern-new</title><path class="cls-1" d="M511.7,293.8a96.4,96.4,0,1,1,96.4-96.4A96.52,96.52,0,0,1,511.7,293.8Zm0-187.8a91.4,91.4,0,1,0,91.4,91.4A91.5,91.5,0,0,0,511.7,106Z" transform="translate(-29.5 0)"/><path class="cls-1" d="M504.1,216.4a2.77,2.77,0,0,1-.1.9,4.88,4.88,0,0,1-.3.7,1.21,1.21,0,0,1-.5.5,1.42,1.42,0,0,1-.6.2h-28a1.7,1.7,0,0,1-.7-0.1,2.09,2.09,0,0,1-.6-0.4,1.61,1.61,0,0,1-.4-0.7,3.08,3.08,0,0,1-.1-1v-0.9a1.45,1.45,0,0,1,.2-0.7l0.3-.6c0.1-.2.3-0.4,0.5-0.7l10.6-11.2a69.6,69.6,0,0,0,6.3-7.5,37.46,37.46,0,0,0,3.6-5.9,19.22,19.22,0,0,0,1.6-4.8,19.63,19.63,0,0,0,.4-4.1,11.48,11.48,0,0,0-.6-3.7,7.53,7.53,0,0,0-1.8-3,8.13,8.13,0,0,0-3-2.1,10.7,10.7,0,0,0-4.1-.8,12.51,12.51,0,0,0-4.5.7,22.88,22.88,0,0,0-3.5,1.6c-1,.6-1.8,1.1-2.5,1.6a3.06,3.06,0,0,1-1.5.7,0.48,0.48,0,0,1-.4-0.1,1.38,1.38,0,0,1-.3-0.4,1.45,1.45,0,0,1-.2-0.7c0-.3-0.1-0.6-0.1-0.9v-0.8c0-.2.1-0.4,0.1-0.6s0.1-.3.2-0.5a1.7,1.7,0,0,1,.6-0.6,10.19,10.19,0,0,1,1.6-1.1,18.16,18.16,0,0,1,2.8-1.4,20.8,20.8,0,0,1,8-1.7,17.86,17.86,0,0,1,6.4,1.1,12.94,12.94,0,0,1,4.5,2.9,12.06,12.06,0,0,1,2.7,4.3,14.4,14.4,0,0,1,.9,5.1,28.1,28.1,0,0,1-.4,5,24.34,24.34,0,0,1-1.8,5.4,40.56,40.56,0,0,1-4,6.4,86.33,86.33,0,0,1-7,8.1l-9.5,9.9h23.7a1.27,1.27,0,0,1,.6.1,1.76,1.76,0,0,1,.5.4,4.87,4.87,0,0,1,.3.7A1.29,1.29,0,0,1,504.1,216.4Z" transform="translate(-29.5 0)"/><path class="cls-1" d="M548.3,204a2.41,2.41,0,0,1-.4,1.5,1.25,1.25,0,0,1-1.1.6h-6.6v11.8a0.48,0.48,0,0,1-.1.4,1.38,1.38,0,0,1-.4.3,6.37,6.37,0,0,1-.7.2,4.12,4.12,0,0,1-1.2.1,3.42,3.42,0,0,1-1.1-.1,3.1,3.1,0,0,1-.7-0.2,1.38,1.38,0,0,1-.4-0.3,0.6,0.6,0,0,1-.1-0.4V206.1H513.2a1.08,1.08,0,0,1-.6-0.1,2.19,2.19,0,0,1-.5-0.3,1.69,1.69,0,0,1-.3-0.6,3.08,3.08,0,0,1-.1-1v-0.9c0-.3.1-0.5,0.1-0.8s0.2-.5.3-0.7,0.3-.5.4-0.7l20.1-33.3a1.2,1.2,0,0,1,.5-0.5,5.94,5.94,0,0,1,.8-0.4,3.59,3.59,0,0,1,1.1-.2c0.4,0,.9-0.1,1.5-0.1a7.59,7.59,0,0,1,1.6.1c0.5,0.1.9,0.1,1.2,0.2a1.19,1.19,0,0,1,.7.4,0.68,0.68,0,0,1,.3.5v34.2h6.6a1.43,1.43,0,0,1,1.1.5A3.51,3.51,0,0,1,548.3,204Zm-12.9-33.1h0l-18.7,31h18.7v-31Z" transform="translate(-29.5 0)"/><rect class="cls-1" x="479.7" y="103.5" width="5" height="11.9"/><rect class="cls-1" x="564.2" y="194.9" width="11.9" height="5"/><rect class="cls-1" x="479.7" y="279.4" width="5" height="11.9"/><rect class="cls-1" x="388.3" y="194.9" width="11.9" height="5"/><path class="cls-1" d="M1800.3,678.9a2.3,2.3,0,0,1-1.4-.4l-34-23.2a117.09,117.09,0,0,1-22.3,2.1c-46.1,0-83.6-26.3-83.6-58.6s37.5-58.6,83.6-58.6,83.6,26.3,83.6,58.6c0,17.9-11.3,34.5-31.1,45.7l7.6,31.4a2.53,2.53,0,0,1-1,2.6A2.3,2.3,0,0,1,1800.3,678.9Zm-34.9-28.7a2.3,2.3,0,0,1,1.4.4l29.5,20.1-6.5-26.9a2.43,2.43,0,0,1,1.2-2.8c19.2-10.3,30.2-25.7,30.2-42.2,0-29.6-35.3-53.6-78.6-53.6s-78.6,24.1-78.6,53.6,35.3,53.6,78.6,53.6a109.53,109.53,0,0,0,22.3-2.2h0.5Z" transform="translate(-29.5 0)"/><path class="cls-1" d="M1704.3,610.4a12.2,12.2,0,1,1,12.2-12.2A12.12,12.12,0,0,1,1704.3,610.4Zm0-19.5a7.2,7.2,0,1,0,7.2,7.2A7.17,7.17,0,0,0,1704.3,590.9Z" transform="translate(-29.5 0)"/><path class="cls-1" d="M1738.9,610.4a12.2,12.2,0,1,1,12.2-12.2A12.25,12.25,0,0,1,1738.9,610.4Zm0-19.5a7.2,7.2,0,1,0,7.2,7.2A7.17,7.17,0,0,0,1738.9,590.9Z" transform="translate(-29.5 0)"/><path class="cls-1" d="M1773.4,610.4a12.2,12.2,0,1,1,12.2-12.2A12.25,12.25,0,0,1,1773.4,610.4Zm0-19.5a7.2,7.2,0,1,0,7.2,7.2A7.17,7.17,0,0,0,1773.4,590.9Z" transform="translate(-29.5 0)"/><path class="cls-1" d="M755.9,362.3A43.3,43.3,0,1,1,799.2,319,43.32,43.32,0,0,1,755.9,362.3Zm0-81.6A38.3,38.3,0,1,0,794.2,319,38.37,38.37,0,0,0,755.9,280.7Z" transform="translate(-29.5 0)"/><path class="cls-1" d="M768.8,445.4H742.2a2.48,2.48,0,0,1-2.5-2.5v-58a2.48,2.48,0,0,1,2.5-2.5h26.6a2.48,2.48,0,0,1,2.5,2.5v58A2.48,2.48,0,0,1,768.8,445.4Zm-24-5h21.6v-53H744.8v53Z" transform="translate(-29.5 0)"/><path class="cls-1" d="M763.1,387.4H748a2.48,2.48,0,0,1-2.5-2.5V361.6a2.48,2.48,0,0,1,2.5-2.5h15.2a2.48,2.48,0,0,1,2.5,2.5v23.3A2.63,2.63,0,0,1,763.1,387.4Zm-12.6-5h10.2V364.1H750.5v18.3Z" transform="translate(-29.5 0)"/><path class="cls-1" d="M1652.1,397a26.4,26.4,0,1,1,26.4-26.4A26.37,26.37,0,0,1,1652.1,397Zm0-47.9a21.4,21.4,0,1,0,21.4,21.4A21.42,21.42,0,0,0,1652.1,349.1Z" transform="translate(-29.5 0)"/><path class="cls-1" d="M1652.1,459.4c-36.2,0-44.5-16.5-44.8-17.2a14.24,14.24,0,0,1,.3-12.1c1.5-2.8,15.3-27,31.7-33a6.9,6.9,0,0,1,2.5-.4c4.2,0,6.9,3.5,9.1,6.3a11.39,11.39,0,0,0,1.2,1.4c0.3-.4.6-0.8,1.1-1.4,2.2-2.9,4.8-6.5,9-6.5a5.87,5.87,0,0,1,2.3.4c17.3,6,31.5,32.3,32,33.5a14.76,14.76,0,0,1,.3,12C1695.9,444.2,1687.6,459.4,1652.1,459.4Zm-10.4-57.6a1.7,1.7,0,0,0-.7.1c-15,5.5-28.4,29.6-29,30.7a9.32,9.32,0,0,0-.2,7.5c0.1,0.2,7.3,14.3,40.3,14.3s40-13.9,40.1-14.1a9.32,9.32,0,0,0-.2-7.5c-0.1-.3-13.8-25.7-29.3-31.1-1.9-.7-3.8,1.8-5.6,4.3-2.6,3.5-3.1,3.9-3.7,4.3a2.75,2.75,0,0,1-2,.2c-1.3-.4-2.4-1.6-4.5-4.3C1645.2,404,1643.5,401.8,1641.7,401.8Z" transform="translate(-29.5 0)"/><path class="cls-1" d="M1646.9,117.7h-81.8a16.46,16.46,0,0,1-14.1-8.1,14.53,14.53,0,0,1-2.5-8,16.06,16.06,0,0,1,1-5.3,16.49,16.49,0,0,1,10-10.3,14.81,14.81,0,0,1,14.4-12.7,15.14,15.14,0,0,1,12.4-11,25.68,25.68,0,0,1,23.2-14.6,25.39,25.39,0,0,1,23.7,15.9,15.26,15.26,0,0,1,3-.3,16.62,16.62,0,0,1,16.6,16.6,10.87,10.87,0,0,1-.1,1.8,17.49,17.49,0,0,1,1.3,34.7A19,19,0,0,1,1646.9,117.7Zm-80.8-5.1H1647a15.55,15.55,0,0,0,5.7-1,0.9,0.9,0,0,1,.5-0.1,12.52,12.52,0,0,0-1.8-24.9,5.7,5.7,0,0,0-1.3.1,2.62,2.62,0,0,1-2.2-.9,2.41,2.41,0,0,1-.4-2.3,10.24,10.24,0,0,0,.5-3.5,11.61,11.61,0,0,0-11.6-11.6,12.09,12.09,0,0,0-3.8.6,2.79,2.79,0,0,1-2-.1,2.43,2.43,0,0,1-1.3-1.5,20.66,20.66,0,0,0-38.9-1.7,2.65,2.65,0,0,1-2.2,1.6,10.19,10.19,0,0,0-9.7,9.1,2.33,2.33,0,0,1-1,1.7,2.51,2.51,0,0,1-1.9.5,7.57,7.57,0,0,0-1.5-.1,9.69,9.69,0,0,0-9.7,9.6,2.55,2.55,0,0,1-1.9,2.4,11.26,11.26,0,0,0-8.2,7.6,0.2,0.2,0,0,1-.1.2,8.42,8.42,0,0,0-.7,3.5,9.21,9.21,0,0,0,1.7,5.2c0,0.1.1,0.1,0.1,0.2a11.45,11.45,0,0,0,10.6,5.6A0.16,0.16,0,0,1,1566.1,112.6Z" transform="translate(-29.5 0)"/><path class="cls-1" d="M892.1,647.5H810.3a16.46,16.46,0,0,1-14.1-8.1,14.53,14.53,0,0,1-2.5-8,16.06,16.06,0,0,1,1-5.3,16.49,16.49,0,0,1,10-10.3,14.81,14.81,0,0,1,14.4-12.7,15.14,15.14,0,0,1,12.4-11,25.68,25.68,0,0,1,23.2-14.6,25.39,25.39,0,0,1,23.7,15.9,15.26,15.26,0,0,1,3-.3A16.62,16.62,0,0,1,898,609.7a10.87,10.87,0,0,1-.1,1.8,17.49,17.49,0,0,1,1.3,34.7A18.66,18.66,0,0,1,892.1,647.5Zm-80.8-5h80.9a15.55,15.55,0,0,0,5.7-1,0.9,0.9,0,0,1,.5-0.1,12.52,12.52,0,0,0-1.8-24.9,5.7,5.7,0,0,0-1.3.1,2.62,2.62,0,0,1-2.2-.9,2.41,2.41,0,0,1-.4-2.3,10.23,10.23,0,0,0,.5-3.5,11.61,11.61,0,0,0-11.6-11.6,12.09,12.09,0,0,0-3.8.6,2.79,2.79,0,0,1-2-.1,2.73,2.73,0,0,1-1.3-1.5,20.66,20.66,0,0,0-38.9-1.7,2.65,2.65,0,0,1-2.2,1.6,10.19,10.19,0,0,0-9.7,9.1,2.33,2.33,0,0,1-1,1.7,2.51,2.51,0,0,1-1.9.5,7.57,7.57,0,0,0-1.5-.1,9.69,9.69,0,0,0-9.7,9.6,2.55,2.55,0,0,1-1.9,2.4,11.26,11.26,0,0,0-8.2,7.6,0.2,0.2,0,0,1-.1.2,8.42,8.42,0,0,0-.7,3.5,9.21,9.21,0,0,0,1.7,5.2c0,0.1.1,0.1,0.1,0.2a11.55,11.55,0,0,0,10.6,5.6A0.28,0.28,0,0,1,811.3,642.5Z" transform="translate(-29.5 0)"/><rect class="cls-1" x="618.7" y="529" width="170.3" height="5"/><rect class="cls-1" x="1941.6" y="134.2" width="131.8" height="5"/><rect class="cls-1" x="2257.4" y="370" width="100.3" height="5"/><rect class="cls-1" x="2205.2" y="399.3" width="56.8" height="5"/><rect class="cls-1" x="1417.2" y="758.3" width="154.9" height="5"/><rect class="cls-1" x="1336.7" y="735.5" width="87.8" height="5"/><rect class="cls-1" x="1699.6" y="492.6" width="119.8" height="5"/><rect class="cls-1" x="1528.2" y="194.9" width="88" height="5"/><rect class="cls-1" x="1595.6" y="208.5" width="41.2" height="5"/><rect class="cls-1" x="824.4" y="219.4" width="48.9" height="5"/><rect class="cls-1" x="617.8" y="100" width="86.1" height="5"/><rect class="cls-1" y="316.5" width="122.4" height="5"/><rect class="cls-1" x="324.2" y="449.1" width="18" height="5"/><rect class="cls-1" x="330.7" y="442.6" width="5" height="18"/><rect class="cls-1" x="976.8" y="726.6" width="18" height="5"/><rect class="cls-1" x="983.3" y="720.1" width="5" height="18"/><rect class="cls-1" x="1903.8" y="694.3" width="18" height="5"/><rect class="cls-1" x="1910.3" y="687.8" width="5" height="18"/><rect class="cls-1" x="2007.5" y="392.8" width="18" height="5"/><rect class="cls-1" x="2014" y="386.3" width="5" height="18"/><rect class="cls-1" x="1676.5" y="6.5" width="18" height="5"/><rect class="cls-1" x="1683" width="5" height="18"/><rect class="cls-1" x="2155.7" y="185.9" width="18" height="5"/><rect class="cls-1" x="2162.2" y="179.4" width="5" height="18"/><rect class="cls-1" x="739.3" y="194.9" width="18" height="5"/><rect class="cls-1" x="745.8" y="188.4" width="5" height="18"/><path class="cls-1" d="M621.9,385.9a13.4,13.4,0,1,1,13.4-13.4A13.4,13.4,0,0,1,621.9,385.9Zm0-21.8a8.4,8.4,0,1,0,8.4,8.4A8.45,8.45,0,0,0,621.9,364.1Z" transform="translate(-29.5 0)"/><path class="cls-1" d="M1032.7,78.9a13.4,13.4,0,1,1,13.4-13.4A13.4,13.4,0,0,1,1032.7,78.9Zm0-21.8a8.4,8.4,0,1,0,8.4,8.4A8.45,8.45,0,0,0,1032.7,57.1Z" transform="translate(-29.5 0)"/><path class="cls-1" d="M755.5,722.6a13.4,13.4,0,1,1,13.4-13.4A13.4,13.4,0,0,1,755.5,722.6Zm0-21.8a8.4,8.4,0,1,0,8.4,8.4A8.45,8.45,0,0,0,755.5,700.8Z" transform="translate(-29.5 0)"/><path class="cls-1" d="M326.5,150.1a13.4,13.4,0,1,1,13.4-13.4A13.4,13.4,0,0,1,326.5,150.1Zm0-21.7a8.4,8.4,0,1,0,8.4,8.4A8.45,8.45,0,0,0,326.5,128.4Z" transform="translate(-29.5 0)"/><path class="cls-1" d="M1816.3,332.4a13.4,13.4,0,1,1,13.4-13.4A13.4,13.4,0,0,1,1816.3,332.4Zm0-21.8a8.4,8.4,0,1,0,8.4,8.4A8.45,8.45,0,0,0,1816.3,310.6Z" transform="translate(-29.5 0)"/><path class="cls-1" d="M1564.2,733.4a13.4,13.4,0,1,1,13.4-13.4A13.4,13.4,0,0,1,1564.2,733.4Zm0-21.7a8.4,8.4,0,1,0,8.4,8.4A8.45,8.45,0,0,0,1564.2,711.7Z" transform="translate(-29.5 0)"/><path class="cls-1" d="M2205.1,540.9a13.4,13.4,0,1,1,13.4-13.4A13.4,13.4,0,0,1,2205.1,540.9Zm0-21.8a8.4,8.4,0,1,0,8.4,8.4A8.45,8.45,0,0,0,2205.1,519.1Z" transform="translate(-29.5 0)"/><path class="cls-1" d="M2514.8,302.5a13.4,13.4,0,1,1,13.4-13.4A13.4,13.4,0,0,1,2514.8,302.5Zm0-21.8a8.4,8.4,0,1,0,8.4,8.4A8.45,8.45,0,0,0,2514.8,280.7Z" transform="translate(-29.5 0)"/><path class="cls-1" d="M252.3,318.9a2.3,2.3,0,0,1-1.4-.4,2.61,2.61,0,0,1-1.1-1.6l-0.8-4h-3.1l-0.8,4a2.49,2.49,0,0,1-1.1,1.6,2.14,2.14,0,0,1-1.9.3l-6.3-1.3a2.53,2.53,0,0,1-1.9-3l0.8-3.9a23.94,23.94,0,0,1-2.8-1.3l-2.4,3.3a2.75,2.75,0,0,1-1.6,1,3.13,3.13,0,0,1-1.9-.4l-5.2-3.8a2.44,2.44,0,0,1-.5-3.5l2.4-3.3c-0.7-.7-1.4-1.5-2.1-2.3l-3.5,2a3.19,3.19,0,0,1-1.9.3,2.55,2.55,0,0,1-1.5-1.2l-3.2-5.6a2.52,2.52,0,0,1,1-3.4l3.5-2c-0.4-1-.7-1.9-1-2.9l-4,.4a2.48,2.48,0,0,1-2.7-2.2l-0.7-6.4a2.48,2.48,0,0,1,2.2-2.7l4-.4c0.1-1,.2-2,0.3-3.1l-3.8-1.2a2.47,2.47,0,0,1-1.6-3.1l2-6.1a3,3,0,0,1,1.2-1.5,2.54,2.54,0,0,1,1.9-.2l3.8,1.2,1.5-2.7-3-2.7a2.29,2.29,0,0,1-.8-1.7,2.79,2.79,0,0,1,.6-1.8l4.3-4.8a2.29,2.29,0,0,1,1.7-.8,2.79,2.79,0,0,1,1.8.6l3,2.7c0.8-.6,1.6-1.2,2.5-1.8l-1.6-3.7a2.45,2.45,0,0,1,1.3-3.3l5.8-2.6a2.51,2.51,0,0,1,1.9-.1,2.54,2.54,0,0,1,1.4,1.3l1.6,3.7a15.94,15.94,0,0,1,3-.6v-4a2.48,2.48,0,0,1,2.5-2.5h6.4a2.48,2.48,0,0,1,2.5,2.5v4l3,0.6,1.6-3.7a2.54,2.54,0,0,1,1.4-1.3,2.51,2.51,0,0,1,1.9.1l5.8,2.6a2.53,2.53,0,0,1,1.3,3.3l-1.6,3.7c0.9,0.6,1.7,1.2,2.5,1.8l3-2.7a2.51,2.51,0,0,1,3.5.2l4.3,4.8a2.33,2.33,0,0,1,.6,1.8,2.14,2.14,0,0,1-.8,1.7l-3,2.7a18.21,18.21,0,0,1,1.5,2.7l3.8-1.2a2.47,2.47,0,0,1,3.1,1.6l2,6.1a2.15,2.15,0,0,1-.2,1.9,2.29,2.29,0,0,1-1.5,1.2l-3.8,1.2a15.53,15.53,0,0,1,.3,3.1l4,0.4a2.4,2.4,0,0,1,2.2,2.7l-0.7,6.4a2.59,2.59,0,0,1-.9,1.7,2.38,2.38,0,0,1-1.8.5l-4-.4a24.69,24.69,0,0,1-1,2.9l3.5,2a2.55,2.55,0,0,1,1.2,1.5,2.19,2.19,0,0,1-.3,1.9l-3.2,5.5a2.47,2.47,0,0,1-3.4.9l-3.5-2a22.91,22.91,0,0,1-2.1,2.3l2.4,3.3a2.12,2.12,0,0,1,.4,1.9,2.47,2.47,0,0,1-1,1.6l-5.2,3.8a2.56,2.56,0,0,1-3.5-.6l-2.4-3.3c-0.9.5-1.9,0.9-2.8,1.3l0.8,3.9a3.19,3.19,0,0,1-.3,1.9,2.61,2.61,0,0,1-1.6,1.1l-6.3,1.3C252.6,318.9,252.5,318.9,252.3,318.9ZM251,307.8a2.38,2.38,0,0,1,2.4,2l0.8,3.6,1.4-.3-0.8-3.6a2.48,2.48,0,0,1,1.7-2.9,24.32,24.32,0,0,0,5.9-2.7,2.52,2.52,0,0,1,3.3.7l2.2,3,1.1-.8-2.2-3a2.37,2.37,0,0,1,.4-3.3,33.42,33.42,0,0,0,4.4-4.8,2.64,2.64,0,0,1,3.3-.7l3.2,1.9,0.7-1.2-3.2-1.9a2.42,2.42,0,0,1-1-3.2,28,28,0,0,0,2-6.2,2.51,2.51,0,0,1,2.7-2l3.7,0.4,0.1-1.4-3.7-.4a2.35,2.35,0,0,1-2.2-2.5v-0.1a27,27,0,0,0-.7-6.3,2.48,2.48,0,0,1,1.7-2.9l3.5-1.1-0.4-1.3-3.5,1.1a2.58,2.58,0,0,1-3.1-1.4,28.43,28.43,0,0,0-3.3-5.6,2.46,2.46,0,0,1,.3-3.3l2.8-2.5-0.9-1-2.8,2.5a2.48,2.48,0,0,1-3.4,0,33.94,33.94,0,0,0-5.3-3.8,2.42,2.42,0,0,1-1-3.2l1.5-3.4-1.3-.6-1.5,3.4a2.49,2.49,0,0,1-3.1,1.4,34.79,34.79,0,0,0-6.4-1.4,2.51,2.51,0,0,1-2.3-2.5v-3.7h-1.4v3.7a2.51,2.51,0,0,1-2.3,2.5,29.38,29.38,0,0,0-6.4,1.4,2.58,2.58,0,0,1-3.1-1.4l-1.5-3.4-1.3.6,1.5,3.4a2.55,2.55,0,0,1-1,3.2,33.94,33.94,0,0,0-5.3,3.8,2.48,2.48,0,0,1-3.4,0l-2.8-2.5-0.9,1,2.8,2.5a2.37,2.37,0,0,1,.3,3.3,28.43,28.43,0,0,0-3.3,5.6,2.49,2.49,0,0,1-3.1,1.4l-3.5-1.1-0.4,1.3,3.5,1.1a2.64,2.64,0,0,1,1.7,2.9,27,27,0,0,0-.7,6.3v0.2a2.5,2.5,0,0,1-2.2,2.5l-3.7.4,0.1,1.4,3.7-.4a2.45,2.45,0,0,1,2.7,2,28,28,0,0,0,2,6.2,2.52,2.52,0,0,1-1,3.2l-3.2,1.9,0.7,1.2,3.2-1.9a2.64,2.64,0,0,1,3.3.7,25.11,25.11,0,0,0,4.4,4.8,2.48,2.48,0,0,1,.4,3.3l-2.2,3,1.1,0.8,2.2-3a2.64,2.64,0,0,1,3.3-.7,34.7,34.7,0,0,0,5.9,2.7,2.48,2.48,0,0,1,1.7,2.9l-0.8,3.6,1.4,0.3,0.8-3.6a2.51,2.51,0,0,1,2.7-2,35.28,35.28,0,0,0,6.5,0A2.14,2.14,0,0,1,251,307.8Zm-3.5-7.8a21.7,21.7,0,1,1,21.7-21.7A21.68,21.68,0,0,1,247.5,300Zm0-38.4a16.7,16.7,0,1,0,16.7,16.7A16.73,16.73,0,0,0,247.5,261.6Z" transform="translate(-29.5 0)"/><path class="cls-1" d="M2326.5,254.2a12.8,12.8,0,1,1,12.8-12.8A12.82,12.82,0,0,1,2326.5,254.2Zm0-20.6a7.8,7.8,0,1,0,7.8,7.8A7.81,7.81,0,0,0,2326.5,233.6Z" transform="translate(-29.5 0)"/><path class="cls-1" d="M2317.5,264.5a25.22,25.22,0,0,1,0-46.2l2,4.6a20.19,20.19,0,0,0,0,37Z" transform="translate(-29.5 0)"/><path class="cls-1" d="M2309,275.3a38.64,38.64,0,0,1,0-67.8l2.4,4.4a33.61,33.61,0,0,0,0,59Z" transform="translate(-29.5 0)"/><path class="cls-1" d="M2303.7,290.1a54,54,0,0,1,0-97.2l2.2,4.5a49,49,0,0,0,0,88.2Z" transform="translate(-29.5 0)"/><path class="cls-1" d="M2335.5,264.5l-2-4.6a20.19,20.19,0,0,0,0-37l2-4.6a25.17,25.17,0,0,1,15.1,23.1A24.91,24.91,0,0,1,2335.5,264.5Z" transform="translate(-29.5 0)"/><path class="cls-1" d="M2344,275.3l-2.4-4.4a33.61,33.61,0,0,0,0-59l2.4-4.4A38.64,38.64,0,0,1,2344,275.3Z" transform="translate(-29.5 0)"/><path class="cls-1" d="M2349.3,290.1l-2.2-4.5a49,49,0,0,0,0-88.2l2.2-4.5A54,54,0,0,1,2349.3,290.1Z" transform="translate(-29.5 0)"/><path class="cls-1" d="M481.7,353.8H426.5a2.48,2.48,0,0,1-2.5-2.5,2.51,2.51,0,0,1,2.3-2.5h55.6a2.51,2.51,0,0,1,2.3,2.5A2.48,2.48,0,0,1,481.7,353.8Z" transform="translate(-29.5 0)"/><path class="cls-1" d="M481.7,404.9H426.5A11.5,11.5,0,0,1,415,393.4v-33a12.13,12.13,0,0,1,1.6-5.9,2.09,2.09,0,0,1,1.5-1.1,2.19,2.19,0,0,1,1.9.3L454.1,374l34.1-20.3a3.19,3.19,0,0,1,1.9-.3,2.83,2.83,0,0,1,1.5,1.1,11.14,11.14,0,0,1,1.6,5.9v33A11.44,11.44,0,0,1,481.7,404.9Zm-61.6-45.4c0,0.3-.1.6-0.1,0.9v33a6.49,6.49,0,0,0,6.5,6.5h55.2a6.49,6.49,0,0,0,6.5-6.5v-33a2.77,2.77,0,0,0-.1-0.9L455.4,379a2.44,2.44,0,0,1-2.6,0Z" transform="translate(-29.5 0)"/><path class="cls-1" d="M454.1,379.4a2.2,2.2,0,0,1-1.3-.4l-35.4-21.1a2.47,2.47,0,0,1-.9-3.4,11.67,11.67,0,0,1,9.9-5.7h55.2a11.67,11.67,0,0,1,9.9,5.7,2.47,2.47,0,0,1-.9,3.4L455.4,379A2,2,0,0,1,454.1,379.4Zm-31.5-24.2L454.1,374l31.5-18.8a6.76,6.76,0,0,0-3.9-1.3H426.5A6.12,6.12,0,0,0,422.6,355.2Z" transform="translate(-29.5 0)"/><path class="cls-1" d="M2069.2,583.3H1907.3a3,3,0,0,1-3-3v-133a3,3,0,0,1,3-3h161.9a3,3,0,0,1,3,3v133A3,3,0,0,1,2069.2,583.3Zm-158.8-6h155.9v-127H1910.4v127Z" transform="translate(-29.5 0)"/><path class="cls-1" d="M1939,462.1a3,3,0,0,1-3-3V436.4a3,3,0,1,1,6,0v22.7A3,3,0,0,1,1939,462.1Z" transform="translate(-29.5 0)"/><path class="cls-1" d="M1971.9,462.1a3,3,0,0,1-3-3V436.4a3,3,0,1,1,6,0v22.7A3,3,0,0,1,1971.9,462.1Z" transform="translate(-29.5 0)"/><path class="cls-1" d="M2004.7,462.1a3,3,0,0,1-3-3V436.4a3,3,0,1,1,6,0v22.7A3,3,0,0,1,2004.7,462.1Z" transform="translate(-29.5 0)"/><path class="cls-1" d="M2037.6,462.1a3,3,0,0,1-3-3V436.4a3,3,0,1,1,6,0v22.7A3,3,0,0,1,2037.6,462.1Z" transform="translate(-29.5 0)"/><path class="cls-1" d="M1936.4,498.1a3,3,0,0,1-3-3v-5.7a3,3,0,1,1,6,0v5.7A3,3,0,0,1,1936.4,498.1Z" transform="translate(-29.5 0)"/><path class="cls-1" d="M1962.4,498.1a3,3,0,0,1-3-3v-5.7a3,3,0,1,1,6,0v5.7A3,3,0,0,1,1962.4,498.1Z" transform="translate(-29.5 0)"/><path class="cls-1" d="M1988.4,498.1a3,3,0,0,1-3-3v-5.7a3,3,0,1,1,6,0v5.7A3,3,0,0,1,1988.4,498.1Z" transform="translate(-29.5 0)"/><path class="cls-1" d="M2014.3,498.1a3,3,0,0,1-3-3v-5.7a3,3,0,1,1,6,0v5.7A3,3,0,0,1,2014.3,498.1Z" transform="translate(-29.5 0)"/><path class="cls-1" d="M1936.4,555.6a3,3,0,0,1-3-3v-5.8a3,3,0,0,1,6,0v5.8A3,3,0,0,1,1936.4,555.6Z" transform="translate(-29.5 0)"/><path class="cls-1" d="M1962.4,555.6a3,3,0,0,1-3-3v-5.8a3,3,0,0,1,6,0v5.8A3,3,0,0,1,1962.4,555.6Z" transform="translate(-29.5 0)"/><path class="cls-1" d="M1988.4,555.6a3,3,0,0,1-3-3v-5.8a3,3,0,0,1,6,0v5.8A3,3,0,0,1,1988.4,555.6Z" transform="translate(-29.5 0)"/><path class="cls-1" d="M2040.2,498a3,3,0,0,1-3-3v-5.7a3,3,0,0,1,6,0V495A3,3,0,0,1,2040.2,498Z" transform="translate(-29.5 0)"/><path class="cls-1" d="M1936.4,526.9a3,3,0,0,1-3-3v-5.8a3,3,0,0,1,6,0v5.8A3,3,0,0,1,1936.4,526.9Z" transform="translate(-29.5 0)"/><path class="cls-1" d="M2019.7,534.5h-11.3a7.7,7.7,0,0,1-7.7-7.7V515.5a7.7,7.7,0,0,1,7.7-7.7h11.3a7.7,7.7,0,0,1,7.7,7.7v11.3A7.77,7.77,0,0,1,2019.7,534.5Zm-11.3-20.7a1.75,1.75,0,0,0-1.7,1.7v11.3a1.75,1.75,0,0,0,1.7,1.7h11.3a1.75,1.75,0,0,0,1.7-1.7V515.5a1.75,1.75,0,0,0-1.7-1.7h-11.3Z" transform="translate(-29.5 0)"/><path class="cls-1" d="M2040.2,526.9a3,3,0,0,1-3-3v-5.8a3,3,0,0,1,6,0v5.8A3.08,3.08,0,0,1,2040.2,526.9Z" transform="translate(-29.5 0)"/><path class="cls-1" d="M1988.2,526.9a3,3,0,0,1-3-3v-5.8a3,3,0,0,1,6,0v5.8A3,3,0,0,1,1988.2,526.9Z" transform="translate(-29.5 0)"/><path class="cls-1" d="M1962.2,526.9a3,3,0,0,1-3-3v-5.8a3,3,0,0,1,6,0v5.8A3,3,0,0,1,1962.2,526.9Z" transform="translate(-29.5 0)"/><path class="cls-1" d="M2195.4,360.9H2087.9a2.48,2.48,0,0,1-2.5-2.5V271.1a2.48,2.48,0,0,1,2.5-2.5h26.9a2.5,2.5,0,0,1,0,5h-24.4v82.3h102.5V273.6h-24.4a2.5,2.5,0,0,1,0-5h26.9a2.48,2.48,0,0,1,2.5,2.5v87.3A2.54,2.54,0,0,1,2195.4,360.9Z" transform="translate(-29.5 0)"/><path class="cls-1" d="M2166.5,281.4h-49.7a2.48,2.48,0,0,1-2.5-2.5V262.4a2.48,2.48,0,0,1,2.5-2.5h49.7a2.48,2.48,0,0,1,2.5,2.5v16.5A2.54,2.54,0,0,1,2166.5,281.4Zm-47.2-5H2164V264.9h-44.7v11.5Z" transform="translate(-29.5 0)"/><path class="cls-1" d="M2180.7,304.4h-28.5a2.5,2.5,0,0,1,0-5h28.5A2.5,2.5,0,0,1,2180.7,304.4Z" transform="translate(-29.5 0)"/><path class="cls-1" d="M2180.7,315.9h-28.5a2.5,2.5,0,0,1,0-5h28.5A2.5,2.5,0,0,1,2180.7,315.9Z" transform="translate(-29.5 0)"/><path class="cls-1" d="M2180.7,327.4h-28.5a2.5,2.5,0,0,1,0-5h28.5A2.5,2.5,0,0,1,2180.7,327.4Z" transform="translate(-29.5 0)"/><path class="cls-1" d="M2170.2,339h-18a2.5,2.5,0,0,1,0-5h18a2.48,2.48,0,0,1,2.5,2.5A2.54,2.54,0,0,1,2170.2,339Z" transform="translate(-29.5 0)"/><path class="cls-1" d="M2118.3,322.1a2.77,2.77,0,0,1-.9-0.1c-6.3-2.3-9.4-6.7-9.4-13.6,0-6.3,4.4-11,10.2-11s10.2,4.7,10.2,11c0,7.1-3.1,11.5-9.4,13.6A5.65,5.65,0,0,1,2118.3,322.1Zm0-19.8c-3,0-5.2,2.5-5.2,6,0,4.5,1.5,7,5.3,8.6,3.7-1.5,5.2-4,5.2-8.6C2123.6,304.8,2121.4,302.3,2118.3,302.3Z" transform="translate(-29.5 0)"/><path class="cls-1" d="M2134.1,339h-31.6a2.48,2.48,0,0,1-2.5-2.5v-6.9a11.18,11.18,0,0,1,11.2-11.2h14.2a11.18,11.18,0,0,1,11.2,11.2v6.9A2.54,2.54,0,0,1,2134.1,339Zm-29-5h26.6v-4.4a6.23,6.23,0,0,0-6.2-6.2h-14.2a6.23,6.23,0,0,0-6.2,6.2V334h0Z" transform="translate(-29.5 0)"/><path class="cls-1" d="M1781.4,256.3H1754a10.05,10.05,0,0,1-10-10.1V181.4c0-.1.2-6.4,1.4-8.9,0.1-.3.3-0.8,0.6-1.7h-5a7.36,7.36,0,0,1-6.2-3,8.25,8.25,0,0,1-.8-7.4l2.4-7.1c1.7-4.9,6.9-8.8,11.9-8.8h6.8c6.5-18.6,14.4-40.7,16.4-44.6,4.6-8.9,15.9-12.7,23.4-15.2,1-.4,12.5-4.2,47.2-4.2,34.1,0,45.7,3.7,47.1,4.2,8.1,2.3,19.3,6.3,23.2,15,2.4,5.3,10.4,27.7,16.5,44.8h7c5,0,10.2,3.9,11.9,8.8l2.4,7.1a8.25,8.25,0,0,1-.8,7.4,7.5,7.5,0,0,1-6.2,3h-5c0.3,0.8.5,1.4,0.6,1.6a8.48,8.48,0,0,1,.8,3l0.9,4.7-4.3-2a9.46,9.46,0,0,0-4.1-.9,9.15,9.15,0,0,0-1.6.1l-9.5,1.5-6.7-6.7a9.9,9.9,0,0,0-7.1-2.9,10.07,10.07,0,0,0-7.1,2.9l-6.8,6.7-9.5-1.5a9.15,9.15,0,0,0-1.6-.1,10.05,10.05,0,0,0-5.8,1.9,9.46,9.46,0,0,0-4,6.5l-1.4,9.1-8.6,4.2a10.16,10.16,0,0,0-5.1,5.7,10,10,0,0,0,.6,7.6l4.4,8.2-4.4,8.2a10.45,10.45,0,0,0-1.1,3.7l-0.2,2.3h-65v11.3A10.42,10.42,0,0,1,1781.4,256.3Zm-31.6-81.5a32.37,32.37,0,0,0-.8,6.7v64.8a5,5,0,0,0,5,5.1h27.5a5.1,5.1,0,0,0,5-5.1V230h65.6a13.34,13.34,0,0,1,1.3-3.3l3.1-5.9-3.2-5.9a14.44,14.44,0,0,1-.9-11.5,15.12,15.12,0,0,1,7.6-8.7l6.2-3,1-6.5a14.74,14.74,0,0,1,6.1-9.8,15,15,0,0,1,8.7-2.8,16.59,16.59,0,0,1,2.4.2l7,1.1,5-4.9a15.45,15.45,0,0,1,10.5-4.3,14.89,14.89,0,0,1,10.6,4.3l4.9,4.9,7-1.1a16.59,16.59,0,0,1,3.8-.1c-0.3-.8-0.7-2-1.2-3.3l-1.2-3.3h12.1a2.54,2.54,0,0,0,2.1-.9,3.19,3.19,0,0,0,.1-2.9l-2.4-7.1c-1-2.9-4.3-5.4-7.1-5.4h-10.5l-0.6-1.7c-6.1-17.2-14.5-40.8-16.9-46.1-3-6.8-12.9-10.3-20.1-12.3l-0.2-.1c-0.1,0-11-3.9-45.4-3.9s-45.4,3.9-45.5,3.9c-7.2,2.4-17,5.7-20.7,12.8-1.5,2.9-7.5,19.5-16.7,45.6l-0.6,1.7H1748a8.31,8.31,0,0,0-7.1,5.4l-2.4,7.1a3.19,3.19,0,0,0,.1,2.9,2.74,2.74,0,0,0,2.2.9h12l-1.1,3.3c-1.1,3.2-1.8,5.1-1.8,5.1Z" transform="translate(-29.5 0)"/><path class="cls-1" d="M1788.8,203.5h-11.4c-5.6,0-22.8,0-22.8-10.3v-7.9c0-10.4,7.6-10.4,11.6-10.4,4.9,0,13.2,3.5,20.8,6.9,0.8,0.4,1.7.7,2.5,1.1,6.3,2.7,12.9,5.6,12.9,11.5C1802.3,202.4,1795.5,203.5,1788.8,203.5Zm-22.6-23.6c-4.7,0-6.6.2-6.6,5.4v7.9c0,3.4,6.3,5.3,17.8,5.3h11.4c8.6,0,8.6-2.1,8.6-4.1,0-2.7-5.2-4.9-9.9-6.9-0.9-.4-1.7-0.7-2.6-1.1C1781,184.6,1770.6,179.9,1766.2,179.9Z" transform="translate(-29.5 0)"/><path class="cls-1" d="M1842,160.3c-46,0-68.9-7.6-69.8-7.9l-2.2-.7,0.5-2.2a247.46,247.46,0,0,1,12.1-38c0.4-1,.7-1.8,1-2.4l0.1-.3c1.5-4,4.6-12.2,58.2-12.2,33.5,0,53.7,3.7,57.3,10.5l0.1,0.1,0.2,0.7c0.4,1,1,2.6,1.7,4.6a312.21,312.21,0,0,1,11.9,37.1l0.5,2.2-2.2.7C1910.7,152.7,1887.9,160.3,1842,160.3Zm-66.1-12c6.7,1.8,28.8,7,66,7s59.1-5.2,65.8-7a294.17,294.17,0,0,0-11.1-34.2,49.57,49.57,0,0,1-1.7-4.7v-0.1c0-.1-4.4-7.8-52.9-7.8-22,0-37.5,1.4-46.3,4.1-6.2,1.9-6.9,3.8-7.3,4.9,0,0.1-.1.3-0.1,0.4-0.2.5-.5,1.4-1,2.5A226.52,226.52,0,0,0,1775.9,148.3Z" transform="translate(-29.5 0)"/><path class="cls-1" d="M1918.6,259.3a8.8,8.8,0,0,1,1.5-.5A8.8,8.8,0,0,0,1918.6,259.3Z" transform="translate(-29.5 0)"/><path class="cls-1" d="M1918.6,259.3a8.8,8.8,0,0,1,1.5-.5A8.8,8.8,0,0,0,1918.6,259.3Z" transform="translate(-29.5 0)"/><path class="cls-1" d="M1911.6,184.1a0.76,0.76,0,0,1,.5.2l6.3,6.3a10.7,10.7,0,0,0,7.4,3,9.7,9.7,0,0,0,1.7-.1l8.9-1.4h0.1a0.6,0.6,0,0,1,.4.1h0a0.53,0.53,0,0,1,.2.3l1.3,8.6a10.32,10.32,0,0,0,5.8,7.8l8,3.9a0.43,0.43,0,0,1,.3.3v0.3l-4.1,7.8a10.2,10.2,0,0,0,0,9.6l4.1,7.8c0,0.1.1,0.2,0.1,0.3v0.2a1.24,1.24,0,0,1-.3.2l-8,3.9a10.27,10.27,0,0,0-5.7,7.7l-1.3,8.6a0.53,0.53,0,0,1-.2.3h0a0.6,0.6,0,0,1-.4.1h-0.1l-8.9-1.4a9.7,9.7,0,0,0-1.7-.1,10.88,10.88,0,0,0-7.4,3l-6.3,6.2h0a0.72,0.72,0,0,1-1,0l-6.3-6.2a11,11,0,0,0-7.4-3.1c-0.6,0-1.2.1-1.7,0.1l-8.9,1.4h-0.1a2.27,2.27,0,0,1-.4-0.1,0.53,0.53,0,0,1-.2-0.3l-1.3-8.6h0a10.39,10.39,0,0,0-5.8-7.7l-8-3.9-0.3-.3v-0.4l4.1-7.7a10.2,10.2,0,0,0,0-9.6l-4.1-7.7a0.19,0.19,0,0,1,0-.3,0.43,0.43,0,0,1,.3-0.3l8-3.9a10.64,10.64,0,0,0,5.8-7.7h0l1.3-8.7a0.38,0.38,0,0,1,.2-0.2h0a0.6,0.6,0,0,1,.4-0.1h0.1l8.9,1.4a9.15,9.15,0,0,0,1.7.1,10.52,10.52,0,0,0,7.4-3l6.3-6.2a0.31,0.31,0,0,1,.3-0.5m0-5a5.76,5.76,0,0,0-4,1.6l-6.3,6.2a5.7,5.7,0,0,1-3.9,1.6,2.77,2.77,0,0,1-.9-0.1l-8.9-1.4c-0.3,0-.6-0.1-0.9-0.1a5.68,5.68,0,0,0-3.3,1.1,5.57,5.57,0,0,0-2.3,3.6l-1.3,8.6a5.57,5.57,0,0,1-3,4l-8,3.9a5.5,5.5,0,0,0-2.5,7.4l4.1,7.8a5.3,5.3,0,0,1,0,4.9l-4.1,7.8a5.13,5.13,0,0,0-.3,4.2,5.87,5.87,0,0,0,2.8,3.2l8,3.9a5.57,5.57,0,0,1,3,4l1.3,8.6a5.44,5.44,0,0,0,2.3,3.6,5.68,5.68,0,0,0,3.3,1.1,2.77,2.77,0,0,0,.9-0.1l8.9-1.4a2.77,2.77,0,0,1,.9-0.1,5.89,5.89,0,0,1,3.9,1.6l6.3,6.2a5.51,5.51,0,0,0,4,1.6,5.76,5.76,0,0,0,4-1.6l6.3-6.2a5.7,5.7,0,0,1,3.9-1.6,2.77,2.77,0,0,1,.9.1l8.9,1.4c0.3,0,.6.1,0.9,0.1a5.46,5.46,0,0,0,3.3-1.1,5.83,5.83,0,0,0,2.3-3.6l1.3-8.6a5.57,5.57,0,0,1,3-4l8-3.9a5.19,5.19,0,0,0,2.8-3.2,5.56,5.56,0,0,0-.3-4.2l-4.1-7.8a5.3,5.3,0,0,1,0-4.9l4.1-7.8a5.13,5.13,0,0,0,.3-4.2,5.87,5.87,0,0,0-2.8-3.2l-8-3.9a5.57,5.57,0,0,1-3-4l-1.3-8.6a5.22,5.22,0,0,0-2.3-3.6,5.68,5.68,0,0,0-3.3-1.1,2.77,2.77,0,0,0-.9.1l-8.9,1.5c-0.3,0-.6.1-0.9,0.1a5.52,5.52,0,0,1-3.9-1.6l-6.3-6.2a5.61,5.61,0,0,0-4-1.7h0Z" transform="translate(-29.5 0)"/><path class="cls-1" d="M1911.6,203c12.6,0,22.8,9.9,22.8,22.1s-10.2,22.1-22.8,22.1-22.8-9.9-22.8-22.1S1899,203,1911.6,203m0-5c-15.3,0-27.8,12.1-27.8,27.1s12.5,27.1,27.8,27.1,27.8-12.1,27.8-27.1-12.5-27.1-27.8-27.1h0Z" transform="translate(-29.5 0)"/><path class="cls-1" d="M1955.1,260.9l15.9,15.5a2.92,2.92,0,0,1,.8,2.9,2.8,2.8,0,0,1-2.3,2l-10.1,1.8-1.9,9.8a2.91,2.91,0,0,1-2.1,2.3,2.77,2.77,0,0,1-.9.1,3.1,3.1,0,0,1-2.2-.9l-20.8-20.2,1.5-1.5a1.73,1.73,0,0,1,1.3-.5h0.2l8.9,1.4a7.57,7.57,0,0,0,1.5.1,9.06,9.06,0,0,0,5.5-1.8,9.24,9.24,0,0,0,3.8-6.1l0.9-4.9m-3.5-10.3-1.5,9.6-0.8,5.2a4.11,4.11,0,0,1-1.7,2.7,4.39,4.39,0,0,1-2.7.9,1.7,1.7,0,0,1-.7-0.1l-8.9-1.4h-0.9a6.9,6.9,0,0,0-4.8,1.9l-1.5,1.4-3.7,3.6,3.7,3.6,20.8,20.2a7.87,7.87,0,0,0,5.6,2.3,8.53,8.53,0,0,0,2.3-.3h0a8,8,0,0,0,5.5-6.1l1.2-6.5,6.8-1.2a7.91,7.91,0,0,0,4.1-13.5l-15.9-15.5-6.9-6.8h0Z" transform="translate(-29.5 0)"/><path class="cls-1" d="M1869,261.9l0.8,5.2a9.73,9.73,0,0,0,3.8,6.1,9.14,9.14,0,0,0,5.6,1.8,7.57,7.57,0,0,0,1.5-.1l9.2-1.4a1.66,1.66,0,0,1,1.2.5l1.5,1.5-20.8,20.3a3,3,0,0,1-2.1.9,2.77,2.77,0,0,1-.9-0.1,2.91,2.91,0,0,1-2.1-2.3l-1.9-9.8-10.1-1.8a3,3,0,0,1-2.3-2,2.86,2.86,0,0,1,.8-2.9l15.8-15.9m3.5-10.4-6.9,6.8-15.9,15.5a7.73,7.73,0,0,0-2,8,7.83,7.83,0,0,0,6.1,5.4h0l6.7,1.2,1.2,6.5a8.12,8.12,0,0,0,5.5,6.1h0a8.52,8.52,0,0,0,2.3.3,7.87,7.87,0,0,0,5.6-2.3l20.8-20.2,3.7-3.6-3.6-3.6-1.5-1.5h0a6.83,6.83,0,0,0-4.7-1.9h-0.4l-0.4.1-9.2,1.4c-0.2,0-.5.1-0.8,0.1a4.46,4.46,0,0,1-2.6-.8,4.18,4.18,0,0,1-1.7-2.8l-0.8-5.2-1.4-9.5h0Z" transform="translate(-29.5 0)"/><path class="cls-1" d="M553.7,632.1H506.8a10.76,10.76,0,0,1-10.6-11V531.3a10.82,10.82,0,0,1,10.6-11h46.9c2.6,0,6.2.5,8.7,3.2a10.32,10.32,0,0,1,2.6,7.7l-0.1,4.4-0.6,85.5A10.82,10.82,0,0,1,553.7,632.1ZM506.9,525.3a5.81,5.81,0,0,0-5.6,6v89.8a5.81,5.81,0,0,0,5.6,6h46.9a5.81,5.81,0,0,0,5.6-6l0.6-85.5v-0.1l0.1-4.5a5.2,5.2,0,0,0-1.2-4.1c-1.4-1.4-3.8-1.6-5.1-1.6H506.9Z" transform="translate(-29.5 0)"/><path class="cls-1" d="M535.4,621H525.1a2.5,2.5,0,0,1,0-5h10.3A2.5,2.5,0,1,1,535.4,621Z" transform="translate(-29.5 0)"/><path class="cls-1" d="M560,609.6H500a2.5,2.5,0,0,1,0-5h60A2.5,2.5,0,0,1,560,609.6Z" transform="translate(-29.5 0)"/><path class="cls-1" d="M561.1,539h-60a2.5,2.5,0,1,1,0-5h60A2.5,2.5,0,0,1,561.1,539Z" transform="translate(-29.5 0)"/><path class="cls-1" d="M432.9,608.6a11.5,11.5,0,0,1-11.5-11.5V501.6a11.5,11.5,0,0,1,11.5-11.5h80.5c2.9,0,6.8.6,9.6,3.4a10.69,10.69,0,0,1,2.7,8l-0.2,4.8-0.1,15.5a2.5,2.5,0,0,1-5,0l0.1-15.6,0.2-4.8a6,6,0,0,0-1.3-4.4c-1.6-1.6-4.4-1.9-6-1.9H432.9a6.49,6.49,0,0,0-6.5,6.5v95.5a6.49,6.49,0,0,0,6.5,6.5h66.3a2.5,2.5,0,0,1,0,5H432.9Z" transform="translate(-29.5 0)"/><path class="cls-1" d="M478.9,596.8H467.5a2.5,2.5,0,0,1,0-5h11.4A2.5,2.5,0,0,1,478.9,596.8Z" transform="translate(-29.5 0)"/><path class="cls-1" d="M498.7,586H425.4a2.5,2.5,0,0,1,0-5h73.3A2.5,2.5,0,0,1,498.7,586Z" transform="translate(-29.5 0)"/><path class="cls-1" d="M523.1,508.4H426.6a2.5,2.5,0,0,1,0-5h96.5a2.48,2.48,0,0,1,2.5,2.5A2.54,2.54,0,0,1,523.1,508.4Z" transform="translate(-29.5 0)"/><path class="cls-1" d="M897.46,75.05a2.43,2.43,0,0,1-1.61-.59,8.48,8.48,0,0,0-2.9-1.11,58.83,58.83,0,0,0-10.06-1.25c-4.72-.29-9.58-0.4-14.28-0.49l-3.4-.07,1.53-2.87a16.9,16.9,0,0,0,.8-13.75,15.9,15.9,0,0,0-8-8.6,14.14,14.14,0,0,0-9.11-.86,14.56,14.56,0,0,0-7.9,5,16.45,16.45,0,0,0-3.65,11.14,17.27,17.27,0,0,0,1.89,7l1.41,2.82L839,71.5c-4.12.1-8.38,0.19-12.75,0.4a76,76,0,0,0-11.49,1.26,8.46,8.46,0,0,0-3.33,1.29,2.64,2.64,0,0,1-2.7.35,28.32,28.32,0,0,1-11.53-7.63A32.37,32.37,0,0,1,791.18,58l-0.1-.22,0-.24a9.83,9.83,0,0,1,1.05-6,16.79,16.79,0,0,1,5.57-6.19,37.9,37.9,0,0,1,9.65-5A102.14,102.14,0,0,1,835,34.41c2.67-.3,5.25-0.4,7.74-0.5h0.13a216.19,216.19,0,0,1,25.62,0,102.44,102.44,0,0,1,11.11,1.22c3.55,0.51,7,1.33,10.43,2.13a68.93,68.93,0,0,1,15.57,5.57,26.38,26.38,0,0,1,7.69,5.86A13.37,13.37,0,0,1,916.22,54a5.34,5.34,0,0,1,.11,4.08A31.84,31.84,0,0,1,907.23,70a29.76,29.76,0,0,1-8.42,4.8l-0.15.05A3.56,3.56,0,0,1,897.46,75.05Zm-26-7.39c3.85,0.09,7.77.2,11.62,0.44a62.29,62.29,0,0,1,10.73,1.35,12.72,12.72,0,0,1,3.86,1.45,25.63,25.63,0,0,0,7-4,27.9,27.9,0,0,0,8-10.4,3.34,3.34,0,0,0-.28-1.22,9.61,9.61,0,0,0-2.07-3.88,22.56,22.56,0,0,0-6.58-5,65.08,65.08,0,0,0-14.64-5.22c-3.27-.77-6.68-1.57-10.1-2.06a98.7,98.7,0,0,0-10.73-1.18,212.21,212.21,0,0,0-25.17,0h-0.19c-2.43.1-4.93,0.2-7.51,0.48a98.38,98.38,0,0,0-26.71,5.68A34.17,34.17,0,0,0,800,48.6a12.94,12.94,0,0,0-4.31,4.69,6.45,6.45,0,0,0-.75,3.33,28.69,28.69,0,0,0,5.21,7.79,24.53,24.53,0,0,0,9.49,6.45A12.93,12.93,0,0,1,814,69.24,79.68,79.68,0,0,1,826.1,67.9c3.39-.16,6.7-0.25,9.92-0.33a20.17,20.17,0,0,1-1.12-5.8,20.48,20.48,0,0,1,4.56-13.85,18.57,18.57,0,0,1,10.09-6.37,18.14,18.14,0,0,1,11.69,1.14,19.71,19.71,0,0,1,10,10.8A21.11,21.11,0,0,1,871.51,67.66Z" transform="translate(-29.5 0)"/><path class="cls-1" d="M853.8,97.6h-0.06a308.82,308.82,0,0,1-39.66-3.92l-0.24,0a2.94,2.94,0,0,1-2-.82l-0.54-.54,0-.77c-0.1-1.92-.15-3.89-0.2-5.8s-0.1-3.83-.2-5.7V79.9c0-.28,0-0.55,0-0.83a14,14,0,0,1,0-2.1l0.16-1.41,1.39-.31a39.86,39.86,0,0,1,5.76-.73l1.41-.11h0.06c6.54-.38,13.39-0.51,20.94-0.4a2.61,2.61,0,0,1,2.11,1.11l0.09,0.1A14.33,14.33,0,0,0,865,75.15,2.74,2.74,0,0,1,867.58,74h0.13c7.18-.11,14,0,20.32.4l0.24,0a55.7,55.7,0,0,1,7.06.92l1.38,0.3,0.18,1.4a11.4,11.4,0,0,1,0,1.93c0,0.24,0,.48,0,0.72-0.05,2-.13,4-0.2,6s-0.15,3.93-.2,5.88l0,1.32-1.22.49a5.86,5.86,0,0,1-1.48.35l-0.37.06a322.5,322.5,0,0,1-39.53,3.84H853.8Zm-38.57-7.79A304.29,304.29,0,0,0,853.8,93.6a318.4,318.4,0,0,0,38.75-3.75c0-1.43.1-2.88,0.15-4.32,0.07-2,.15-3.93.2-5.88,0-.2,0-0.44,0-0.69-1.65-.26-3.35-0.41-5-0.56l-0.19,0c-6.12-.36-12.85-0.5-19.94-0.39a18.33,18.33,0,0,1-27.84,0c-7.21-.09-13.75,0-20,0.4l-1.42.11c-1.22.09-2.46,0.19-3.65,0.36v0.05c0,0.31,0,.61,0,0.92,0.1,1.91.15,3.87,0.2,5.76C815.14,87,815.17,88.41,815.23,89.81ZM840.56,78h0Z" transform="translate(-29.5 0)"/><path class="cls-1" d="M892.9,101.1a27.54,27.54,0,0,1,2.5,6.7,13.58,13.58,0,0,1,.1,6,8.23,8.23,0,0,1-2.3,3.6,21.3,21.3,0,0,1-4.5,2.6h0a58.26,58.26,0,0,1-12.8,4.2,83.79,83.79,0,0,1-18,1.8h-5.7c-2.3,0-4.8,0-7.3-.2-9.9-.6-18.1-2.4-25.1-5.5h-0.1a32.75,32.75,0,0,1-4.6-2.5,7.27,7.27,0,0,1-2.7-3.8,13.33,13.33,0,0,1,0-6.3,30.36,30.36,0,0,1,2.4-6.5,113.22,113.22,0,0,0,15.4,3.1,174.71,174.71,0,0,0,22.2,1.5h1.8a165.47,165.47,0,0,0,21.7-1.3,124.16,124.16,0,0,0,17-3.4m1.8-4.7a106.26,106.26,0,0,1-19.4,4.1,165.86,165.86,0,0,1-21.1,1.2h-1.7a174.41,174.41,0,0,1-21.7-1.4A99.27,99.27,0,0,1,813,96.4c-0.4.5-.7,1.1-1.1,1.7a33.53,33.53,0,0,0-3.4,8.6,17.06,17.06,0,0,0,0,8.4,11.11,11.11,0,0,0,4.2,5.8,41,41,0,0,0,5.4,3c8.3,3.7,17.5,5.3,26.5,5.8,2.5,0.1,5,.2,7.5.2h5.7a99.08,99.08,0,0,0,18.8-1.9,61.08,61.08,0,0,0,13.7-4.5,23,23,0,0,0,5.4-3.3,11.57,11.57,0,0,0,3.5-5.5,16.25,16.25,0,0,0,0-7.9,35.71,35.71,0,0,0-3.4-8.7,12,12,0,0,0-1.1-1.7h0Z" transform="translate(-29.5 0)"/><path class="cls-1" d="M854,70.4h0Z" transform="translate(-29.5 0)"/><path class="cls-1" d="M858.7,52.2l-0.4.1,0.4,0.3a0.94,0.94,0,0,1-1.1-.5,1.29,1.29,0,0,1,1.1.1h0Zm-0.5-1.8a0.94,0.94,0,0,1,.6.9l-0.4-.3v0.5a2.65,2.65,0,0,1-.2-1.1h0Zm1.5,2.8-0.6.1,0.5,0.2a1,1,0,0,1-1.1-.3,1.08,1.08,0,0,1,1.2,0h0ZM859.3,51a1.13,1.13,0,0,1,.6,1.2l-0.4-.4v0.6a2.66,2.66,0,0,1-.2-1.4h0Zm1.3,3.3-0.5.1,0.5,0.3a1.38,1.38,0,0,1-1.3-.6,1.24,1.24,0,0,1,1.3.2h0Zm-0.1-2.2a1.32,1.32,0,0,1,.5,1.4l-0.4-.6-0.1.6a1.86,1.86,0,0,1,0-1.4h0Zm1,3.6h-0.6l0.6,0.5a1.42,1.42,0,0,1-1.4-.8,1.29,1.29,0,0,1,1.4.3h0Zm0.2-2.2a1.55,1.55,0,0,1,.4,1.6l-0.3-.7-0.2.6a1.94,1.94,0,0,1,.1-1.5h0Zm0.5,4.1a1.55,1.55,0,0,1-1.3-.9,1.32,1.32,0,0,1,1.4.4l-0.6-.1,0.5,0.6h0Zm0.4,1.1-0.6-.2,0.5,0.7a1.44,1.44,0,0,1-1.1-1.1,1,1,0,0,1,1.2.6h0Zm0.1-3.6a1.28,1.28,0,0,1,.2,1.5l-0.2-.6-0.2.5a1.51,1.51,0,0,1,.2-1.4h0Zm0.9,1.8a1.38,1.38,0,0,1-.1,1.6l-0.1-.7-0.3.6a1.58,1.58,0,0,1,.5-1.5h0Zm0.6,1.6a1.26,1.26,0,0,1-.4,1.5V59.3l-0.4.6a1.49,1.49,0,0,1,.8-1.4h0Zm0.4,1.7a1.33,1.33,0,0,1-.7,1.5L864,61l-0.5.4a1.64,1.64,0,0,1,1.1-1.2h0Zm-0.9,3.3,0.4-.8-0.6.3a1.43,1.43,0,0,1,1.2-1,1.68,1.68,0,0,1-1,1.5h0Zm-0.6,1.7,0.4-.6-0.6.2a1.42,1.42,0,0,1,1.4-.8,1.36,1.36,0,0,1-1.2,1.2h0Zm-0.6,1.5,0.4-.4-0.7.1a1.25,1.25,0,0,1,1.5-.4,1.79,1.79,0,0,1-1.2.7h0Zm-1,1.4,0.7-.5-0.7-.1a1.62,1.62,0,0,1,1.5-.2,1.63,1.63,0,0,1-1.5.8h0Zm-1,1,0.6-.3-0.7-.1a1.59,1.59,0,0,1,1.6,0,1.7,1.7,0,0,1-1.5.4h0Zm-1.2,1,0.5-.3-0.8-.1a1.61,1.61,0,0,1,1.7.1,1.76,1.76,0,0,1-1.4.3h0Zm0.5,1.4H859a4.13,4.13,0,0,0,.9-0.4,0.76,0.76,0,0,0-.1.4h0Zm-2-.7,0.8-.1-0.6-.4a1.79,1.79,0,0,1,1.5.4,1.5,1.5,0,0,1-1.7.1h0Zm-1,.7-0.1-.2h0.6l-0.7-.4h0a1.3,1.3,0,0,1,1.2.6h-1Zm0.6-2.7a1,1,0,0,1-.4,1.3l0.1-.7-0.4.4a1,1,0,0,1,.7-1h0Zm1.1-.7a1.1,1.1,0,0,1-.2,1.3V68.7l-0.4.5a1.2,1.2,0,0,1,.6-1.1h0Zm1-.9a1.28,1.28,0,0,1-.1,1.6V68.1l-0.3.6a1.13,1.13,0,0,1,.4-1.5h0Zm0.9-.9a1.09,1.09,0,0,1,.2,1.4l-0.2-.6-0.2.6a1.08,1.08,0,0,1,.2-1.4h0Zm0.7-1a1,1,0,0,1,.4,1.2l-0.3-.5-0.2.6a1.51,1.51,0,0,1,.1-1.3h0Zm0.7-2.8a0.93,0.93,0,0,1,.8,1.1l-0.5-.4,0.1,0.7a2,2,0,0,1-.4-1.4h0Zm0.5-2.3,0.2,0.6a1.06,1.06,0,0,1-.7-1.1,1.16,1.16,0,0,1,1.1.9l-0.6-.4h0Zm0.3,2.2a1.58,1.58,0,0,1-.6-1.3,1,1,0,0,1,1,.9l-0.6-.3,0.2,0.7h0Zm-1.1,1.5a0.86,0.86,0,0,1,.6,1.2l-0.4-.5v0.6a1.41,1.41,0,0,1-.2-1.3h0Zm-4.8-13.3a1.63,1.63,0,0,1,1.1.4h-0.5l0.3,0.4a1.11,1.11,0,0,1-.9-0.8h0Zm3.6,20.9c0-.4.3-0.3,0.3-0.3h3v2.4a0.2,0.2,0,0,1-.2.2h-3.2V71.5h0.1Zm3.1-1.3a0.37,0.37,0,0,1,.3.4h-0.6a0.37,0.37,0,0,1,.3-0.4h0Zm-8.1,1.3-0.2-.3,0.5,0.1-0.1-.3a1,1,0,0,1,.7.5h-0.9Zm0.8-2.3a1.29,1.29,0,0,1-.7,1.2l0.2-.6-0.6.5a2.59,2.59,0,0,1,1.1-1.1h0Zm1.7-18.7a2.49,2.49,0,0,0-1.7-.3v0.2h0.2l0.3,0.8-0.1.1a4.43,4.43,0,0,0,.6.5l-0.4.1a3.81,3.81,0,0,1,.5.6,2.2,2.2,0,0,0,.6.5l-0.4.1a7.36,7.36,0,0,1,.6.5,2.2,2.2,0,0,0,.6.5l-0.4.1a2.69,2.69,0,0,1,.7.6,1.13,1.13,0,0,0,.6.4l-0.3.1a4.68,4.68,0,0,1,.5.6,2.69,2.69,0,0,0,.7.6l-0.3.1a3.61,3.61,0,0,1,.4.5,4.68,4.68,0,0,0,.5.6h-0.3a3,3,0,0,1,.3.6,3.22,3.22,0,0,0,.4.7h-0.3a3.33,3.33,0,0,1,.3.6,2.39,2.39,0,0,0,.3.7h-0.2a0.77,0.77,0,0,0,.1.3h0.2l0.1,0.9h-0.2a1,1,0,0,1,.1.4l-0.3-.1a1.06,1.06,0,0,1,0,.6,2,2,0,0,0,0,.8l-0.2-.1a2.14,2.14,0,0,1-.1.6,3.22,3.22,0,0,0-.1.8l-0.2-.2a2.14,2.14,0,0,1-.1.6l-0.2.6-0.1-.2a2.83,2.83,0,0,1-.3.6,2.6,2.6,0,0,0-.3.7l-0.1-.2a3.91,3.91,0,0,1-.4.5,1.79,1.79,0,0,0-.5.6l-0.1-.2a1.13,1.13,0,0,1-.4.6,2,2,0,0,0-.5.5l-0.1-.4a1,1,0,0,1-.5.5,1.66,1.66,0,0,0-.6.5V68.5a4.45,4.45,0,0,1-.8.5,1.83,1.83,0,0,0-1,1,0.87,0.87,0,0,1-.8.6v0.5h0a0.57,0.57,0,0,1,.7.5H854V72h5.8v2.6c0,0.3-.2.2-0.2,0.2H854v0.6h5.7a0.58,0.58,0,0,0,.6-0.6,0.39,0.39,0,0,1,.5-0.4h2.8a0.42,0.42,0,0,0,.5-0.5V70.6a0.78,0.78,0,0,0-.8-0.8,0.84,0.84,0,0,0-.7.9h-2.1a0.44,0.44,0,0,0-.3.1l-0.1-.1a2.18,2.18,0,0,0,1-.4,1.08,1.08,0,0,1,.7-0.3l-0.4-.3a1.89,1.89,0,0,0,.8-0.5,2.2,2.2,0,0,1,.6-0.5l-0.4-.2a1.83,1.83,0,0,0,.8-0.7c0.2-.3.6-0.8,0.6-0.8h-0.4a2.6,2.6,0,0,0,.7-0.9,3.77,3.77,0,0,1,.5-0.8h-0.5a1.56,1.56,0,0,0,.6-1.1c0.1-.3.3-0.8,0.3-0.8h-0.4A2.43,2.43,0,0,0,865,62a2.23,2.23,0,0,1,.2-0.9l-0.4.1a2.22,2.22,0,0,0,.1-0.9,2,2,0,0,1,.1-0.9l-0.4.2a2.11,2.11,0,0,0,0-1.2c-0.1-.4-0.2-1-0.2-1l-0.3.3a2.36,2.36,0,0,0-.1-1.1,4.5,4.5,0,0,1-.2-0.8l-0.3.2a2.48,2.48,0,0,0-.3-1,3.52,3.52,0,0,1-.4-1l-0.3.3a2.19,2.19,0,0,0-.5-1.1,4.54,4.54,0,0,1-.5-0.9l-0.2.4a2.24,2.24,0,0,0-.6-1.1,3.08,3.08,0,0,1-.5-0.7l-0.2.3a3.23,3.23,0,0,0-.7-0.8,3.81,3.81,0,0,1-.6-0.5l-0.1.5a2.46,2.46,0,0,0-1-.8h-0.1a7.77,7.77,0,0,1,.3.9h0Z" transform="translate(-29.5 0)"/><path class="cls-1" d="M851.3,54.2l-0.1-.4,0.2-.2,0.1,0.4,0.2-.2-0.1-.4,0.2-.2,0.1,0.4,0.2-.2L852,53l0.2-.2,0.1,0.4,0.3-.2V52.7l0.2-.2,0.1,0.3,0.3-.2V52.3l0.2-.1v0.3l0.3-.2V52l0.3-.2v0.4l0.3-.1V51.7l0.3-.1V52l0.3-.1,0.1-.4,0.2-.1-0.1.4,0.3-.1,0.2-.5,0.4-.1-0.2.3h-0.2l-0.1.3h0.2l-0.1.2-0.4.1-0.1.3,0.4-.1v0.2l-0.4.1-0.1.3,0.4-.1v0.2L855,53l-0.1.3,0.4-.1v0.2l-0.4.2v0.3l0.4-.1V54l-0.4.1v0.3l0.4-.1v0.2l-0.4.2V55l0.4-.2V55l-0.4.2v0.3l0.4-.2v0.2l-0.3.2V56l0.3-.2V56l-0.3.2,0.1,0.3,0.3-.2v0.2l-0.3.2,0.1,0.3,0.3-.2,0.1,0.2-0.3.2,0.1,0.3,0.3-.2,0.1,0.2-0.3.2,0.1,0.3,0.3-.2L856,58l-0.2.2,0.1,0.3,0.2-.2,0.1,0.2-0.2.2,0.2,0.3,0.2-.3,0.1,0.2L856,59l0.2,0.3,0.2-.2,0.1,0.2-0.1.1,0.2,0.1h0.1a3.91,3.91,0,0,1,.4.5l-0.5-.1,0.1-.3-0.2-.1-0.2.3-0.2-.1,0.2-.3-0.3-.1-0.2.3h-0.2l0.2-.3h-0.3l-0.2.3h-0.2l0.2-.3-0.3-.1-0.2.4h-0.2l0.2-.3h-0.3l-0.2.3h-0.2l0.2-.3h-0.4l-0.2.3h-0.2l0.1-.3h-0.4l-0.2.3h-0.2l0.1-.3h-0.3l-0.2.4h-0.2l0.1-.4H852l-0.2.4h-0.2l0.1-.4h-0.3l-0.2.4H851l0.1-.4-0.3.1-0.1.3-0.2.1,0.1-.4-0.3.1-0.1.4L850,60l0.1-.4-0.3.1-0.1.4-0.2.1,0.1-.4-0.3.1-0.1.4-0.2.1,0.1-.4-0.3.1-0.1.4-0.2.1V60.1l-0.4.2-0.1.5-0.6.3,0.1-.5,0.3,0.1,0.1-.3-0.3-.2,0.1-.2,0.3,0.2,0.1-.3-0.3-.3,0.1-.2,0.3,0.3,0.1-.3L848,59l0.1-.2,0.3,0.3,0.1-.3-0.3-.3,0.1-.2,0.3,0.3,0.1-.3-0.3-.3,0.1-.2,0.3,0.4,0.2-.3-0.2-.4,0.1-.2,0.2,0.4,0.2-.3-0.2-.4,0.1-.2,0.2,0.4,0.2-.3-0.2-.4,0.1-.2,0.2,0.4,0.2-.3-0.1-.4,0.1-.2,0.2,0.4,0.2-.3-0.1-.4,0.1-.2,0.2,0.4,0.2-.2-0.1-.4,0.2-.2,0.2,0.4,0.2-.3-0.1-.4L851,54l0.1,0.4,0.2-.2h0Zm6.4,7.1-2.6.2-0.5.6h-1a16.46,16.46,0,0,1-.9-2.1h0.1c3.7,0,5.1,1.1,5.1,1.1l-0.2.2h0Zm-10,.2a9.06,9.06,0,0,1,3.9-1.5h0.1s0.5,1.4.8,2.1a24.55,24.55,0,0,1-4.8-.6h0Zm3-9.1-0.4.4V53l0.2,0.1a0.31,0.31,0,0,0-.2.1v0.7a12.57,12.57,0,0,0-3.5,8,7.72,7.72,0,0,0,1.4,2.3,2,2,0,0,0-.6.2,0.59,0.59,0,0,0,.7.4,1.85,1.85,0,0,1,1.5.4,2.81,2.81,0,0,0,2.9,0,2.61,2.61,0,0,1,2.8,0,2.62,2.62,0,0,0,2.8-.1,2.09,2.09,0,0,1,1.4-.5,0.62,0.62,0,0,0,.8-0.4l-0.7-.2a9.19,9.19,0,0,0,1.3-2.5l0.5-.1h0.2l-0.1-.9h-0.2l-2.5.2a7.57,7.57,0,0,1-3.3-7.6,3.51,3.51,0,0,1,.7-1.9,0.1,0.1,0,0,1,.1-0.1l-0.3-.8H856c-2.3.4-4.8,2.7-4.8,2.7L851,52a1,1,0,0,0-.3.4h0Z" transform="translate(-29.5 0)"/><polygon class="cls-1" points="831.1 73.5 831.5 73.5 831.5 71.6 831.1 71.6 831.1 73.5"/><polygon class="cls-1" points="831.9 73.5 832.3 73.5 832.3 71.6 831.9 71.6 831.9 73.5"/><polygon class="cls-1" points="832.7 73.5 833.1 73.5 833.1 71.6 832.7 71.6 832.7 73.5"/><polygon class="cls-1" points="833.4 73.5 833.8 73.5 833.8 71.6 833.4 71.6 833.4 73.5"/><path class="cls-1" d="M858.2,65.3a2.59,2.59,0,0,1-2.7.1,2.19,2.19,0,0,0-1.5-.5h0a2.3,2.3,0,0,0-1.5.5,2.59,2.59,0,0,1-2.7-.1A2.41,2.41,0,0,0,848,65s0,0.4.6,0.4a1.6,1.6,0,0,1,1.2.4,2.7,2.7,0,0,0,2.8.1,4.11,4.11,0,0,1,1.5-.5h0a4.11,4.11,0,0,1,1.5.5,2.73,2.73,0,0,0,2.8-.1,2.38,2.38,0,0,1,1.2-.4c0.6,0,.6-0.4.6-0.4a2.92,2.92,0,0,0-2,.3h0Z" transform="translate(-29.5 0)"/><path class="cls-1" d="M858.2,66.1a2.78,2.78,0,0,1-2.7,0,3.44,3.44,0,0,0-1.5-.5h0a2.56,2.56,0,0,0-1.5.5,2.8,2.8,0,0,1-2.7,0,3,3,0,0,0-1.5-.5,0.71,0.71,0,0,0,.5.4,1.4,1.4,0,0,1,.8.4,2.74,2.74,0,0,0,2.8.1,3.44,3.44,0,0,1,1.5-.5h0a3.44,3.44,0,0,1,1.5.5,2.67,2.67,0,0,0,2.8-.1,2.19,2.19,0,0,1,.8-0.3,0.53,0.53,0,0,0,.5-0.4,1.92,1.92,0,0,0-1.3.4h0Z" transform="translate(-29.5 0)"/><path class="cls-1" d="M858.1,66.9a2.61,2.61,0,0,1-2.7,0,2.1,2.1,0,0,0-1.4-.4h0a2.29,2.29,0,0,0-1.4.4,2.61,2.61,0,0,1-2.7,0,1.05,1.05,0,0,0-.8-0.4,3,3,0,0,0,2,1.1,3.34,3.34,0,0,0,1.8-.6,1.45,1.45,0,0,1,1-.3h0a1.94,1.94,0,0,1,1.1.3,4.66,4.66,0,0,0,1.8.6,3.41,3.41,0,0,0,2-1.1s0-.1-0.7.4h0Z" transform="translate(-29.5 0)"/><path class="cls-1" d="M854,67.1h0a3.14,3.14,0,0,0-1.1.3,5.3,5.3,0,0,1-1.4.5,1.21,1.21,0,0,0,1.2.1,2.77,2.77,0,0,1,1.4-.4h0a3.28,3.28,0,0,1,1.4.4,1,1,0,0,0,1.2-.1,4.17,4.17,0,0,1-1.4-.5,3.65,3.65,0,0,0-1.3-.3h0Z" transform="translate(-29.5 0)"/><path class="cls-1" d="M854,67.8h0a2.44,2.44,0,0,0-1.6.6s0.2,0.3.8,0a1.51,1.51,0,0,1,.8-0.2h0a1.72,1.72,0,0,1,.8.2,0.64,0.64,0,0,0,.8,0,2.54,2.54,0,0,0-1.6-.6h0Z" transform="translate(-29.5 0)"/><path class="cls-1" d="M854,68.5h0a2.15,2.15,0,0,0-1,.3,0.45,0.45,0,0,0,.6.1,1.58,1.58,0,0,0,.4-0.1h0a0.58,0.58,0,0,1,.4.1,0.63,0.63,0,0,0,.6-0.1,1.72,1.72,0,0,0-1-.3h0Z" transform="translate(-29.5 0)"/><path class="cls-1" d="M854,69.3h0a1.34,1.34,0,0,0-.5.1,0.5,0.5,0,0,0,.5.3h0a0.69,0.69,0,0,0,.5-0.3,1.09,1.09,0,0,0-.5-0.1h0Z" transform="translate(-29.5 0)"/><path class="cls-1" d="M848,71.1a4.13,4.13,0,0,0,.9.4h-0.8a0.76,0.76,0,0,0-.1-0.4h0Zm-0.8-1.4a1.92,1.92,0,0,1,1.7-.1l-0.8.1,0.5,0.3a1.19,1.19,0,0,1-1.4-.3h0Zm-1.2-1a1.53,1.53,0,0,1,1.6,0l-0.7.1,0.6,0.3a1.56,1.56,0,0,1-1.5-.4h0Zm-1-1.4a1.73,1.73,0,0,1,1.5.2l-0.7.1,0.7,0.5a1.48,1.48,0,0,1-1.5-.8h0Zm-0.7-1.4a1.42,1.42,0,0,1,1.5.4l-0.7-.1,0.4,0.4a1.14,1.14,0,0,1-1.2-.7h0ZM843.6,64a1.42,1.42,0,0,1,1.4.8l-0.6-.2,0.4,0.6a1.52,1.52,0,0,1-1.2-1.2h0Zm-0.3-2a1.68,1.68,0,0,1,1.2,1l-0.6-.3,0.4,0.8a1.56,1.56,0,0,1-1-1.5h0Zm0.1-1.8a1.31,1.31,0,0,1,1,1.2l-0.5-.4,0.1,0.7a1.33,1.33,0,0,1-.6-1.5h0Zm0.3-1.7a1.49,1.49,0,0,1,.8,1.4l-0.4-.6V60a1.46,1.46,0,0,1-.4-1.5h0Zm0.7-1.6a1.58,1.58,0,0,1,.5,1.5l-0.3-.6-0.1.7a1.21,1.21,0,0,1-.1-1.6h0Zm0.8-1.8a1.51,1.51,0,0,1,.2,1.4l-0.2-.5-0.2.6a1.28,1.28,0,0,1,.2-1.5h0Zm1.3,3a1.44,1.44,0,0,1-1.1,1.1l0.5-.7-0.6.2a1.07,1.07,0,0,1,1.2-.6h0Zm0.6-1.4a1.55,1.55,0,0,1-1.3.9l0.6-.5-0.6.1a1,1,0,0,1,1.3-.5h0Zm-0.9-3.2a1.38,1.38,0,0,1,.1,1.4l-0.2-.6-0.3.8a1.55,1.55,0,0,1,.4-1.6h0Zm0.9,2.2h-0.6a1.29,1.29,0,0,1,1.4-.3,1.42,1.42,0,0,1-1.4.8l0.6-.5h0Zm0.3-3.6a1.31,1.31,0,0,1-.1,1.4l-0.1-.6-0.3.6a1.32,1.32,0,0,1,.5-1.4h0Zm1.3,2.1a1.2,1.2,0,0,1-1.3.6l0.5-.3-0.5-.1c-0.1-.1.4-0.6,1.3-0.2h0ZM848.6,51a1.38,1.38,0,0,1-.3,1.4V51.8l-0.3.4a1.13,1.13,0,0,1,.6-1.2h0Zm0.9,2.2a1.05,1.05,0,0,1-1.1.3l0.5-.2-0.6-.1a1,1,0,0,1,1.2,0h0Zm0.2-2.8a1,1,0,0,1-.3,1V50.9l-0.4.3a1.88,1.88,0,0,1,.7-0.8h0Zm0.7,1.6a0.94,0.94,0,0,1-1.1.5l0.4-.3-0.4-.1a4,4,0,0,1,1.1-.1h0Zm0.9-1.4a1.36,1.36,0,0,1-.9.8l0.3-.4h-0.5a1.63,1.63,0,0,1,1.1-.4h0ZM846,61a1.58,1.58,0,0,1-.6,1.3l0.2-.6L845,62a1,1,0,0,1,1-1h0Zm-1-.6a1.27,1.27,0,0,1,1.1-.9,1.25,1.25,0,0,1-.7,1.1l0.2-.5-0.6.3h0Zm0.3,3.2a0.93,0.93,0,0,1,.8-1.1,1.32,1.32,0,0,1-.4,1.4l0.1-.7-0.5.4h0Zm1.1,0.3a1.24,1.24,0,0,1-.2,1.3V64.6l-0.4.5c-0.1-1.1.6-1.2,0.6-1.2h0Zm0.4,1.4a1.22,1.22,0,0,1,.1,1.2l-0.2-.6-0.3.5a0.92,0.92,0,0,1,.4-1.1h0Zm0.7,1a1.39,1.39,0,0,1,.3,1.4l-0.2-.6-0.2.6a1,1,0,0,1,.1-1.4h0Zm0.9,0.9a1.26,1.26,0,0,1,.5,1.4l-0.4-.6v0.7a1.15,1.15,0,0,1-.1-1.5h0Zm1.6,3.1-0.6.4,0.8,0.1a1.62,1.62,0,0,1-1.7,0,1.67,1.67,0,0,1,1.5-.5h0Zm-0.6-2.2a1.14,1.14,0,0,1,.6,1.1l-0.4-.5v0.7a1.32,1.32,0,0,1-.2-1.3h0Zm1.9,2.7h0l-0.7.4h0.6l-0.1.2h-1a1.58,1.58,0,0,1,1.2-.6h0Zm-0.7-2a1.38,1.38,0,0,1,.8,1l-0.4-.4,0.1,0.7a1,1,0,0,1-.5-1.3h0Zm-3,5h-3.2a0.2,0.2,0,0,1-.2-0.2V71.2h3a0.29,0.29,0,0,1,.3.3v2.3h0.1Zm-3-3.6a0.37,0.37,0,0,1,.3.4h-0.6a0.37,0.37,0,0,1,.3-0.4h0Zm7.8,0.8-0.1.3,0.5-.1-0.2.3h-0.9a1,1,0,0,1,.7-0.5h0Zm-0.6-1.8a1.71,1.71,0,0,1,1,1.1l-0.6-.5,0.2,0.6a1.33,1.33,0,0,1-.6-1.2h0Zm2.2,5.6h-5.6a0.2,0.2,0,0,1-.2-0.2V72H854V71.5h-0.7A0.67,0.67,0,0,1,854,71h0V70.5h0a1.32,1.32,0,0,1-.8-0.6,3.08,3.08,0,0,0-1-1,4.45,4.45,0,0,1-.8-0.5v0.5a1.67,1.67,0,0,0-.6-0.5,2,2,0,0,1-.5-0.5l-0.1.4a2,2,0,0,0-.5-0.5,1.13,1.13,0,0,1-.4-0.6l-0.1.2a1.79,1.79,0,0,0-.5-0.6,1.08,1.08,0,0,1-.4-0.5l-0.1.2a2.6,2.6,0,0,0-.3-0.7,2.83,2.83,0,0,1-.3-0.6l-0.1.2-0.2-.6a2.14,2.14,0,0,1-.1-0.6l-0.2.2a3.22,3.22,0,0,0-.1-0.8,2.14,2.14,0,0,1-.1-0.6l-0.2.1V62.3a1.06,1.06,0,0,1,0-.6l-0.3.1a1.38,1.38,0,0,0,.2-0.7,2.77,2.77,0,0,1,.1-0.8h-0.2a4.88,4.88,0,0,0,.3-0.7A1.63,1.63,0,0,1,847,59h-0.3a3.22,3.22,0,0,0,.4-0.7,3,3,0,0,1,.3-0.6h-0.3a4.68,4.68,0,0,0,.5-0.6,1.11,1.11,0,0,1,.4-0.5l-0.3-.1a2.69,2.69,0,0,0,.7-0.6,1.67,1.67,0,0,1,.5-0.6l-0.3-.1a2.88,2.88,0,0,0,.6-0.4,2.69,2.69,0,0,1,.7-0.6l-0.4-.1a2.2,2.2,0,0,0,.6-0.5,1,1,0,0,1,.4-0.3,0.31,0.31,0,0,1,.2-0.1l-0.2-.1-0.2-.1a0.31,0.31,0,0,0,.2-0.1,1.51,1.51,0,0,0,.4-0.4,1.51,1.51,0,0,1,.4-0.4l0.1-.1-0.5-.1a2.41,2.41,0,0,0,1.1-1.5,2.2,2.2,0,0,0-1.8.3V49.8h0a1.76,1.76,0,0,0-1,.8l-0.1-.5a3.81,3.81,0,0,1-.6.5,3.23,3.23,0,0,0-.7.8l-0.2-.3a3.08,3.08,0,0,1-.5.7,2.24,2.24,0,0,0-.6,1.1l-0.2-.4a4.54,4.54,0,0,1-.5.9,1.41,1.41,0,0,0-.5,1.1l-0.3-.3a5.45,5.45,0,0,1-.4,1,2.15,2.15,0,0,0-.3,1L844,56a4.5,4.5,0,0,1-.2.8,2.35,2.35,0,0,0-.1,1.1l-0.3-.3s-0.1.6-.2,1a2.11,2.11,0,0,0,0,1.2l-0.4-.2a2.22,2.22,0,0,1,.1.9,2,2,0,0,0,.1.9l-0.3-.1a2.23,2.23,0,0,1,.2.9,2.43,2.43,0,0,0,.4,1.4h-0.4a3.39,3.39,0,0,1,.3.8,2,2,0,0,0,.6,1.1h-0.5a3.77,3.77,0,0,1,.5.8,2.6,2.6,0,0,0,.7.9h-0.4s0.4,0.5.6,0.8a1.83,1.83,0,0,0,.8.7l-0.4.2a2.2,2.2,0,0,1,.6.5,1.89,1.89,0,0,0,.8.5l-0.4.3a2.6,2.6,0,0,1,.7.3,2.67,2.67,0,0,0,1,.4l-0.1.1a1,1,0,0,0-.3-0.1h-2.1a0.84,0.84,0,0,0-.7-0.9,0.78,0.78,0,0,0-.8.8v3.3a0.42,0.42,0,0,0,.5.5h2.8a0.39,0.39,0,0,1,.5.4,0.58,0.58,0,0,0,.6.6H854V74.8h0Z" transform="translate(-29.5 0)"/><polygon class="cls-1" points="817.4 73.5 817.8 73.5 817.8 71.6 817.4 71.6 817.4 73.5"/><polygon class="cls-1" points="816.7 73.5 817 73.5 817 71.6 816.7 71.6 816.7 73.5"/><polygon class="cls-1" points="815.9 73.5 816.3 73.5 816.3 71.5 815.9 71.5 815.9 73.5"/><polygon class="cls-1" points="815.1 73.5 815.5 73.5 815.5 71.6 815.1 71.6 815.1 73.5"/><path class="cls-1" d="M857.2,74a0.83,0.83,0,0,1-1,.2,1.1,1.1,0,0,0,.5.5c0.6,0.1.7-.7,0.7-0.7h0.5c0.1,0,.1,0,0.1-0.1V74c0.5,0,.5-0.1.5-0.1,0.6,0.3.6,0,.6,0a0.74,0.74,0,0,0-.1-0.8l-0.2.2c0.4,0.4-.2.2-0.2,0.2V73.2h-0.1c-0.2.4-.4,0.3-0.4,0.3a1,1,0,0,1,.1-0.3h-0.1a0.55,0.55,0,0,1-.3.3h-0.4c-0.2,0-.2-0.3-0.2-0.3a0.53,0.53,0,0,0,0,.8h0Z" transform="translate(-29.5 0)"/><path class="cls-1" d="M856.5,73.5h-0.9c-0.1,0,.6-0.6.9,0h0Zm-2.2-.2h0l0.2,0.1c-0.1.1-.6,0.1-0.2-0.1h0Zm0-.4v0.2a1.18,1.18,0,0,0-.6.5s-0.2.3,0.2,0.3a0.48,0.48,0,0,0,.4,0l0.2-.2a0.37,0.37,0,0,0,.3.2h1.9l0.2-.5a0.65,0.65,0,0,0-1.1-.4V72.6h0.1l0.1-.4a0.78,0.78,0,0,1-.4-0.3V71.8s-0.3.1-.1,0.6V73a1.44,1.44,0,0,1-.2.3H855s-0.3.1-.4-0.8l-0.3.4h0Z" transform="translate(-29.5 0)"/><path class="cls-1" d="M852.8,72.7c-0.2-.1-0.2.4-0.2,0.4a0.79,0.79,0,0,1,.5.5h-0.7l-0.1.5h0.8c0.2,0,.2-0.5.2-0.5a1.11,1.11,0,0,0-.5-0.9h0Z" transform="translate(-29.5 0)"/><path class="cls-1" d="M851.9,73.2a0.85,0.85,0,0,0-.2-1.1l-0.1.3a1.24,1.24,0,0,1,.2.3c0.1,0.2-.5.3-0.5,0.3l-0.1.2a0.74,0.74,0,0,1,.6.2h-2.6c-0.4,0-.2-0.6-0.2-0.6h-0.1c-0.5,1,.2,1.1.2,1.1h2.6a0.35,0.35,0,0,0,.2-0.1l0.1-.4c0.2,0-.1-0.2-0.1-0.2h0Z" transform="translate(-29.5 0)"/><polygon class="cls-1" points="820.8 74.4 820.5 74.1 820.2 74.4 820.5 74.7 820.8 74.4"/><polygon class="cls-1" points="820.8 74.4 820.8 74.4 820.8 74.4 821 74.6 821.3 74.4 821 74.1 820.8 74.4"/><polygon class="cls-1" points="822 74.4 822.3 74.7 822.5 74.4 822.3 74.1 822 74.4"/><polygon class="cls-1" points="824.6 72.4 824.3 72.1 824 72.4 824.3 72.7 824.6 72.4"/><polygon class="cls-1" points="824.6 72.4 824.6 72.4 824.9 72.7 825.1 72.4 824.9 72.1 824.6 72.4"/><polygon class="cls-1" points="829.2 72.9 829.2 72.8 829.2 72.8 828.9 72.6 828.7 72.8 828.9 73.1 829.2 72.9"/><polygon class="cls-1" points="829.2 72.9 829.5 73.1 829.7 72.8 829.5 72.6 829.2 72.8 829.2 72.8 829.2 72.9"/><polygon class="cls-1" points="829.5 72.4 829.2 72.1 828.9 72.4 829.2 72.7 829.5 72.4"/></svg>