<svg id="Layer_2" data-name="Layer 2" xmlns="http://www.w3.org/2000/svg" xmlns:xlink="http://www.w3.org/1999/xlink" viewBox="0 0 41 49"><defs><style>.cls-1{fill:none;}.cls-2{fill:#f6f6f6;}.cls-3{fill:#e0e0e0;}.cls-4{clip-path:url(#clip-path);}.cls-5{fill:#74bd71;}.cls-6{fill:#6aad68;}.cls-7{clip-path:url(#clip-path-2);}.cls-8{fill:#b9deb8;}.cls-9{fill:#fff;}.cls-10{clip-path:url(#clip-path-4);}</style><clipPath id="clip-path" transform="translate(-304 -24)"><polyline class="cls-1" points="344 43 304 43 304 25 344 25 344 43"/></clipPath><clipPath id="clip-path-2" transform="translate(-304 -24)"><path class="cls-1" d="M344,68a5,5,0,0,1-5,5H309a5,5,0,0,1-5-5V30a5,5,0,0,1,5-5h24l11,11V68"/></clipPath><clipPath id="clip-path-4" transform="translate(-304 -24)"><polyline class="cls-1" points="336 65 312 65 312 49 336 49 336 65"/></clipPath></defs><title>jpg</title><path class="cls-2" d="M309,72.5a4.5,4.5,0,0,1-4.5-4.5V30a4.5,4.5,0,0,1,4.5-4.5h23.79L343.5,36.21V68a4.5,4.5,0,0,1-4.5,4.5H309Z" transform="translate(-304 -24)"/><path class="cls-3" d="M332.59,26L343,36.41V68a4,4,0,0,1-4,4H309a4,4,0,0,1-4-4V30a4,4,0,0,1,4-4h23.59M333,25H309a5,5,0,0,0-5,5V68a5,5,0,0,0,5,5h30a5,5,0,0,0,5-5V36Z" transform="translate(-304 -24)"/><g class="cls-4"><path class="cls-5" d="M309,72.5a4.5,4.5,0,0,1-4.5-4.5V30a4.5,4.5,0,0,1,4.5-4.5h23.79L343.5,36.21V68a4.5,4.5,0,0,1-4.5,4.5H309Z" transform="translate(-304 -24)"/><path class="cls-6" d="M332.59,26L343,36.41V68a4,4,0,0,1-4,4H309a4,4,0,0,1-4-4V30a4,4,0,0,1,4-4h23.59M333,25H309a5,5,0,0,0-5,5V68a5,5,0,0,0,5,5h30a5,5,0,0,0,5-5V36Z" transform="translate(-304 -24)"/><g class="cls-7"><polygon class="cls-6" points="30.43 10.5 40.11 20.18 40.11 10.5 30.43 10.5"/></g><g class="cls-7"><path class="cls-8" d="M345,36h-7a5,5,0,0,1-5-5V24h12V36Z" transform="translate(-304 -24)"/></g></g><path class="cls-9" d="M311,31.23h1.23v4.09a1.83,1.83,0,0,1-.44,1.28,1.48,1.48,0,0,1-1.15.48,1.5,1.5,0,0,1-.92-0.3,1.9,1.9,0,0,1-.63-0.93l0.9-.69v0a1.41,1.41,0,0,1,.09.19,1.46,1.46,0,0,0,.2.34,0.34,0.34,0,0,0,.26.15,0.38,0.38,0,0,0,.33-0.17,0.77,0.77,0,0,0,.12-0.46v-4Z" transform="translate(-304 -24)"/><path class="cls-9" d="M313.45,31.23h2a1.79,1.79,0,0,1,1.28.46,1.61,1.61,0,0,1,.49,1.22,2,2,0,0,1-.24.94,1.49,1.49,0,0,1-.72.67,2.21,2.21,0,0,1-.83.23l-0.72,0V37h-1.24V31.23Zm1.22,1v1.48h0.48a0.76,0.76,0,0,0,.76-0.76,0.65,0.65,0,0,0-.25-0.54,1.15,1.15,0,0,0-.71-0.19Z" transform="translate(-304 -24)"/><path class="cls-9" d="M320.77,31.15a2.59,2.59,0,0,1,2.34,1.33l-0.83.77a1.78,1.78,0,0,0-.64-0.67,1.58,1.58,0,0,0-2,.29,1.69,1.69,0,0,0-.5,1.21,1.75,1.75,0,0,0,.5,1.26,1.61,1.61,0,0,0,1.2.52,1.52,1.52,0,0,0,.74-0.19,1.37,1.37,0,0,0,.57-0.73H320.8V33.82h2.66v0.75a2.43,2.43,0,0,1-.4,1.24,2.38,2.38,0,0,1-1,1,3,3,0,0,1-1.3.31,2.67,2.67,0,0,1-2-.87,3,3,0,0,1-.82-2.14,2.84,2.84,0,0,1,.85-2.07,2.76,2.76,0,0,1,2-.86h0Z" transform="translate(-304 -24)"/><path class="cls-3" d="M333,52V62H315V52h18m3-3H312V65h24V49Z" transform="translate(-304 -24)"/><g class="cls-10"><path class="cls-3" d="M338,66.67H310v-3h3l4-4.83a1.5,1.5,0,0,1,2.13-.17l3,2.63a1,1,0,0,0,1.45-.16l4-5.39a1.5,1.5,0,0,1,2.47.11l4.84,7.8h3v3Z" transform="translate(-304 -24)"/></g><circle class="cls-3" cx="17" cy="31" r="2"/></svg>