<svg id="Layer_1" data-name="Layer 1" xmlns="http://www.w3.org/2000/svg" xmlns:xlink="http://www.w3.org/1999/xlink" viewBox="0 0 564.4 73.11"><defs><style>.cls-1{fill:none;}.cls-2{clip-path:url(#clip-path);}.cls-3{fill:#fcfcfc;}.cls-4{fill:#fff;}</style><clipPath id="clip-path" transform="translate(-9.91 -10.22)"><polygon class="cls-1" points="417.47 24.55 417.47 70.28 377.39 70.28 377.39 94.86 476.18 94.86 476.18 70.28 473.98 70.28 473.98 24.55 479.42 24.55 479.42 0.53 373.52 0.53 373.52 24.55 417.47 24.55"/></clipPath></defs><title>logo</title><g class="cls-2"><path class="cls-3" d="M429.33,82.95a35.06,35.06,0,1,1,35.06-35.06A35.1,35.1,0,0,1,429.33,82.95Zm0-66.13a31.06,31.06,0,1,0,31.06,31.06A31.1,31.1,0,0,0,429.33,16.82Z" transform="translate(-9.91 -10.22)"/></g><path class="cls-4" d="M372.42,36.82H416a0.83,0.83,0,0,1,.83.83V38.9a0.83,0.83,0,0,1-.83.83h-43.6V36.82Z" transform="translate(-9.91 -10.22)"/><path class="cls-4" d="M368.26,33a5.26,5.26,0,1,0,5.26,5.26A5.26,5.26,0,0,0,368.26,33Zm0,7.89a2.62,2.62,0,1,1,2.63-2.62A2.62,2.62,0,0,1,368.26,40.9Z" transform="translate(-9.91 -10.22)"/><path class="cls-4" d="M392.67,27.85h43.6a0.83,0.83,0,0,1,.83.83v1.26a0.83,0.83,0,0,1-.83.83h-43.6V27.85Z" transform="translate(-9.91 -10.22)"/><path class="cls-4" d="M388.51,24a5.26,5.26,0,1,0,5.26,5.26A5.26,5.26,0,0,0,388.51,24Zm0,7.89a2.62,2.62,0,1,1,2.63-2.62A2.62,2.62,0,0,1,388.51,31.93Z" transform="translate(-9.91 -10.22)"/><path class="cls-4" d="M401.67,45.79h43.6a0.83,0.83,0,0,1,.83.83v1.26a0.83,0.83,0,0,1-.83.83h-43.6V45.79Z" transform="translate(-9.91 -10.22)"/><path class="cls-4" d="M397.51,42a5.26,5.26,0,1,0,5.26,5.26A5.26,5.26,0,0,0,397.51,42Zm0,7.89a2.62,2.62,0,1,1,2.63-2.62A2.62,2.62,0,0,1,397.51,49.87Z" transform="translate(-9.91 -10.22)"/><path class="cls-4" d="M384.55,54.76h43.6a0.83,0.83,0,0,1,.83.83v1.26a0.83,0.83,0,0,1-.83.83h-43.6V54.76Z" transform="translate(-9.91 -10.22)"/><path class="cls-4" d="M380.39,51a5.26,5.26,0,1,0,5.26,5.26A5.26,5.26,0,0,0,380.39,51Zm0,7.89A2.62,2.62,0,1,1,383,56.21,2.62,2.62,0,0,1,380.39,58.84Z" transform="translate(-9.91 -10.22)"/><path class="cls-4" d="M395.83,63.72h43.6a0.83,0.83,0,0,1,.83.83v1.26a0.83,0.83,0,0,1-.83.83h-43.6V63.72Z" transform="translate(-9.91 -10.22)"/><path class="cls-4" d="M391.67,59.92a5.26,5.26,0,1,0,5.26,5.26A5.26,5.26,0,0,0,391.67,59.92Zm0,7.89a2.62,2.62,0,1,1,2.63-2.62A2.62,2.62,0,0,1,391.67,67.8Z" transform="translate(-9.91 -10.22)"/><path class="cls-4" d="M490.86,83.33a6.55,6.55,0,0,1-.8,0,5.53,5.53,0,0,0-.71,0,33.62,33.62,0,0,1-7.25-1,29,29,0,0,1-6.89-2.67,25.26,25.26,0,0,1-5.82-4.13,20.87,20.87,0,0,1-3.87-4.93l4-2q2.13,4.18,7.82,7.2a25.49,25.49,0,0,0,12.09,3.11h0.09a25.24,25.24,0,0,0,6.36-.53A24.43,24.43,0,0,0,503,75.69a20.25,20.25,0,0,0,6-4.93,13.24,13.24,0,0,0,2.89-7.6,11.27,11.27,0,0,0-2.85-9,17.33,17.33,0,0,0-7.47-4.4,35.46,35.46,0,0,0-10.94-1.56q-1.51,0-4-.22a36,36,0,0,1-5.2-.89,29.15,29.15,0,0,1-5.51-2A16.26,16.26,0,0,1,471,41.64a15.38,15.38,0,0,1-3.91-11.38,17.31,17.31,0,0,1,5-11.65A22.34,22.34,0,0,1,482.6,13.1a28.66,28.66,0,0,1,8.31-.76,35,35,0,0,1,8.4,1.47,26.49,26.49,0,0,1,7.47,3.6,16.2,16.2,0,0,1,4.89,5.29l-3.91,2.22a11.62,11.62,0,0,0-3.78-4,22,22,0,0,0-6-2.8,29.13,29.13,0,0,0-7.2-1.24,25.47,25.47,0,0,0-7.11.62,23.7,23.7,0,0,0-3.6,1.16,14.32,14.32,0,0,0-3.82,2.31,13.77,13.77,0,0,0-3.16,3.87,12.89,12.89,0,0,0-1.51,5.73,10,10,0,0,0,2.76,8,12.64,12.64,0,0,0,4.09,2.84,25.64,25.64,0,0,0,4.76,1.6,28.31,28.31,0,0,0,4.4.67q2,0.13,3,.13a40,40,0,0,1,12.76,1.87,20.37,20.37,0,0,1,8.85,5.51,15.85,15.85,0,0,1,4.09,12.36,17.74,17.74,0,0,1-3.65,9.69,21.36,21.36,0,0,1-7.2,6.22,29,29,0,0,1-7.73,3A31.5,31.5,0,0,1,490.86,83.33Z" transform="translate(-9.91 -10.22)"/><path class="cls-4" d="M548.83,83.33a6.55,6.55,0,0,1-.8,0,5.53,5.53,0,0,0-.71,0,33.62,33.62,0,0,1-7.25-1,29,29,0,0,1-6.89-2.67,25.26,25.26,0,0,1-5.82-4.13,20.87,20.87,0,0,1-3.87-4.93l4-2q2.13,4.18,7.82,7.2a25.49,25.49,0,0,0,12.09,3.11h0.09a25.24,25.24,0,0,0,6.36-.53A24.43,24.43,0,0,0,561,75.69a20.25,20.25,0,0,0,6-4.93,13.24,13.24,0,0,0,2.89-7.6,11.27,11.27,0,0,0-2.85-9,17.33,17.33,0,0,0-7.47-4.4,35.46,35.46,0,0,0-10.94-1.56q-1.51,0-4-.22a36,36,0,0,1-5.2-.89,29.15,29.15,0,0,1-5.51-2A16.26,16.26,0,0,1,529,41.64a15.38,15.38,0,0,1-3.91-11.38,17.31,17.31,0,0,1,5-11.65,22.34,22.34,0,0,1,10.49-5.51,28.66,28.66,0,0,1,8.31-.76,35,35,0,0,1,8.4,1.47,26.49,26.49,0,0,1,7.47,3.6,16.2,16.2,0,0,1,4.89,5.29l-3.91,2.22a11.62,11.62,0,0,0-3.78-4,22,22,0,0,0-6-2.8,29.13,29.13,0,0,0-7.2-1.24,25.47,25.47,0,0,0-7.11.62,23.7,23.7,0,0,0-3.6,1.16,14.32,14.32,0,0,0-3.82,2.31A13.77,13.77,0,0,0,531,24.79a12.89,12.89,0,0,0-1.51,5.73,10,10,0,0,0,2.76,8,12.64,12.64,0,0,0,4.09,2.84,25.64,25.64,0,0,0,4.76,1.6,28.31,28.31,0,0,0,4.4.67q2,0.13,3,.13a40,40,0,0,1,12.76,1.87,20.37,20.37,0,0,1,8.85,5.51,15.85,15.85,0,0,1,4.09,12.36,17.74,17.74,0,0,1-3.65,9.69,21.36,21.36,0,0,1-7.2,6.22,29,29,0,0,1-7.73,3A31.5,31.5,0,0,1,548.83,83.33Z" transform="translate(-9.91 -10.22)"/><path class="cls-4" d="M20.32,60a10.1,10.1,0,0,1,4.37.91A9.79,9.79,0,0,1,28,63.35,11,11,0,0,1,30,67a13.88,13.88,0,0,1,0,8.8A11,11,0,0,1,28,79.39a9.61,9.61,0,0,1-3.27,2.45,10.26,10.26,0,0,1-4.37.9,10.25,10.25,0,0,1-4.37-.9,9.6,9.6,0,0,1-3.27-2.45,11,11,0,0,1-2.05-3.62,13.89,13.89,0,0,1,0-8.8,11,11,0,0,1,2.05-3.62A9.78,9.78,0,0,1,16,60.89,10.1,10.1,0,0,1,20.32,60Zm0,3.1a6.09,6.09,0,0,0-3,.7,5.88,5.88,0,0,0-2.05,1.87,8.44,8.44,0,0,0-1.17,2.66,12.37,12.37,0,0,0,0,6.09,8.43,8.43,0,0,0,1.17,2.66,5.87,5.87,0,0,0,2.05,1.87,6.08,6.08,0,0,0,3,.7,6.09,6.09,0,0,0,3-.7,5.88,5.88,0,0,0,2.05-1.87,8.46,8.46,0,0,0,1.17-2.66,12.37,12.37,0,0,0,0-6.09,8.46,8.46,0,0,0-1.17-2.66,5.89,5.89,0,0,0-2.05-1.87A6.09,6.09,0,0,0,20.32,63.08Z" transform="translate(-9.91 -10.22)"/><path class="cls-4" d="M36.36,60.49h4l9.92,16h0.06v-16H54V82.22H50l-9.89-16H40v16H36.36V60.49Z" transform="translate(-9.91 -10.22)"/><path class="cls-4" d="M60.8,60.49H76.44v3.29H64.61v5.69h11v3.1h-11v6.36H76.66v3.29H60.8V60.49Z" transform="translate(-9.91 -10.22)"/><path class="cls-4" d="M96.5,76.86a3.44,3.44,0,0,0,1,1.23,4.54,4.54,0,0,0,1.54.7,7.28,7.28,0,0,0,1.83.23,9.48,9.48,0,0,0,1.37-.11,4.76,4.76,0,0,0,1.37-.41,3,3,0,0,0,1.07-.84,2.1,2.1,0,0,0,.43-1.35,1.91,1.91,0,0,0-.56-1.43,4.47,4.47,0,0,0-1.48-.91,14.72,14.72,0,0,0-2.07-.64q-1.16-.27-2.34-0.61A20.69,20.69,0,0,1,96.32,72a8.14,8.14,0,0,1-2.07-1.14,5.38,5.38,0,0,1-1.48-1.75,5.31,5.31,0,0,1-.56-2.54,5.69,5.69,0,0,1,.72-2.91,6.47,6.47,0,0,1,1.87-2.05,8.16,8.16,0,0,1,2.62-1.22,11.16,11.16,0,0,1,2.92-.4,13.84,13.84,0,0,1,3.27.38,8.18,8.18,0,0,1,2.79,1.23,6.24,6.24,0,0,1,1.93,2.18A6.68,6.68,0,0,1,109,67h-4.63a3.85,3.85,0,0,0-.41-1.61,2.69,2.69,0,0,0-.93-1,3.94,3.94,0,0,0-1.32-.52,8.18,8.18,0,0,0-1.63-.15,5.6,5.6,0,0,0-1.16.12,3.11,3.11,0,0,0-1.05.43,2.64,2.64,0,0,0-.78.76,2,2,0,0,0-.3,1.16,2,2,0,0,0,.24,1,2.17,2.17,0,0,0,1,.73,12.23,12.23,0,0,0,2,.67l3.3,0.85q0.61,0.12,1.69.44a8.11,8.11,0,0,1,2.15,1A6.5,6.5,0,0,1,109,72.77a5.33,5.33,0,0,1,.78,3,6.65,6.65,0,0,1-.58,2.77,6,6,0,0,1-1.72,2.21,8.27,8.27,0,0,1-2.83,1.45,13.39,13.39,0,0,1-3.91.52,13.74,13.74,0,0,1-3.48-.44,8.75,8.75,0,0,1-3-1.38,6.83,6.83,0,0,1-2.05-2.4A7.17,7.17,0,0,1,91.48,75h4.63A4,4,0,0,0,96.5,76.86Z" transform="translate(-9.91 -10.22)"/><path class="cls-4" d="M113.21,64.51v-4H131v4H124.5V82.22h-4.78V64.51h-6.51Z" transform="translate(-9.91 -10.22)"/><path class="cls-4" d="M135.61,66.93a10.86,10.86,0,0,1,2.1-3.64,9.6,9.6,0,0,1,3.36-2.43,11.9,11.9,0,0,1,9,0,9.64,9.64,0,0,1,3.35,2.43,10.86,10.86,0,0,1,2.1,3.64,13.58,13.58,0,0,1,.73,4.52,13.13,13.13,0,0,1-.73,4.43,10.57,10.57,0,0,1-2.1,3.58,9.65,9.65,0,0,1-3.35,2.39,12.09,12.09,0,0,1-9,0,9.61,9.61,0,0,1-3.36-2.39,10.57,10.57,0,0,1-2.1-3.58,13.12,13.12,0,0,1-.73-4.43A13.57,13.57,0,0,1,135.61,66.93ZM140,74.11a7.19,7.19,0,0,0,1,2.33,5.22,5.22,0,0,0,1.83,1.66,6.32,6.32,0,0,0,5.48,0,5.22,5.22,0,0,0,1.83-1.66,7.18,7.18,0,0,0,1-2.33,11,11,0,0,0,.32-2.66,11.88,11.88,0,0,0-.32-2.77,7.33,7.33,0,0,0-1-2.39,5.17,5.17,0,0,0-1.83-1.67,6.32,6.32,0,0,0-5.48,0A5.17,5.17,0,0,0,141,66.29a7.34,7.34,0,0,0-1,2.39,11.9,11.9,0,0,0-.32,2.77A11.07,11.07,0,0,0,140,74.11Z" transform="translate(-9.91 -10.22)"/><path class="cls-4" d="M171.62,60.49a9.06,9.06,0,0,1,3.47.59,6.49,6.49,0,0,1,2.33,1.57,6,6,0,0,1,1.31,2.22,8.31,8.31,0,0,1,0,5.16,6,6,0,0,1-1.31,2.24,6.48,6.48,0,0,1-2.33,1.57,9,9,0,0,1-3.47.59h-5v7.79h-4.78V60.49h9.8Zm-1.31,10.23a10,10,0,0,0,1.58-.12,3.68,3.68,0,0,0,1.34-.47,2.57,2.57,0,0,0,.93-1,4.18,4.18,0,0,0,0-3.35,2.57,2.57,0,0,0-.93-1,3.69,3.69,0,0,0-1.34-.47,10.08,10.08,0,0,0-1.58-.12h-3.71v6.51h3.71Z" transform="translate(-9.91 -10.22)"/><path class="cls-4" d="M197.91,75a4.86,4.86,0,0,0,.43,2.13,3.85,3.85,0,0,0,1.19,1.45,5.05,5.05,0,0,0,1.75.82,8.46,8.46,0,0,0,2.15.26,6.89,6.89,0,0,0,2.13-.29A4.31,4.31,0,0,0,207,78.6a2.7,2.7,0,0,0,.79-1,3.14,3.14,0,0,0,.24-1.2,2.6,2.6,0,0,0-.56-1.84,3.22,3.22,0,0,0-1.23-.84,25.83,25.83,0,0,0-2.69-.81q-1.54-.38-3.79-1a8.12,8.12,0,0,1-2.33-1,5.55,5.55,0,0,1-1.48-1.32,4.65,4.65,0,0,1-.78-1.55,6.24,6.24,0,0,1-.23-1.67,5.66,5.66,0,0,1,.68-2.85,6.09,6.09,0,0,1,1.81-2A8,8,0,0,1,200,60.35a11.21,11.21,0,0,1,2.89-.38,11.38,11.38,0,0,1,3.21.44,7.93,7.93,0,0,1,2.65,1.32,6.28,6.28,0,0,1,2.48,5.17h-3.8a3.67,3.67,0,0,0-1.43-3,5.68,5.68,0,0,0-3.26-.87,7.12,7.12,0,0,0-1.37.14,4.35,4.35,0,0,0-1.28.46,2.8,2.8,0,0,0-1,.87,2.65,2.65,0,0,0,.33,3.18,4.62,4.62,0,0,0,1.87,1l1,0.26,1.87,0.5,2,0.53,1.42,0.38a6.36,6.36,0,0,1,1.86.91,5.87,5.87,0,0,1,1.32,1.32,5.49,5.49,0,0,1,.79,1.6,5.86,5.86,0,0,1,.26,1.7,6.15,6.15,0,0,1-.75,3.12,6.33,6.33,0,0,1-2,2.12,8.53,8.53,0,0,1-2.77,1.2,13.24,13.24,0,0,1-3.17.38,13,13,0,0,1-3.5-.46,8.19,8.19,0,0,1-2.86-1.4,6.84,6.84,0,0,1-1.95-2.42,8.05,8.05,0,0,1-.76-3.48h3.8Z" transform="translate(-9.91 -10.22)"/><path class="cls-4" d="M217.45,60.49H233.1v3.29H221.26v5.69h11v3.1h-11v6.36h12.05v3.29H217.45V60.49Z" transform="translate(-9.91 -10.22)"/><path class="cls-4" d="M238.94,60.49h10.38A8.05,8.05,0,0,1,254.71,62a5.41,5.41,0,0,1,1.8,4.32,6.31,6.31,0,0,1-.46,2.57A5.6,5.6,0,0,1,255,70.58a4.15,4.15,0,0,1-1.2.9q-0.59.27-.87,0.37V71.9a3.89,3.89,0,0,1,1,.3A3.11,3.11,0,0,1,255,73a4.25,4.25,0,0,1,.81,1.38,6.13,6.13,0,0,1,.32,2.13,19.27,19.27,0,0,0,.29,3.49,4.58,4.58,0,0,0,.9,2.24h-4.08a3.53,3.53,0,0,1-.5-1.55q-0.08-.85-0.08-1.64a15.64,15.64,0,0,0-.18-2.57,4.49,4.49,0,0,0-.67-1.8,2.84,2.84,0,0,0-1.32-1,5.84,5.84,0,0,0-2.15-.33h-5.6v8.95h-3.8V60.49Zm3.8,9.89H249a4,4,0,0,0,2.77-.87,3.36,3.36,0,0,0,.94-2.6,4,4,0,0,0-.3-1.69,2.46,2.46,0,0,0-.84-1,3.08,3.08,0,0,0-1.22-.49,8.08,8.08,0,0,0-1.42-.12h-6.18v6.79Z" transform="translate(-9.91 -10.22)"/><path class="cls-4" d="M259.67,60.49h4l5.45,17.2h0.06l5.57-17.2h3.87l-7.43,21.73h-4.23Z" transform="translate(-9.91 -10.22)"/><path class="cls-4" d="M283,60.49h3.8V82.22H283V60.49Z" transform="translate(-9.91 -10.22)"/><path class="cls-4" d="M308.49,67.4a7.75,7.75,0,0,0-.67-1.73,4.81,4.81,0,0,0-1.1-1.37,4.88,4.88,0,0,0-1.57-.9,6.21,6.21,0,0,0-2.08-.32,6.09,6.09,0,0,0-3,.7A5.88,5.88,0,0,0,298,65.65a8.44,8.44,0,0,0-1.17,2.66,12.37,12.37,0,0,0,0,6.09A8.43,8.43,0,0,0,298,77.06a5.87,5.87,0,0,0,2.05,1.87,6.08,6.08,0,0,0,3,.7,5.4,5.4,0,0,0,2.25-.44A5,5,0,0,0,307,78a5.73,5.73,0,0,0,1.1-1.81,8.69,8.69,0,0,0,.52-2.22h3.71a10.3,10.3,0,0,1-.84,3.56,8.73,8.73,0,0,1-1.93,2.79,8.54,8.54,0,0,1-2.86,1.81,9.92,9.92,0,0,1-3.62.64,10.25,10.25,0,0,1-4.37-.9,9.6,9.6,0,0,1-3.27-2.45,11,11,0,0,1-2.05-3.62,13.89,13.89,0,0,1,0-8.8,11,11,0,0,1,2.05-3.62,9.78,9.78,0,0,1,3.27-2.47,10.1,10.1,0,0,1,4.37-.91,11.52,11.52,0,0,1,3.44.5,8.9,8.9,0,0,1,2.85,1.46,7.59,7.59,0,0,1,2,2.33,8.11,8.11,0,0,1,.94,3.13h-3.8Z" transform="translate(-9.91 -10.22)"/><path class="cls-4" d="M318.1,60.49h15.64v3.29H321.91v5.69h11v3.1h-11v6.36H334v3.29H318.1V60.49Z" transform="translate(-9.91 -10.22)"/><path class="cls-4" d="M10.51,38.94h13A24.6,24.6,0,0,0,20.59,30a19.69,19.69,0,0,0-6.14-6.37l1.26-3a18.91,18.91,0,0,1,7.33,7,29.29,29.29,0,0,1,3.78,11.26h4.35a0.15,0.15,0,0,1,.19.15V41.8a0.17,0.17,0,0,1-.19.19H10.51v-3Z" transform="translate(-9.91 -10.22)"/><path class="cls-4" d="M30.77,42a0.17,0.17,0,0,1-.19-0.19V39.09a0.15,0.15,0,0,1,.19-0.15H47.5Q46.07,37.51,45,31.79a10.69,10.69,0,0,0-1.66-4.73,3.93,3.93,0,0,0-3.26-1.35,12.11,12.11,0,0,0-5.66,1.56l-1.35-2.69a11.11,11.11,0,0,1,3.38-1.51,15.34,15.34,0,0,1,3.67-.42,8.36,8.36,0,0,1,4,.86,6.29,6.29,0,0,1,2.54,2.54,14.91,14.91,0,0,1,1.44,4.83,29.61,29.61,0,0,0,1.29,5.38A6.93,6.93,0,0,0,51.07,39v3H30.77Z" transform="translate(-9.91 -10.22)"/><path class="cls-4" d="M72.18,42.92a8.15,8.15,0,0,1-2.35,6.21,9.31,9.31,0,0,1-6.66,2.23,12.53,12.53,0,0,1-7-2l1.56-2.61a17.27,17.27,0,0,0,2.59,1.11,9.25,9.25,0,0,0,3,.45A5.82,5.82,0,0,0,67.4,46.9a5,5,0,0,0,1.51-3.78V42H65.07a8.68,8.68,0,0,1-6.43-2.29q-2.28-2.29-2.28-6.61a9.51,9.51,0,0,1,2.92-7.31,11,11,0,0,1,7.79-2.72h5.11V38.94h3.2a0.15,0.15,0,0,1,.19.15V41.8a0.17,0.17,0,0,1-.19.19h-3.2v0.93Zm-3.32-4V26.1H67.19a7.55,7.55,0,0,0-5.4,1.83,6.72,6.72,0,0,0-1.93,5.13,6.39,6.39,0,0,0,1.32,4.47,5.23,5.23,0,0,0,4,1.42h3.68Z" transform="translate(-9.91 -10.22)"/><path class="cls-4" d="M75,42a0.17,0.17,0,0,1-.19-0.19V39.09A0.15,0.15,0,0,1,75,38.94h4.84a19,19,0,0,1-1.45-6.67,13.32,13.32,0,0,1,1.41-6.21,11.32,11.32,0,0,1,3.28-1.91,10.71,10.71,0,0,1,3.85-.71,8.36,8.36,0,0,1,4.29,1.08,7.15,7.15,0,0,1,2.84,3.06,9.92,9.92,0,0,1,1,4.5,12.51,12.51,0,0,1-.82,4.59,4.78,4.78,0,0,0,1.88,1.77,6.4,6.4,0,0,0,2.73.5H99c0.14,0,.21.05,0.21,0.15V41.8A0.18,0.18,0,0,1,99,42H98.85a9.77,9.77,0,0,1-3.54-.57,8.07,8.07,0,0,1-2.82-2,7.68,7.68,0,0,1-2.89,1.92,9.7,9.7,0,0,1-3.44.62H75ZM81.9,31.6a18.2,18.2,0,0,0,1.49,7.34h2.76a4.79,4.79,0,0,0,4-1.77A8.16,8.16,0,0,0,91.55,32a6,6,0,0,0-1.34-4,4.16,4.16,0,0,0-3.27-1.56,7,7,0,0,0-2.43.44,7.87,7.87,0,0,0-2.12,1.16,6,6,0,0,0-.4,1.67Q81.9,30.57,81.9,31.6Z" transform="translate(-9.91 -10.22)"/><path class="cls-4" d="M98.66,42a0.17,0.17,0,0,1-.19-0.19V39.09a0.15,0.15,0,0,1,.19-0.15h5.15V12.34h3.47V42H98.66Z" transform="translate(-9.91 -10.22)"/><path class="cls-4" d="M115.08,12.34h3.47V42h-3.47V12.34Z" transform="translate(-9.91 -10.22)"/><path class="cls-4" d="M148.17,42q-4.69,0-7.3-2.37A8.52,8.52,0,0,1,138.26,33a9.35,9.35,0,0,1,2.9-7.26A11.11,11.11,0,0,1,149,23.07h2.57V20.61h3.34V38.94h4.44a0.15,0.15,0,0,1,.19.15V41.8a0.17,0.17,0,0,1-.19.19H148.17Zm3.35-3V26.1h-2.46a7.61,7.61,0,0,0-5.42,1.8,6.58,6.58,0,0,0-1.92,5,5.79,5.79,0,0,0,1.66,4.46,6.65,6.65,0,0,0,4.71,1.54h3.43ZM146.15,17a2.29,2.29,0,0,1-1.55-.55,2.25,2.25,0,0,1-.64-1.79,2.25,2.25,0,0,1,.64-1.79,2.29,2.29,0,0,1,1.55-.55,2.12,2.12,0,0,1,1.58.6,2.39,2.39,0,0,1,.59,1.74,2.41,2.41,0,0,1-.58,1.73A2.09,2.09,0,0,1,146.15,17Zm6.75,0a2.12,2.12,0,0,1-1.6-.61,2.39,2.39,0,0,1-.59-1.73,2.41,2.41,0,0,1,.58-1.73,2.12,2.12,0,0,1,1.61-.61,2.06,2.06,0,0,1,1.62.64,2.46,2.46,0,0,1,.57,1.71,2.46,2.46,0,0,1-.57,1.71A2.06,2.06,0,0,1,152.9,17Z" transform="translate(-9.91 -10.22)"/><path class="cls-4" d="M158.92,42a0.17,0.17,0,0,1-.19-0.19V39.09a0.15,0.15,0,0,1,.19-0.15h4.84a19,19,0,0,1-1.45-6.67,13.32,13.32,0,0,1,1.41-6.21A11.32,11.32,0,0,1,167,24.15a10.71,10.71,0,0,1,3.85-.71,8.36,8.36,0,0,1,4.29,1.08A7.15,7.15,0,0,1,178,27.58a9.92,9.92,0,0,1,1,4.5,11.72,11.72,0,0,1-1.12,5.3,8,8,0,0,1-3.14,3.42A9,9,0,0,1,170.07,42H158.92Zm6.9-10.39a18.2,18.2,0,0,0,1.49,7.34h2.76a4.79,4.79,0,0,0,4-1.77A8.16,8.16,0,0,0,175.46,32a6,6,0,0,0-1.34-4,4.16,4.16,0,0,0-3.27-1.56,7,7,0,0,0-2.43.44,7.87,7.87,0,0,0-2.12,1.16,6,6,0,0,0-.4,1.67Q165.82,30.57,165.82,31.6Z" transform="translate(-9.91 -10.22)"/><path class="cls-4" d="M183.27,38.94h13A24.6,24.6,0,0,0,193.36,30a19.69,19.69,0,0,0-6.14-6.37l1.26-3a18.91,18.91,0,0,1,7.33,7,29.29,29.29,0,0,1,3.78,11.26h4.35a0.15,0.15,0,0,1,.19.15V41.8a0.17,0.17,0,0,1-.19.19H183.27v-3Z" transform="translate(-9.91 -10.22)"/><path class="cls-4" d="M203.53,42a0.17,0.17,0,0,1-.19-0.19V39.09a0.15,0.15,0,0,1,.19-0.15h16.73q-1.51-1.51-2.46-7.15a10.52,10.52,0,0,0-1.66-4.7,3.93,3.93,0,0,0-3.26-1.38,12.11,12.11,0,0,0-5.66,1.56l-1.35-2.69a11.11,11.11,0,0,1,3.38-1.51,15.34,15.34,0,0,1,3.67-.42,8.36,8.36,0,0,1,4,.86,6.29,6.29,0,0,1,2.54,2.54,14.91,14.91,0,0,1,1.44,4.83q0.9,6.12,2.82,8h2.61a0.15,0.15,0,0,1,.19.15V41.8a0.17,0.17,0,0,1-.19.19H203.53Zm9.83-22.64a2.12,2.12,0,0,1-1.6-.61,2.39,2.39,0,0,1-.59-1.73,2.42,2.42,0,0,1,.58-1.73,2.12,2.12,0,0,1,1.61-.61,2.06,2.06,0,0,1,1.62.64,2.46,2.46,0,0,1,.57,1.71,2.46,2.46,0,0,1-.57,1.71A2.06,2.06,0,0,1,213.37,19.35Z" transform="translate(-9.91 -10.22)"/><path class="cls-4" d="M225.95,42a0.17,0.17,0,0,1-.19-0.19V39.09a0.15,0.15,0,0,1,.19-0.15h5.15V12.34h3.47V42h-8.61Z" transform="translate(-9.91 -10.22)"/><path class="cls-4" d="M242.37,12.34h3.47V42h-3.47V12.34Z" transform="translate(-9.91 -10.22)"/><path class="cls-4" d="M272.39,42v0.93a9.69,9.69,0,0,1-1.79,6.19,6.22,6.22,0,0,1-5.17,2.25,8.65,8.65,0,0,1-4-1.1l1-2.61a8.16,8.16,0,0,0,1.56.54,6.71,6.71,0,0,0,1.33.12,3.16,3.16,0,0,0,2.74-1.43,6.5,6.5,0,0,0,1-3.77v-20h3.3V38.94h4.82c0.14,0,.21.05,0.21,0.15V41.8a0.18,0.18,0,0,1-.21.19h-4.82Zm-1.07-22.64a2.12,2.12,0,0,1-1.6-.61,2.39,2.39,0,0,1-.59-1.73,2.41,2.41,0,0,1,.58-1.73,2.12,2.12,0,0,1,1.61-.61,2.06,2.06,0,0,1,1.62.64,2.46,2.46,0,0,1,.57,1.71,2.46,2.46,0,0,1-.57,1.71A2.06,2.06,0,0,1,271.32,19.35Z" transform="translate(-9.91 -10.22)"/><path class="cls-4" d="M276.83,42a0.17,0.17,0,0,1-.19-0.19V39.09a0.15,0.15,0,0,1,.19-0.15h16.43V31.76a5.11,5.11,0,0,0-1.75-4.29q-1.75-1.37-5.43-1.37h-6.63V22.91a23.17,23.17,0,0,1,3.47-5.17,29.64,29.64,0,0,1,4.95-4.54,23.24,23.24,0,0,1,5.33-3l1.24,3a25.61,25.61,0,0,0-7,4.28,17.46,17.46,0,0,0-4.73,5.59h3.39q5.11,0,7.8,2.1a7.18,7.18,0,0,1,2.7,6V42H276.83Z" transform="translate(-9.91 -10.22)"/><path class="cls-4" d="M308.89,42v0.93a9.69,9.69,0,0,1-1.79,6.19,6.22,6.22,0,0,1-5.17,2.25,8.65,8.65,0,0,1-4-1.1l1-2.61a8.16,8.16,0,0,0,1.56.54,6.71,6.71,0,0,0,1.33.12,3.16,3.16,0,0,0,2.74-1.43,6.5,6.5,0,0,0,1-3.77v-20h3.3V38.94h4.82c0.14,0,.21.05,0.21,0.15V41.8a0.18,0.18,0,0,1-.21.19h-4.82Z" transform="translate(-9.91 -10.22)"/><path class="cls-4" d="M313.33,42a0.17,0.17,0,0,1-.19-0.19V39.09a0.15,0.15,0,0,1,.19-0.15h4.84a19,19,0,0,1-1.45-6.67,13.32,13.32,0,0,1,1.41-6.21,11.32,11.32,0,0,1,3.28-1.91,10.71,10.71,0,0,1,3.85-.71,8.36,8.36,0,0,1,4.29,1.08,7.15,7.15,0,0,1,2.84,3.06,9.92,9.92,0,0,1,1,4.5,11.72,11.72,0,0,1-1.12,5.3,8,8,0,0,1-3.14,3.42A9,9,0,0,1,324.48,42H313.33Zm6.9-10.39a18.2,18.2,0,0,0,1.49,7.34h2.76a4.79,4.79,0,0,0,4-1.77A8.16,8.16,0,0,0,329.87,32a6,6,0,0,0-1.34-4,4.16,4.16,0,0,0-3.27-1.56,7,7,0,0,0-2.43.44,7.87,7.87,0,0,0-2.12,1.16,6,6,0,0,0-.4,1.67Q320.23,30.57,320.23,31.6Z" transform="translate(-9.91 -10.22)"/></svg>