<svg id="Layer_1" data-name="Layer 1" xmlns="http://www.w3.org/2000/svg" xmlns:xlink="http://www.w3.org/1999/xlink" viewBox="0 0 193.51 119.18"><defs><style>.cls-1{fill:none;}.cls-2{clip-path:url(#clip-path);}.cls-3{fill:#fcfcfc;}.cls-4{fill:#fff;}</style><clipPath id="clip-path" transform="translate(-776.01 -210.84)"><polygon class="cls-1" points="825.9 222.05 825.9 263.93 789.19 263.93 789.19 286.45 879.66 286.45 879.66 263.93 877.64 263.93 877.64 222.05 882.63 222.05 882.63 200.06 785.65 200.06 785.65 222.05 825.9 222.05"/></clipPath></defs><title>logo-square</title><g class="cls-2"><path class="cls-3" d="M836.76,275.53a32.11,32.11,0,1,1,32.11-32.11A32.15,32.15,0,0,1,836.76,275.53Zm0-60.56a28.45,28.45,0,1,0,28.45,28.45A28.48,28.48,0,0,0,836.76,215Z" transform="translate(-776.01 -210.84)"/></g><path class="cls-4" d="M784.64,233.29h39.93a0.76,0.76,0,0,1,.76.76v1.15a0.76,0.76,0,0,1-.76.76H784.64v-2.67Z" transform="translate(-776.01 -210.84)"/><path class="cls-4" d="M780.83,229.81a4.82,4.82,0,1,0,4.82,4.82A4.82,4.82,0,0,0,780.83,229.81Zm0,7.22a2.4,2.4,0,1,1,2.4-2.4A2.4,2.4,0,0,1,780.83,237Z" transform="translate(-776.01 -210.84)"/><path class="cls-4" d="M803.18,225.08h39.93a0.76,0.76,0,0,1,.76.76V227a0.76,0.76,0,0,1-.76.76H803.18v-2.67Z" transform="translate(-776.01 -210.84)"/><path class="cls-4" d="M799.38,221.59a4.82,4.82,0,1,0,4.82,4.82A4.82,4.82,0,0,0,799.38,221.59Zm0,7.22a2.4,2.4,0,1,1,2.4-2.4A2.4,2.4,0,0,1,799.38,228.81Z" transform="translate(-776.01 -210.84)"/><path class="cls-4" d="M811.43,241.51h39.93a0.76,0.76,0,0,1,.76.76v1.15a0.76,0.76,0,0,1-.76.76H811.43v-2.67Z" transform="translate(-776.01 -210.84)"/><path class="cls-4" d="M807.62,238a4.82,4.82,0,1,0,4.82,4.82A4.82,4.82,0,0,0,807.62,238Zm0,7.22a2.4,2.4,0,1,1,2.4-2.4A2.4,2.4,0,0,1,807.62,245.24Z" transform="translate(-776.01 -210.84)"/><path class="cls-4" d="M795.75,249.72h39.93a0.76,0.76,0,0,1,.76.76v1.15a0.76,0.76,0,0,1-.76.76H795.75v-2.67Z" transform="translate(-776.01 -210.84)"/><path class="cls-4" d="M791.94,246.23a4.82,4.82,0,1,0,4.82,4.82A4.82,4.82,0,0,0,791.94,246.23Zm0,7.22a2.4,2.4,0,1,1,2.4-2.4A2.4,2.4,0,0,1,791.94,253.46Z" transform="translate(-776.01 -210.84)"/><path class="cls-4" d="M806.08,257.93H846a0.76,0.76,0,0,1,.76.76v1.15a0.76,0.76,0,0,1-.76.76H806.08v-2.67Z" transform="translate(-776.01 -210.84)"/><path class="cls-4" d="M802.27,254.45a4.82,4.82,0,1,0,4.82,4.82A4.82,4.82,0,0,0,802.27,254.45Zm0,7.22a2.4,2.4,0,1,1,2.4-2.4A2.4,2.4,0,0,1,802.27,261.67Z" transform="translate(-776.01 -210.84)"/><path class="cls-4" d="M893.11,275.89a6,6,0,0,1-.73,0,5.07,5.07,0,0,0-.65,0,30.79,30.79,0,0,1-6.64-.9,26.59,26.59,0,0,1-6.31-2.44,23.13,23.13,0,0,1-5.33-3.79,19.11,19.11,0,0,1-3.54-4.52l3.66-1.87q2,3.83,7.16,6.59a23.35,23.35,0,0,0,11.07,2.85h0.08a23.11,23.11,0,0,0,5.82-.49,22.37,22.37,0,0,0,6.51-2.36,18.54,18.54,0,0,0,5.45-4.52,12.12,12.12,0,0,0,2.65-7,10.32,10.32,0,0,0-2.61-8.22,15.87,15.87,0,0,0-6.84-4,32.47,32.47,0,0,0-10-1.42q-1.39,0-3.62-.2a32.94,32.94,0,0,1-4.76-.81,26.69,26.69,0,0,1-5-1.79A14.89,14.89,0,0,1,875,237.7a14.09,14.09,0,0,1-3.58-10.42,15.85,15.85,0,0,1,4.56-10.67,20.46,20.46,0,0,1,9.61-5,26.25,26.25,0,0,1,7.61-.69,32.05,32.05,0,0,1,7.69,1.34,24.26,24.26,0,0,1,6.84,3.3,14.83,14.83,0,0,1,4.48,4.84l-3.58,2a10.65,10.65,0,0,0-3.46-3.7,20.18,20.18,0,0,0-5.5-2.56A26.68,26.68,0,0,0,893,215a23.33,23.33,0,0,0-6.51.57,21.7,21.7,0,0,0-3.3,1.06,13.12,13.12,0,0,0-3.5,2.12,12.61,12.61,0,0,0-2.89,3.54,11.8,11.8,0,0,0-1.38,5.25,9.16,9.16,0,0,0,2.52,7.33,11.57,11.57,0,0,0,3.74,2.61,23.48,23.48,0,0,0,4.36,1.47,25.92,25.92,0,0,0,4,.61q1.87,0.12,2.77.12a36.64,36.64,0,0,1,11.68,1.71,18.65,18.65,0,0,1,8.1,5,14.51,14.51,0,0,1,3.75,11.32,16.24,16.24,0,0,1-3.34,8.87,19.56,19.56,0,0,1-6.59,5.7,26.6,26.6,0,0,1-7.08,2.77A28.85,28.85,0,0,1,893.11,275.89Z" transform="translate(-776.01 -210.84)"/><path class="cls-4" d="M946.19,275.89a6,6,0,0,1-.73,0,5.07,5.07,0,0,0-.65,0,30.79,30.79,0,0,1-6.64-.9,26.59,26.59,0,0,1-6.31-2.44,23.13,23.13,0,0,1-5.33-3.79,19.11,19.11,0,0,1-3.54-4.52l3.66-1.87q2,3.83,7.16,6.59a23.35,23.35,0,0,0,11.07,2.85H945a23.11,23.11,0,0,0,5.82-.49,22.37,22.37,0,0,0,6.51-2.36,18.54,18.54,0,0,0,5.45-4.52,12.12,12.12,0,0,0,2.65-7,10.32,10.32,0,0,0-2.61-8.22,15.87,15.87,0,0,0-6.84-4,32.47,32.47,0,0,0-10-1.42q-1.39,0-3.62-.2a32.94,32.94,0,0,1-4.76-.81,26.69,26.69,0,0,1-5-1.79A14.89,14.89,0,0,1,928,237.7a14.09,14.09,0,0,1-3.58-10.42A15.85,15.85,0,0,1,929,216.62a20.46,20.46,0,0,1,9.61-5,26.25,26.25,0,0,1,7.61-.69,32.05,32.05,0,0,1,7.69,1.34,24.26,24.26,0,0,1,6.84,3.3,14.83,14.83,0,0,1,4.48,4.84l-3.58,2a10.65,10.65,0,0,0-3.46-3.7,20.18,20.18,0,0,0-5.5-2.56,26.68,26.68,0,0,0-6.59-1.14,23.33,23.33,0,0,0-6.51.57,21.7,21.7,0,0,0-3.3,1.06,13.12,13.12,0,0,0-3.5,2.12,12.61,12.61,0,0,0-2.89,3.54,11.8,11.8,0,0,0-1.38,5.25,9.16,9.16,0,0,0,2.52,7.33,11.57,11.57,0,0,0,3.74,2.61,23.48,23.48,0,0,0,4.36,1.47,25.92,25.92,0,0,0,4,.61q1.87,0.12,2.77.12a36.64,36.64,0,0,1,11.68,1.71,18.65,18.65,0,0,1,8.1,5,14.51,14.51,0,0,1,3.75,11.32,16.24,16.24,0,0,1-3.34,8.87,19.56,19.56,0,0,1-6.59,5.7,26.6,26.6,0,0,1-7.08,2.77A28.85,28.85,0,0,1,946.19,275.89Z" transform="translate(-776.01 -210.84)"/><path class="cls-4" d="M794,317.82a5.41,5.41,0,0,1,2.34.49,5.24,5.24,0,0,1,1.75,1.32,5.88,5.88,0,0,1,1.1,1.94,7.43,7.43,0,0,1,0,4.71,5.87,5.87,0,0,1-1.1,1.94,5.15,5.15,0,0,1-1.75,1.31,5.93,5.93,0,0,1-4.68,0,5.14,5.14,0,0,1-1.75-1.31,5.86,5.86,0,0,1-1.1-1.94,7.44,7.44,0,0,1,0-4.71,5.87,5.87,0,0,1,1.1-1.94,5.24,5.24,0,0,1,1.75-1.32A5.41,5.41,0,0,1,794,317.82Zm0,1.66a3.26,3.26,0,0,0-1.61.38,3.15,3.15,0,0,0-1.1,1,4.52,4.52,0,0,0-.63,1.43,6.62,6.62,0,0,0,0,3.26,4.52,4.52,0,0,0,.63,1.43,3.14,3.14,0,0,0,1.1,1,3.62,3.62,0,0,0,3.21,0,3.15,3.15,0,0,0,1.1-1,4.53,4.53,0,0,0,.63-1.43,6.62,6.62,0,0,0,0-3.26,4.53,4.53,0,0,0-.63-1.43,3.16,3.16,0,0,0-1.1-1A3.26,3.26,0,0,0,794,319.49Z" transform="translate(-776.01 -210.84)"/><path class="cls-4" d="M802.56,318.1h2.15l5.31,8.57h0V318.1H812v11.64h-2.15l-5.3-8.56h0v8.56h-1.94V318.1Z" transform="translate(-776.01 -210.84)"/><path class="cls-4" d="M815.65,318.1H824v1.76h-6.34v3h5.87v1.66h-5.87V328h6.46v1.76h-8.49V318.1Z" transform="translate(-776.01 -210.84)"/><path class="cls-4" d="M834.78,326.87a1.84,1.84,0,0,0,.56.66,2.43,2.43,0,0,0,.82.38,3.9,3.9,0,0,0,1,.12,5.08,5.08,0,0,0,.73-0.06,2.55,2.55,0,0,0,.73-0.22,1.6,1.6,0,0,0,.57-0.45,1.13,1.13,0,0,0,.23-0.73,1,1,0,0,0-.3-0.77,2.39,2.39,0,0,0-.79-0.49,7.89,7.89,0,0,0-1.11-.34l-1.26-.33a11.08,11.08,0,0,1-1.27-.4,4.36,4.36,0,0,1-1.11-.61,2.88,2.88,0,0,1-.79-0.94,2.85,2.85,0,0,1-.3-1.36,3,3,0,0,1,.38-1.56,3.47,3.47,0,0,1,1-1.1,4.37,4.37,0,0,1,1.4-.65,6,6,0,0,1,1.57-.21,7.41,7.41,0,0,1,1.75.2,4.38,4.38,0,0,1,1.49.66,3.34,3.34,0,0,1,1,1.17,3.58,3.58,0,0,1,.38,1.72H839a2.06,2.06,0,0,0-.22-0.86,1.44,1.44,0,0,0-.5-0.54,2.11,2.11,0,0,0-.71-0.28,4.38,4.38,0,0,0-.87-0.08,3,3,0,0,0-.62.07,1.66,1.66,0,0,0-.56.23,1.41,1.41,0,0,0-.42.41,1.09,1.09,0,0,0-.16.62,1,1,0,0,0,.13.55,1.16,1.16,0,0,0,.51.39,6.55,6.55,0,0,0,1.06.36l1.77,0.46q0.33,0.07.9,0.24a4.35,4.35,0,0,1,1.15.55,3.48,3.48,0,0,1,1,1,2.85,2.85,0,0,1,.42,1.61,3.56,3.56,0,0,1-.31,1.48,3.22,3.22,0,0,1-.92,1.18,4.43,4.43,0,0,1-1.52.77A7.17,7.17,0,0,1,837,330a7.36,7.36,0,0,1-1.87-.24,4.68,4.68,0,0,1-1.6-.74,3.66,3.66,0,0,1-1.1-1.29,3.84,3.84,0,0,1-.39-1.86h2.48A2.13,2.13,0,0,0,834.78,326.87Z" transform="translate(-776.01 -210.84)"/><path class="cls-4" d="M843.73,320.25V318.1h9.54v2.15h-3.49v9.49h-2.56v-9.49h-3.49Z" transform="translate(-776.01 -210.84)"/><path class="cls-4" d="M855.72,321.55a5.81,5.81,0,0,1,1.12-1.95,5.14,5.14,0,0,1,1.8-1.3,6.37,6.37,0,0,1,4.82,0,5.16,5.16,0,0,1,1.79,1.3,5.81,5.81,0,0,1,1.12,1.95,7.28,7.28,0,0,1,.39,2.42,7,7,0,0,1-.39,2.37,5.66,5.66,0,0,1-1.12,1.92,5.17,5.17,0,0,1-1.79,1.28,6.48,6.48,0,0,1-4.82,0,5.15,5.15,0,0,1-1.8-1.28,5.66,5.66,0,0,1-1.12-1.92,7,7,0,0,1-.39-2.37A7.27,7.27,0,0,1,855.72,321.55Zm2.34,3.85a3.85,3.85,0,0,0,.55,1.25,2.8,2.8,0,0,0,1,.89,3.39,3.39,0,0,0,2.93,0,2.8,2.8,0,0,0,1-.89,3.85,3.85,0,0,0,.55-1.25,5.91,5.91,0,0,0,.17-1.43,6.36,6.36,0,0,0-.17-1.48,3.93,3.93,0,0,0-.55-1.28,2.77,2.77,0,0,0-1-.9,3.39,3.39,0,0,0-2.93,0,2.77,2.77,0,0,0-1,.9,3.93,3.93,0,0,0-.55,1.28,6.38,6.38,0,0,0-.17,1.48A5.93,5.93,0,0,0,858.06,325.4Z" transform="translate(-776.01 -210.84)"/><path class="cls-4" d="M875,318.1a4.85,4.85,0,0,1,1.86.32,3.48,3.48,0,0,1,1.25.84,3.23,3.23,0,0,1,.7,1.19,4.45,4.45,0,0,1,0,2.76,3.21,3.21,0,0,1-.7,1.2,3.47,3.47,0,0,1-1.25.84,4.85,4.85,0,0,1-1.86.32h-2.69v4.17h-2.56V318.1H875Zm-0.7,5.48a5.34,5.34,0,0,0,.85-0.07,2,2,0,0,0,.72-0.25,1.38,1.38,0,0,0,.5-0.53,2.24,2.24,0,0,0,0-1.79,1.38,1.38,0,0,0-.5-0.53,2,2,0,0,0-.72-0.25,5.4,5.4,0,0,0-.85-0.07h-2v3.49h2Z" transform="translate(-776.01 -210.84)"/><path class="cls-4" d="M889.1,325.86a2.6,2.6,0,0,0,.23,1.14,2.06,2.06,0,0,0,.64.77,2.71,2.71,0,0,0,.94.44,4.53,4.53,0,0,0,1.15.14,3.69,3.69,0,0,0,1.14-.15,2.31,2.31,0,0,0,.77-0.4,1.44,1.44,0,0,0,.42-0.56,1.68,1.68,0,0,0,.13-0.64,1.39,1.39,0,0,0-.3-1,1.73,1.73,0,0,0-.66-0.45,13.83,13.83,0,0,0-1.44-.43l-2-.53a4.35,4.35,0,0,1-1.25-.51A3,3,0,0,1,888,323a2.49,2.49,0,0,1-.42-0.83,3.34,3.34,0,0,1-.12-0.9,3,3,0,0,1,.37-1.52,3.26,3.26,0,0,1,1-1.07,4.27,4.27,0,0,1,1.37-.63,6,6,0,0,1,1.55-.2,6.1,6.1,0,0,1,1.72.24,4.25,4.25,0,0,1,1.42.71,3.36,3.36,0,0,1,1.33,2.77h-2a2,2,0,0,0-.77-1.59,3,3,0,0,0-1.74-.46,3.82,3.82,0,0,0-.73.07,2.33,2.33,0,0,0-.68.24,1.5,1.5,0,0,0-.51.46,1.42,1.42,0,0,0,.18,1.7,2.47,2.47,0,0,0,1,.53l0.51,0.14,1,0.27,1.08,0.29,0.76,0.2a3.41,3.41,0,0,1,1,.49,3.14,3.14,0,0,1,.71.71,2.94,2.94,0,0,1,.42.86,3.14,3.14,0,0,1,.14.91,3.29,3.29,0,0,1-.4,1.67,3.39,3.39,0,0,1-1.05,1.13,4.57,4.57,0,0,1-1.48.64,7.09,7.09,0,0,1-1.7.2,7,7,0,0,1-1.87-.24,4.38,4.38,0,0,1-1.53-.75,3.66,3.66,0,0,1-1-1.3,4.31,4.31,0,0,1-.41-1.87h2Z" transform="translate(-776.01 -210.84)"/><path class="cls-4" d="M899.56,318.1h8.38v1.76H901.6v3h5.87v1.66H901.6V328h6.46v1.76h-8.49V318.1Z" transform="translate(-776.01 -210.84)"/><path class="cls-4" d="M911.07,318.1h5.56a4.31,4.31,0,0,1,2.89.83,2.9,2.9,0,0,1,1,2.31,3.38,3.38,0,0,1-.24,1.38,3,3,0,0,1-.57.88,2.23,2.23,0,0,1-.64.48l-0.46.2v0a2.09,2.09,0,0,1,.56.16,1.67,1.67,0,0,1,.56.42,2.27,2.27,0,0,1,.43.74,3.28,3.28,0,0,1,.17,1.14,10.32,10.32,0,0,0,.15,1.87,2.45,2.45,0,0,0,.48,1.2h-2.18a1.89,1.89,0,0,1-.27-0.83q0-.46,0-0.88a8.38,8.38,0,0,0-.1-1.38,2.41,2.41,0,0,0-.36-1,1.52,1.52,0,0,0-.71-0.56,3.13,3.13,0,0,0-1.15-.18h-3v4.79h-2V318.1Zm2,5.3h3.34a2.12,2.12,0,0,0,1.48-.46,1.8,1.8,0,0,0,.51-1.39,2.16,2.16,0,0,0-.16-0.9,1.32,1.32,0,0,0-.45-0.55,1.65,1.65,0,0,0-.65-0.26,4.33,4.33,0,0,0-.76-0.07h-3.31v3.64Z" transform="translate(-776.01 -210.84)"/><path class="cls-4" d="M922.17,318.1h2.12l2.92,9.21h0l3-9.21h2.07l-4,11.64h-2.27Z" transform="translate(-776.01 -210.84)"/><path class="cls-4" d="M934.69,318.1h2v11.64h-2V318.1Z" transform="translate(-776.01 -210.84)"/><path class="cls-4" d="M948.32,321.8a4.15,4.15,0,0,0-.36-0.93,2.58,2.58,0,0,0-.59-0.73,2.62,2.62,0,0,0-.84-0.48,3.33,3.33,0,0,0-1.12-.17,3.26,3.26,0,0,0-1.61.38,3.15,3.15,0,0,0-1.1,1,4.52,4.52,0,0,0-.63,1.43,6.62,6.62,0,0,0,0,3.26,4.52,4.52,0,0,0,.63,1.43,3.14,3.14,0,0,0,1.1,1,3.26,3.26,0,0,0,1.61.38,2.89,2.89,0,0,0,1.21-.24,2.69,2.69,0,0,0,.9-0.65,3.07,3.07,0,0,0,.59-1,4.65,4.65,0,0,0,.28-1.19h2a5.52,5.52,0,0,1-.45,1.91,4.67,4.67,0,0,1-1,1.49,4.57,4.57,0,0,1-1.53,1,5.31,5.31,0,0,1-1.94.34,5.49,5.49,0,0,1-2.34-.48,5.14,5.14,0,0,1-1.75-1.31,5.86,5.86,0,0,1-1.1-1.94,7.44,7.44,0,0,1,0-4.71,5.87,5.87,0,0,1,1.1-1.94,5.24,5.24,0,0,1,1.75-1.32,5.41,5.41,0,0,1,2.34-.49,6.17,6.17,0,0,1,1.84.27,4.77,4.77,0,0,1,1.52.78,4.07,4.07,0,0,1,1.07,1.25,4.34,4.34,0,0,1,.51,1.68h-2Z" transform="translate(-776.01 -210.84)"/><path class="cls-4" d="M953.47,318.1h8.38v1.76h-6.34v3h5.87v1.66h-5.87V328H962v1.76h-8.49V318.1Z" transform="translate(-776.01 -210.84)"/><path class="cls-4" d="M788.72,306.56h7a13.18,13.18,0,0,0-1.56-4.78,10.55,10.55,0,0,0-3.29-3.41l0.67-1.58a10.13,10.13,0,0,1,3.93,3.75,15.69,15.69,0,0,1,2,6h2.33a0.08,0.08,0,0,1,.1.08v1.45a0.09,0.09,0,0,1-.1.1H788.72v-1.63Z" transform="translate(-776.01 -210.84)"/><path class="cls-4" d="M799.57,308.19a0.09,0.09,0,0,1-.1-0.1v-1.45a0.08,0.08,0,0,1,.1-0.08h9q-0.77-.77-1.32-3.83a5.72,5.72,0,0,0-.89-2.53,2.1,2.1,0,0,0-1.75-.72,6.49,6.49,0,0,0-3,.84l-0.72-1.44a6,6,0,0,1,1.81-.81,8.22,8.22,0,0,1,2-.22,4.48,4.48,0,0,1,2.13.46,3.37,3.37,0,0,1,1.36,1.36,8,8,0,0,1,.77,2.59,15.86,15.86,0,0,0,.69,2.88,3.71,3.71,0,0,0,.88,1.46v1.59H799.57Z" transform="translate(-776.01 -210.84)"/><path class="cls-4" d="M821.75,308.69a4.36,4.36,0,0,1-1.26,3.33,5,5,0,0,1-3.57,1.19,6.71,6.71,0,0,1-3.77-1.07l0.84-1.4a9.25,9.25,0,0,0,1.39.6,5,5,0,0,0,1.58.24,3.12,3.12,0,0,0,2.23-.76,2.65,2.65,0,0,0,.81-2v-0.6h-2.05A4.65,4.65,0,0,1,814.5,307a4.81,4.81,0,0,1-1.22-3.54,5.09,5.09,0,0,1,1.56-3.91,5.88,5.88,0,0,1,4.18-1.45h2.74v8.5h1.71a0.08,0.08,0,0,1,.1.08v1.45a0.09,0.09,0,0,1-.1.1h-1.71v0.5ZM820,306.56v-6.88h-0.9a4,4,0,0,0-2.89,1,3.6,3.6,0,0,0-1,2.75,3.42,3.42,0,0,0,.71,2.39,2.8,2.8,0,0,0,2.15.76h2Z" transform="translate(-776.01 -210.84)"/><path class="cls-4" d="M823.26,308.19a0.09,0.09,0,0,1-.1-0.1v-1.45a0.08,0.08,0,0,1,.1-0.08h2.59a10.16,10.16,0,0,1-.78-3.57,7.13,7.13,0,0,1,.76-3.33,6.06,6.06,0,0,1,1.76-1,5.74,5.74,0,0,1,2.06-.38,4.48,4.48,0,0,1,2.3.58,3.83,3.83,0,0,1,1.52,1.64,5.32,5.32,0,0,1,.53,2.41,6.7,6.7,0,0,1-.44,2.46,2.56,2.56,0,0,0,1,.95,3.43,3.43,0,0,0,1.46.27h0.1c0.07,0,.11,0,0.11.08v1.45a0.1,0.1,0,0,1-.11.1H836a5.24,5.24,0,0,1-1.9-.31,4.32,4.32,0,0,1-1.51-1.05,4.12,4.12,0,0,1-1.55,1,5.19,5.19,0,0,1-1.84.33h-6Zm3.7-5.56a9.75,9.75,0,0,0,.8,3.93h1.48a2.56,2.56,0,0,0,2.14-.95,4.37,4.37,0,0,0,.75-2.75,3.19,3.19,0,0,0-.72-2.15,2.23,2.23,0,0,0-1.75-.84,3.74,3.74,0,0,0-1.3.23,4.22,4.22,0,0,0-1.14.62,3.19,3.19,0,0,0-.21.89Q827,302.08,827,302.63Z" transform="translate(-776.01 -210.84)"/><path class="cls-4" d="M835.93,308.19a0.09,0.09,0,0,1-.1-0.1v-1.45a0.08,0.08,0,0,1,.1-0.08h2.76V292.31h1.86v15.88h-4.61Z" transform="translate(-776.01 -210.84)"/><path class="cls-4" d="M844.73,292.31h1.86v15.88h-1.86V292.31Z" transform="translate(-776.01 -210.84)"/><path class="cls-4" d="M862.45,308.19a5.6,5.6,0,0,1-3.91-1.27,4.56,4.56,0,0,1-1.4-3.56,5,5,0,0,1,1.55-3.89,6,6,0,0,1,4.18-1.42h1.38v-1.32H866v9.82h2.38a0.08,0.08,0,0,1,.1.08v1.45a0.09,0.09,0,0,1-.1.1h-6Zm1.8-1.63v-6.88h-1.32a4.08,4.08,0,0,0-2.9,1,3.53,3.53,0,0,0-1,2.7,3.1,3.1,0,0,0,.89,2.39,3.56,3.56,0,0,0,2.52.83h1.84Zm-2.88-11.75a1.23,1.23,0,0,1-.83-0.3,1.52,1.52,0,0,1,0-1.92,1.23,1.23,0,0,1,.83-0.3,1.14,1.14,0,0,1,.85.32,1.28,1.28,0,0,1,.32.93,1.29,1.29,0,0,1-.31.93A1.12,1.12,0,0,1,861.37,294.81Zm3.61,0a1.14,1.14,0,0,1-.86-0.33,1.28,1.28,0,0,1-.32-0.93,1.29,1.29,0,0,1,.31-0.93,1.14,1.14,0,0,1,.86-0.33,1.1,1.1,0,0,1,.87.34,1.52,1.52,0,0,1,0,1.83A1.1,1.1,0,0,1,865,294.81Z" transform="translate(-776.01 -210.84)"/><path class="cls-4" d="M868.21,308.19a0.09,0.09,0,0,1-.1-0.1v-1.45a0.08,0.08,0,0,1,.1-0.08h2.59A10.16,10.16,0,0,1,870,303a7.13,7.13,0,0,1,.76-3.33,6.06,6.06,0,0,1,1.76-1,5.74,5.74,0,0,1,2.06-.38,4.48,4.48,0,0,1,2.3.58,3.83,3.83,0,0,1,1.52,1.64,5.32,5.32,0,0,1,.53,2.41,6.28,6.28,0,0,1-.6,2.84,4.29,4.29,0,0,1-1.68,1.83,4.82,4.82,0,0,1-2.49.64h-6Zm3.7-5.56a9.75,9.75,0,0,0,.8,3.93h1.48a2.56,2.56,0,0,0,2.14-.95,4.37,4.37,0,0,0,.75-2.75,3.19,3.19,0,0,0-.72-2.15,2.23,2.23,0,0,0-1.75-.84,3.74,3.74,0,0,0-1.3.23,4.22,4.22,0,0,0-1.14.62,3.19,3.19,0,0,0-.21.89Q871.9,302.08,871.9,302.63Z" transform="translate(-776.01 -210.84)"/><path class="cls-4" d="M881.25,306.56h7a13.18,13.18,0,0,0-1.56-4.78,10.55,10.55,0,0,0-3.29-3.41l0.67-1.58a10.13,10.13,0,0,1,3.93,3.75,15.69,15.69,0,0,1,2,6h2.33a0.08,0.08,0,0,1,.1.08v1.45a0.09,0.09,0,0,1-.1.1H881.25v-1.63Z" transform="translate(-776.01 -210.84)"/><path class="cls-4" d="M892.11,308.19a0.09,0.09,0,0,1-.1-0.1v-1.45a0.08,0.08,0,0,1,.1-0.08h9q-0.81-.81-1.32-3.83a5.64,5.64,0,0,0-.89-2.52,2.1,2.1,0,0,0-1.75-.74,6.49,6.49,0,0,0-3,.84l-0.72-1.44a6,6,0,0,1,1.81-.81,8.22,8.22,0,0,1,2-.22,4.48,4.48,0,0,1,2.13.46,3.37,3.37,0,0,1,1.36,1.36,8,8,0,0,1,.77,2.59q0.48,3.28,1.51,4.31h1.4a0.08,0.08,0,0,1,.1.08v1.45a0.09,0.09,0,0,1-.1.1H892.11Zm5.27-12.13a1.14,1.14,0,0,1-.86-0.33,1.28,1.28,0,0,1-.32-0.93,1.29,1.29,0,0,1,.31-0.93,1.13,1.13,0,0,1,.86-0.33,1.1,1.1,0,0,1,.87.34,1.52,1.52,0,0,1,0,1.83A1.1,1.1,0,0,1,897.37,296.06Z" transform="translate(-776.01 -210.84)"/><path class="cls-4" d="M904.11,308.19a0.09,0.09,0,0,1-.1-0.1v-1.45a0.08,0.08,0,0,1,.1-0.08h2.76V292.31h1.86v15.88h-4.61Z" transform="translate(-776.01 -210.84)"/><path class="cls-4" d="M912.91,292.31h1.86v15.88h-1.86V292.31Z" transform="translate(-776.01 -210.84)"/><path class="cls-4" d="M929,308.19v0.5a5.19,5.19,0,0,1-1,3.32,3.33,3.33,0,0,1-2.77,1.2,4.63,4.63,0,0,1-2.13-.59l0.54-1.4a4.37,4.37,0,0,0,.84.29,3.59,3.59,0,0,0,.71.07,1.69,1.69,0,0,0,1.47-.77,3.48,3.48,0,0,0,.53-2V298.06H929v8.5h2.58c0.07,0,.11,0,0.11.08v1.45a0.1,0.1,0,0,1-.11.1H929Zm-0.57-12.13a1.14,1.14,0,0,1-.86-0.33,1.53,1.53,0,0,1,0-1.86,1.13,1.13,0,0,1,.86-0.33,1.1,1.1,0,0,1,.87.34,1.52,1.52,0,0,1,0,1.83A1.1,1.1,0,0,1,928.42,296.06Z" transform="translate(-776.01 -210.84)"/><path class="cls-4" d="M931.37,308.19a0.09,0.09,0,0,1-.1-0.1v-1.45a0.08,0.08,0,0,1,.1-0.08h8.8v-3.85a2.74,2.74,0,0,0-.94-2.3,4.7,4.7,0,0,0-2.91-.73h-3.55V298a12.41,12.41,0,0,1,1.86-2.77,15.88,15.88,0,0,1,2.65-2.43,12.45,12.45,0,0,1,2.85-1.6l0.66,1.59a13.72,13.72,0,0,0-3.76,2.29,9.35,9.35,0,0,0-2.53,3h1.82a6.7,6.7,0,0,1,4.18,1.12,3.84,3.84,0,0,1,1.44,3.23v5.79H931.37Z" transform="translate(-776.01 -210.84)"/><path class="cls-4" d="M948.54,308.19v0.5a5.19,5.19,0,0,1-1,3.32,3.33,3.33,0,0,1-2.77,1.2,4.63,4.63,0,0,1-2.13-.59l0.54-1.4a4.37,4.37,0,0,0,.84.29,3.59,3.59,0,0,0,.71.07,1.69,1.69,0,0,0,1.47-.77,3.48,3.48,0,0,0,.53-2V298.06h1.77v8.5h2.58c0.07,0,.11,0,0.11.08v1.45a0.1,0.1,0,0,1-.11.1h-2.58Z" transform="translate(-776.01 -210.84)"/><path class="cls-4" d="M950.92,308.19a0.09,0.09,0,0,1-.1-0.1v-1.45a0.08,0.08,0,0,1,.1-0.08h2.59a10.16,10.16,0,0,1-.78-3.57,7.13,7.13,0,0,1,.76-3.33,6.06,6.06,0,0,1,1.76-1,5.74,5.74,0,0,1,2.06-.38,4.48,4.48,0,0,1,2.3.58,3.83,3.83,0,0,1,1.52,1.64,5.32,5.32,0,0,1,.53,2.41,6.28,6.28,0,0,1-.6,2.84,4.29,4.29,0,0,1-1.68,1.83,4.82,4.82,0,0,1-2.49.64h-6Zm3.7-5.56a9.75,9.75,0,0,0,.8,3.93h1.48a2.56,2.56,0,0,0,2.14-.95,4.37,4.37,0,0,0,.75-2.75,3.19,3.19,0,0,0-.72-2.15,2.23,2.23,0,0,0-1.75-.84,3.74,3.74,0,0,0-1.3.23,4.22,4.22,0,0,0-1.14.62,3.19,3.19,0,0,0-.21.89Q954.61,302.08,954.61,302.63Z" transform="translate(-776.01 -210.84)"/></svg>