<svg id="_ÎÓÈ_1" data-name="—ÎÓÈ_1" xmlns="http://www.w3.org/2000/svg" viewBox="0 0 654.7 566.2"><defs><style>.cls-1{fill:#c8e3f5;}</style></defs><title>logo-border</title><path class="cls-1" d="M1227.9,632.5a246.85,246.85,0,1,1,174.5-72.3A245.24,245.24,0,0,1,1227.9,632.5Zm0-488.7c-133.3,0-241.8,108.5-241.8,241.8s108.5,241.8,241.8,241.8,241.8-108.5,241.8-241.8S1361.3,143.8,1227.9,143.8Z" transform="translate(-901.1 -102.5)"/><path class="cls-1" d="M1064.5,668.7a326.94,326.94,0,0,1,0-566.2l2.5,4.3C967.8,164.2,906.1,271,906.1,385.5S967.8,607,1067,664.4Z" transform="translate(-901.1 -102.5)"/><path class="cls-1" d="M1392.4,668.7l-2.5-4.3c99.2-57.4,160.9-164.2,160.9-278.7S1489.1,164.4,1389.9,107l2.5-4.3A326.67,326.67,0,0,1,1392.4,668.7Z" transform="translate(-901.1 -102.5)"/></svg>