<svg id="Layer_2" data-name="Layer 2" xmlns="http://www.w3.org/2000/svg" xmlns:xlink="http://www.w3.org/1999/xlink" viewBox="0 0 41 49"><defs><style>.cls-1{fill:none;}.cls-2{fill:#f6f6f6;}.cls-3{fill:#e0e0e0;}.cls-4{clip-path:url(#clip-path);}.cls-5{fill:#9a50a6;}.cls-6{fill:#884792;}.cls-7{clip-path:url(#clip-path-2);}.cls-8{fill:#cdacd2;}.cls-9{fill:#fff;}</style><clipPath id="clip-path" transform="translate(-372 -92)"><polyline class="cls-1" points="412 111 372 111 372 93 412 93 412 111"/></clipPath><clipPath id="clip-path-2" transform="translate(-372 -92)"><path class="cls-1" d="M412,136a5,5,0,0,1-5,5H377a5,5,0,0,1-5-5V98a5,5,0,0,1,5-5h24l11,11v32"/></clipPath></defs><title>mp3</title><path class="cls-2" d="M377,140.5a4.5,4.5,0,0,1-4.5-4.5V98a4.5,4.5,0,0,1,4.5-4.5h23.79l10.71,10.71V136a4.5,4.5,0,0,1-4.5,4.5H377Z" transform="translate(-372 -92)"/><path class="cls-3" d="M400.59,94L411,104.41V136a4,4,0,0,1-4,4H377a4,4,0,0,1-4-4V98a4,4,0,0,1,4-4h23.59M401,93H377a5,5,0,0,0-5,5v38a5,5,0,0,0,5,5h30a5,5,0,0,0,5-5V104Z" transform="translate(-372 -92)"/><g class="cls-4"><path class="cls-5" d="M377,140.5a4.5,4.5,0,0,1-4.5-4.5V98a4.5,4.5,0,0,1,4.5-4.5h23.79l10.71,10.71V136a4.5,4.5,0,0,1-4.5,4.5H377Z" transform="translate(-372 -92)"/><path class="cls-6" d="M400.59,94L411,104.41V136a4,4,0,0,1-4,4H377a4,4,0,0,1-4-4V98a4,4,0,0,1,4-4h23.59M401,93H377a5,5,0,0,0-5,5v38a5,5,0,0,0,5,5h30a5,5,0,0,0,5-5V104Z" transform="translate(-372 -92)"/><g class="cls-7"><polygon class="cls-6" points="30.43 10.5 40.11 20.18 40.11 10.5 30.43 10.5"/></g><g class="cls-7"><path class="cls-8" d="M413,104h-7a5,5,0,0,1-5-5V92h12v12Z" transform="translate(-372 -92)"/></g></g><path class="cls-9" d="M378,99.23h1.48l1.08,3.46,1.08-3.46h1.43l0.74,5.77h-1.18l-0.51-4.06L380.84,105h-0.56l-1.3-4.1-0.48,4.1h-1.2Z" transform="translate(-372 -92)"/><path class="cls-9" d="M384.74,99.23h2a1.79,1.79,0,0,1,1.28.46,1.61,1.61,0,0,1,.49,1.22,2,2,0,0,1-.24.94,1.49,1.49,0,0,1-.72.67,2.21,2.21,0,0,1-.83.23l-0.72,0V105h-1.24V99.23Zm1.22,1v1.48h0.48a0.76,0.76,0,0,0,.76-0.76,0.65,0.65,0,0,0-.25-0.54,1.15,1.15,0,0,0-.71-0.19Z" transform="translate(-372 -92)"/><path class="cls-9" d="M391.23,100.19a0.75,0.75,0,0,0-.75.8h-1.13a1.76,1.76,0,0,1,1.79-1.7,2.06,2.06,0,0,1,1.34.45,1.34,1.34,0,0,1,.55,1.07,1.59,1.59,0,0,1-.68,1.24,2.1,2.1,0,0,1,.63.57,1.24,1.24,0,0,1,.2.71,1.62,1.62,0,0,1-.52,1.26,2,2,0,0,1-1.38.48,2,2,0,0,1-1.33-.46,2,2,0,0,1-.65-1.26h1.16a0.86,0.86,0,0,0,.8.8,0.67,0.67,0,0,0,.5-0.21,0.72,0.72,0,0,0,.2-0.52,0.83,0.83,0,0,0-.24-0.62,0.86,0.86,0,0,0-.63-0.24h-0.21v-0.94H391a1,1,0,0,0,.64-0.2,0.64,0.64,0,0,0,.24-0.52,0.72,0.72,0,0,0-.19-0.5,0.61,0.61,0,0,0-.47-0.21h0Z" transform="translate(-372 -92)"/><path class="cls-3" d="M386.69,117.13a1,1,0,0,0-.86,1v11.26a4.19,4.19,0,0,0-1.55-.3c-2,0-3.6,1.33-3.6,3s1.61,3,3.6,3,3.6-1.33,3.6-3v-9.93L398,120.68v6.69a4.2,4.2,0,0,0-1.55-.3c-2,0-3.6,1.33-3.6,3s1.61,3,3.6,3,3.6-1.33,3.6-3V116.4a1,1,0,0,0-1.14-1Z" transform="translate(-372 -92)"/></svg>