<svg id="Isolation_Mode" data-name="Isolation Mode" xmlns="http://www.w3.org/2000/svg" xmlns:xlink="http://www.w3.org/1999/xlink" viewBox="0 0 101.39 70.13"><defs><style>.cls-1,.cls-3{fill:none;}.cls-2{clip-path:url(#clip-path);}.cls-3{stroke:#fcfcfc;stroke-miterlimit:10;stroke-width:4px;}.cls-4{fill:#fff;}</style><clipPath id="clip-path" transform="translate(562.81 -583.92)"><polygon class="cls-1" points="-508.34 595.65 -508.34 641.38 -548.42 641.38 -548.42 665.97 -449.63 665.97 -449.63 641.38 -451.84 641.38 -451.84 595.65 -446.39 595.65 -446.39 571.64 -552.29 571.64 -552.29 595.65 -508.34 595.65"/></clipPath></defs><title>oss-icon</title><g class="cls-2"><circle class="cls-3" cx="66.33" cy="35.06" r="33.06"/></g><path class="cls-4" d="M-553.39,607.93h43.6a0.83,0.83,0,0,1,.83.83V610a0.83,0.83,0,0,1-.83.83h-43.6v-2.91Z" transform="translate(562.81 -583.92)"/><path class="cls-4" d="M-557.55,604.12a5.26,5.26,0,0,0-5.26,5.26,5.26,5.26,0,0,0,5.26,5.26,5.26,5.26,0,0,0,5.26-5.26A5.26,5.26,0,0,0-557.55,604.12Zm0,7.89a2.62,2.62,0,0,1-2.62-2.62,2.62,2.62,0,0,1,2.62-2.63,2.62,2.62,0,0,1,2.63,2.63A2.62,2.62,0,0,1-557.55,612Z" transform="translate(562.81 -583.92)"/><path class="cls-4" d="M-533.14,599h43.6a0.83,0.83,0,0,1,.83.83V601a0.83,0.83,0,0,1-.83.83h-43.6V599Z" transform="translate(562.81 -583.92)"/><path class="cls-4" d="M-537.3,595.15a5.26,5.26,0,0,0-5.26,5.26,5.26,5.26,0,0,0,5.26,5.26,5.26,5.26,0,0,0,5.26-5.26A5.26,5.26,0,0,0-537.3,595.15Zm0,7.89a2.62,2.62,0,0,1-2.62-2.62,2.62,2.62,0,0,1,2.62-2.63,2.62,2.62,0,0,1,2.63,2.63A2.62,2.62,0,0,1-537.3,603Z" transform="translate(562.81 -583.92)"/><path class="cls-4" d="M-524.14,616.89h43.6a0.83,0.83,0,0,1,.83.83V619a0.83,0.83,0,0,1-.83.83h-43.6v-2.91Z" transform="translate(562.81 -583.92)"/><path class="cls-4" d="M-528.3,613.09a5.26,5.26,0,0,0-5.26,5.26,5.26,5.26,0,0,0,5.26,5.26,5.26,5.26,0,0,0,5.26-5.26A5.26,5.26,0,0,0-528.3,613.09Zm0,7.89a2.62,2.62,0,0,1-2.62-2.62,2.62,2.62,0,0,1,2.62-2.63,2.62,2.62,0,0,1,2.63,2.63A2.62,2.62,0,0,1-528.3,621Z" transform="translate(562.81 -583.92)"/><path class="cls-4" d="M-541.26,625.86h43.6a0.83,0.83,0,0,1,.83.83v1.26a0.83,0.83,0,0,1-.83.83h-43.6v-2.91Z" transform="translate(562.81 -583.92)"/><path class="cls-4" d="M-545.42,622.06a5.26,5.26,0,0,0-5.26,5.26,5.26,5.26,0,0,0,5.26,5.26,5.26,5.26,0,0,0,5.26-5.26A5.26,5.26,0,0,0-545.42,622.06Zm0,7.89a2.62,2.62,0,0,1-2.62-2.62,2.62,2.62,0,0,1,2.62-2.63,2.62,2.62,0,0,1,2.63,2.63A2.62,2.62,0,0,1-545.42,629.94Z" transform="translate(562.81 -583.92)"/><path class="cls-4" d="M-530,634.83h43.6a0.83,0.83,0,0,1,.83.83v1.26a0.83,0.83,0,0,1-.83.83H-530v-2.91Z" transform="translate(562.81 -583.92)"/><path class="cls-4" d="M-534.14,631a5.26,5.26,0,0,0-5.26,5.26,5.26,5.26,0,0,0,5.26,5.26,5.26,5.26,0,0,0,5.26-5.26A5.26,5.26,0,0,0-534.14,631Zm0,7.89a2.62,2.62,0,0,1-2.62-2.62,2.62,2.62,0,0,1,2.62-2.63,2.62,2.62,0,0,1,2.63,2.63A2.62,2.62,0,0,1-534.14,638.91Z" transform="translate(562.81 -583.92)"/></svg>