<svg id="Layer_2" data-name="Layer 2" xmlns="http://www.w3.org/2000/svg" xmlns:xlink="http://www.w3.org/1999/xlink" viewBox="0 0 41 49"><defs><style>.cls-1{fill:none;}.cls-2{fill:#f6f6f6;}.cls-3{fill:#e0e0e0;}.cls-4{fill:#d8d8d8;}.cls-5{clip-path:url(#clip-path);}.cls-6{fill:#d84953;}.cls-7{fill:#c4434c;}.cls-8{clip-path:url(#clip-path-2);}.cls-9{fill:#eca4a9;}.cls-10{fill:#fff;}</style><clipPath id="clip-path" transform="translate(-236 -24)"><polyline class="cls-1" points="276 43 236 43 236 25 276 25 276 43"/></clipPath><clipPath id="clip-path-2" transform="translate(-236 -24)"><path class="cls-1" d="M276,68a5,5,0,0,1-5,5H241a5,5,0,0,1-5-5V30a5,5,0,0,1,5-5h24l11,11V68"/></clipPath></defs><title>pdf</title><path class="cls-2" d="M241,72.5a4.5,4.5,0,0,1-4.5-4.5V30a4.5,4.5,0,0,1,4.5-4.5h23.79L275.5,36.21V68a4.5,4.5,0,0,1-4.5,4.5H241" transform="translate(-236 -24)"/><path class="cls-3" d="M264.59,26L275,36.41V68a4,4,0,0,1-4,4H241a4,4,0,0,1-4-4V30a4,4,0,0,1,4-4h23.59M265,25H241a5,5,0,0,0-5,5V68a5,5,0,0,0,5,5h30a5,5,0,0,0,5-5V36Z" transform="translate(-236 -24)"/><path class="cls-4" d="M267.75,55h-13.5a1.5,1.5,0,0,0,0,3h13.5a1.5,1.5,0,0,0,0-3" transform="translate(-236 -24)"/><path class="cls-4" d="M267.75,61h-13.5a1.5,1.5,0,0,0,0,3h13.5a1.5,1.5,0,0,0,0-3" transform="translate(-236 -24)"/><path class="cls-4" d="M268.25,49h-24.5a1.5,1.5,0,0,0,0,3h24.5a1.5,1.5,0,0,0,0-3" transform="translate(-236 -24)"/><g class="cls-5"><path class="cls-6" d="M241,72.5a4.5,4.5,0,0,1-4.5-4.5V30a4.5,4.5,0,0,1,4.5-4.5h23.79L275.5,36.21V68a4.5,4.5,0,0,1-4.5,4.5H241Z" transform="translate(-236 -24)"/><path class="cls-7" d="M264.59,26L275,36.41V68a4,4,0,0,1-4,4H241a4,4,0,0,1-4-4V30a4,4,0,0,1,4-4h23.59M265,25H241a5,5,0,0,0-5,5V68a5,5,0,0,0,5,5h30a5,5,0,0,0,5-5V36Z" transform="translate(-236 -24)"/><g class="cls-8"><polygon class="cls-7" points="30.43 10.5 40.11 20.18 40.11 10.5 30.43 10.5"/></g><g class="cls-8"><path class="cls-9" d="M277,36h-7a5,5,0,0,1-5-5V24h12V36Z" transform="translate(-236 -24)"/></g></g><path class="cls-10" d="M241.61,31.23h2a1.79,1.79,0,0,1,1.28.46,1.61,1.61,0,0,1,.49,1.22,2,2,0,0,1-.24.94,1.49,1.49,0,0,1-.72.67,2.21,2.21,0,0,1-.83.23l-0.72,0V37h-1.23V31.23Zm1.22,1v1.48h0.48a0.76,0.76,0,0,0,.76-0.76,0.65,0.65,0,0,0-.25-0.54,1.14,1.14,0,0,0-.71-0.19Z" transform="translate(-236 -24)"/><path class="cls-10" d="M246.34,31.23h2a2.7,2.7,0,0,1,2,.8,2.89,2.89,0,0,1,.77,2.1,2.81,2.81,0,0,1-.79,2.09,2.87,2.87,0,0,1-2.11.79h-1.86V31.23Zm1.25,1.09v3.56h0.49a1.87,1.87,0,0,0,1.26-.42,1.74,1.74,0,0,0,.49-1.39,2.07,2.07,0,0,0-.24-1,1.22,1.22,0,0,0-.69-0.59,2.64,2.64,0,0,0-.86-0.16h-0.46Z" transform="translate(-236 -24)"/><path class="cls-10" d="M252.08,31.23h3.25v1.12h-2v1.18h2v1.13h-2V37h-1.24V31.23Z" transform="translate(-236 -24)"/><rect class="cls-3" x="6" y="31" width="8" height="9" rx="1.5" ry="1.5"/></svg>