<svg id="Layer_2" data-name="Layer 2" xmlns="http://www.w3.org/2000/svg" xmlns:xlink="http://www.w3.org/1999/xlink" viewBox="0 0 41 49"><defs><style>.cls-1{fill:none;}.cls-2{fill:#f6f6f6;}.cls-3{fill:#e0e0e0;}.cls-4{clip-path:url(#clip-path);}.cls-5{fill:#f78852;}.cls-6{fill:#e27140;}.cls-7{clip-path:url(#clip-path-2);}.cls-8{fill:#fbc3a9;}.cls-9{fill:#fff;}</style><clipPath id="clip-path" transform="translate(-168 -24)"><polyline class="cls-1" points="208 43 168 43 168 25 208 25 208 43"/></clipPath><clipPath id="clip-path-2" transform="translate(-168 -24)"><path class="cls-1" d="M208,68a5,5,0,0,1-5,5H173a5,5,0,0,1-5-5V30a5,5,0,0,1,5-5h24l11,11V68"/></clipPath></defs><title>ppt</title><path class="cls-2" d="M173,72.5a4.5,4.5,0,0,1-4.5-4.5V30a4.5,4.5,0,0,1,4.5-4.5h23.79L207.5,36.21V68a4.5,4.5,0,0,1-4.5,4.5H173Z" transform="translate(-168 -24)"/><path class="cls-3" d="M196.59,26L207,36.41V68a4,4,0,0,1-4,4H173a4,4,0,0,1-4-4V30a4,4,0,0,1,4-4h23.59M197,25H173a5,5,0,0,0-5,5V68a5,5,0,0,0,5,5h30a5,5,0,0,0,5-5V36Z" transform="translate(-168 -24)"/><g class="cls-4"><path class="cls-5" d="M173,72.5a4.5,4.5,0,0,1-4.5-4.5V30a4.5,4.5,0,0,1,4.5-4.5h23.79L207.5,36.21V68a4.5,4.5,0,0,1-4.5,4.5H173Z" transform="translate(-168 -24)"/><path class="cls-6" d="M196.59,26L207,36.41V68a4,4,0,0,1-4,4H173a4,4,0,0,1-4-4V30a4,4,0,0,1,4-4h23.59M197,25H173a5,5,0,0,0-5,5V68a5,5,0,0,0,5,5h30a5,5,0,0,0,5-5V36Z" transform="translate(-168 -24)"/><g class="cls-7"><polygon class="cls-6" points="30.43 10.5 40.11 20.18 40.11 10.5 30.43 10.5"/></g><g class="cls-7"><path class="cls-8" d="M209,36h-7a5,5,0,0,1-5-5V24h12V36Z" transform="translate(-168 -24)"/></g></g><path class="cls-9" d="M173.61,31.23h2a1.79,1.79,0,0,1,1.28.46,1.61,1.61,0,0,1,.49,1.22,2,2,0,0,1-.24.94,1.49,1.49,0,0,1-.72.67,2.21,2.21,0,0,1-.83.23l-0.72,0V37h-1.23V31.23Zm1.22,1v1.48h0.48a0.76,0.76,0,0,0,.76-0.76,0.65,0.65,0,0,0-.25-0.54,1.14,1.14,0,0,0-.71-0.19Z" transform="translate(-168 -24)"/><path class="cls-9" d="M178.39,31.23h2a1.79,1.79,0,0,1,1.28.46,1.61,1.61,0,0,1,.49,1.22,2,2,0,0,1-.24.94,1.5,1.5,0,0,1-.72.67,2.21,2.21,0,0,1-.83.23l-0.72,0V37h-1.23V31.23Zm1.22,1v1.48h0.48a0.76,0.76,0,0,0,.76-0.76,0.65,0.65,0,0,0-.25-0.54,1.14,1.14,0,0,0-.71-0.19Z" transform="translate(-168 -24)"/><path class="cls-9" d="M182.74,31.23h3.88v1.23H185.3V37h-1.24V32.46h-1.31V31.23Z" transform="translate(-168 -24)"/><path class="cls-3" d="M187,65a7,7,0,0,1-1-13.92v-3A10,10,0,1,0,196.95,59h-3A7,7,0,0,1,187,65Z" transform="translate(-168 -24)"/><path class="cls-3" d="M188,57V51.08a6.32,6.32,0,0,0-2,0V57h2Z" transform="translate(-168 -24)"/><path class="cls-3" d="M187,51a7,7,0,0,1,1,.08v-3c-0.33,0-.66-0.05-1-0.05s-0.67,0-1,.05v3A7,7,0,0,1,187,51Z" transform="translate(-168 -24)"/><path class="cls-3" d="M188,59h5.92a6.32,6.32,0,0,0,0-2H188v2Z" transform="translate(-168 -24)"/><path class="cls-3" d="M196.95,57h-3a6.32,6.32,0,0,1,0,2h3c0-.33.05-0.66,0.05-1S197,57.33,196.95,57Z" transform="translate(-168 -24)"/><rect class="cls-3" x="18" y="33" width="2" height="2"/><path class="cls-3" d="M199.8,53a10,10,0,0,0-9.8-8V55h10A10.07,10.07,0,0,0,199.8,53ZM192,53V48.29A7,7,0,0,1,196.71,53H192Z" transform="translate(-168 -24)"/></svg>