<svg xmlns="http://www.w3.org/2000/svg" width="31" height="26" viewBox="0 0 31 26">
  <defs>
    <style>
      .cls-1 {
        fill: #cacaca;
        fill-rule: evenodd;
      }
    </style>
  </defs>
  <path class="cls-1" d="M1100.27,1031.98h-1.67a1.142,1.142,0,0,1,.25.82v0.5h1.44v-1.01C1100.29,1032.23,1100.28,1032.11,1100.27,1031.98Zm-2.07,2.68c-0.07.02-.13,0.04-0.21,0.07a7.164,7.164,0,0,1-1.89.2h-1.53a2.032,2.032,0,0,1-1.26-.27h-7.45v-1.16a0.192,0.192,0,0,1,.19-0.2h7.52a5.275,5.275,0,0,1,.89-0.45l0.48-.21c0.47-.21,1.07-0.47,1.61-0.66h-10.5a1.517,1.517,0,0,0-1.51,1.52v5.68h1.32v-1.11h14.43v-3.41h-2.09Zm3.47-5.09-0.33-.96a1.464,1.464,0,0,0-1.28-.96h-1.19c-0.89-2.52-1.98-5.54-2.3-6.26-0.49-1.1-2.07-1.6-2.93-1.84,0,0-1.45-.55-6.28-0.55s-6.27.55-6.27,0.55c-1.01.34-2.42,0.82-2.98,1.89-0.27.51-1.37,3.63-2.28,6.21h-1.16a1.489,1.489,0,0,0-1.29.96l-0.32.96a0.658,0.658,0,0,0,.62.96h1.15c-0.14.43-.23,0.69-0.23,0.69a3.8,3.8,0,0,0-.16,1.07v8.75a1.009,1.009,0,0,0,1.01,1.02h3.72a1.009,1.009,0,0,0,1.01-1.02v-1.86h3.43v-5.68a2.437,2.437,0,0,1,2.44-2.44h14.02c-0.04-.12-0.1-0.3-0.18-0.53h1.15A0.662,0.662,0,0,0,1101.67,1029.57Zm-21.51,5.36h-1.54c-1.37,0-2.75-.19-2.75-1.06v-1.07c0-1.02.6-1.06,1.23-1.06a9.081,9.081,0,0,1,2.68.9c0.89,0.39,1.88.73,1.88,1.39C1081.66,1034.65,1081.32,1034.93,1080.16,1034.93Zm7.2-5.85a32.113,32.113,0,0,1-9.34-1.05,33.9,33.9,0,0,1,1.76-5.42c0.14-.37.29-1.48,7.59-1.48s7.46,1.27,7.48,1.29a45.291,45.291,0,0,1,1.83,5.61S1093.6,1029.08,1087.36,1029.08Zm15.12,2.9h-16.43a1.517,1.517,0,0,0-1.51,1.52v9.99a1.515,1.515,0,0,0,1.51,1.51h16.43a1.517,1.517,0,0,0,1.52-1.51v-9.99A1.519,1.519,0,0,0,1102.48,1031.98Zm-16.62,11.51v-5.42h16.82v5.42a0.2,0.2,0,0,1-.2.2h-16.43A0.192,0.192,0,0,1,1085.86,1043.49Zm16.82-8.83h-16.82v-1.16a0.192,0.192,0,0,1,.19-0.2h16.43a0.2,0.2,0,0,1,.2.2v1.16Zm-1.13,5.69v1.11h-14.73v-1.11h14.73Z" transform="translate(-1073 -1019)"/>
</svg>
