<svg id="Layer_2" data-name="Layer 2" xmlns="http://www.w3.org/2000/svg" xmlns:xlink="http://www.w3.org/1999/xlink" viewBox="0 0 41 49"><defs><style>.cls-1{fill:none;}.cls-2{fill:#f6f6f6;}.cls-3{fill:#e0e0e0;}.cls-4{clip-path:url(#clip-path);}.cls-5{fill:#5e68bd;}.cls-6{fill:#4d5599;}.cls-7{clip-path:url(#clip-path-2);}.cls-8{fill:#aeb3de;}.cls-9{fill:#fff;}.cls-10{fill:#d8d8d8;}.cls-11{fill:#ebcfcf;}</style><clipPath id="clip-path" transform="translate(-168 -92)"><polyline class="cls-1" points="208 111 168 111 168 93 208 93 208 111"/></clipPath><clipPath id="clip-path-2" transform="translate(-168 -92)"><path class="cls-1" d="M208,136a5,5,0,0,1-5,5H173a5,5,0,0,1-5-5V98a5,5,0,0,1,5-5h24l11,11v32"/></clipPath></defs><title>txt</title><path class="cls-2" d="M173,140.5a4.5,4.5,0,0,1-4.5-4.5V98a4.5,4.5,0,0,1,4.5-4.5h23.79l10.71,10.71V136a4.5,4.5,0,0,1-4.5,4.5H173" transform="translate(-168 -92)"/><path class="cls-3" d="M196.59,94L207,104.41V136a4,4,0,0,1-4,4H173a4,4,0,0,1-4-4V98a4,4,0,0,1,4-4h23.59M197,93H173a5,5,0,0,0-5,5v38a5,5,0,0,0,5,5h30a5,5,0,0,0,5-5V104L197,93" transform="translate(-168 -92)"/><g class="cls-4"><path class="cls-5" d="M173,140.5a4.5,4.5,0,0,1-4.5-4.5V98a4.5,4.5,0,0,1,4.5-4.5h23.79l10.71,10.71V136a4.5,4.5,0,0,1-4.5,4.5H173Z" transform="translate(-168 -92)"/><path class="cls-6" d="M196.59,94L207,104.41V136a4,4,0,0,1-4,4H173a4,4,0,0,1-4-4V98a4,4,0,0,1,4-4h23.59M197,93H173a5,5,0,0,0-5,5v38a5,5,0,0,0,5,5h30a5,5,0,0,0,5-5V104Z" transform="translate(-168 -92)"/><g class="cls-7"><polygon class="cls-6" points="30.43 10.5 40.11 20.18 40.11 10.5 30.43 10.5"/></g><g class="cls-7"><path class="cls-8" d="M209,104h-7a5,5,0,0,1-5-5V92h12v12Z" transform="translate(-168 -92)"/></g></g><path class="cls-9" d="M173.19,99.23h3.88v1.23h-1.32V105H174.5v-4.54h-1.31V99.23Z" transform="translate(-168 -92)"/><path class="cls-9" d="M177.66,99.23H179l1.16,1.76,1.2-1.76h1.29L180.8,102l2,3h-1.28l-1.37-2.05L178.79,105h-1.31l2-3Z" transform="translate(-168 -92)"/><path class="cls-9" d="M183.21,99.23h3.88v1.23h-1.32V105h-1.24v-4.54h-1.31V99.23Z" transform="translate(-168 -92)"/><path class="cls-10" d="M200.5,117H176a1.5,1.5,0,0,0,0,3h24.5a1.5,1.5,0,0,0,0-3" transform="translate(-168 -92)"/><path class="cls-10" d="M200.5,123H176a1.5,1.5,0,0,0,0,3h24.5a1.5,1.5,0,0,0,0-3" transform="translate(-168 -92)"/><path class="cls-10" d="M200.5,129H176a1.5,1.5,0,0,0,0,3h24.5a1.5,1.5,0,0,0,0-3" transform="translate(-168 -92)"/><rect class="cls-11" x="27.5" y="22" width="1.5" height="20"/></svg>