<svg id="Layer_2" data-name="Layer 2" xmlns="http://www.w3.org/2000/svg" xmlns:xlink="http://www.w3.org/1999/xlink" viewBox="0 0 41 49"><defs><style>.cls-1{fill:none;}.cls-2{fill:#f6f6f6;}.cls-3{fill:#e0e0e0;}.cls-4{clip-path:url(#clip-path);}.cls-5{fill:#68ab46;}.cls-6{fill:#5c973e;}.cls-7{clip-path:url(#clip-path-2);}.cls-8{fill:#b3d5a3;}.cls-9{fill:#fff;}</style><clipPath id="clip-path" transform="translate(-100 -24)"><polyline class="cls-1" points="140 43 100 43 100 25 140 25 140 43"/></clipPath><clipPath id="clip-path-2" transform="translate(-100 -24)"><path class="cls-1" d="M140,68a5,5,0,0,1-5,5H105a5,5,0,0,1-5-5V30a5,5,0,0,1,5-5h24l11,11V68"/></clipPath></defs><title>xls</title><path class="cls-2" d="M105,72.5a4.5,4.5,0,0,1-4.5-4.5V30a4.5,4.5,0,0,1,4.5-4.5h23.79L139.5,36.21V68a4.5,4.5,0,0,1-4.5,4.5H105Z" transform="translate(-100 -24)"/><path class="cls-3" d="M128.59,26L139,36.41V68a4,4,0,0,1-4,4H105a4,4,0,0,1-4-4V30a4,4,0,0,1,4-4h23.59M129,25H105a5,5,0,0,0-5,5V68a5,5,0,0,0,5,5h30a5,5,0,0,0,5-5V36Z" transform="translate(-100 -24)"/><g class="cls-4"><path class="cls-5" d="M105,72.5a4.5,4.5,0,0,1-4.5-4.5V30a4.5,4.5,0,0,1,4.5-4.5h23.79L139.5,36.21V68a4.5,4.5,0,0,1-4.5,4.5H105Z" transform="translate(-100 -24)"/><path class="cls-6" d="M128.59,26L139,36.41V68a4,4,0,0,1-4,4H105a4,4,0,0,1-4-4V30a4,4,0,0,1,4-4h23.59M129,25H105a5,5,0,0,0-5,5V68a5,5,0,0,0,5,5h30a5,5,0,0,0,5-5V36Z" transform="translate(-100 -24)"/><g class="cls-7"><polygon class="cls-6" points="30.43 10.5 40.11 20.18 40.11 10.5 30.43 10.5"/></g><g class="cls-7"><path class="cls-8" d="M141,36h-7a5,5,0,0,1-5-5V24h12V36Z" transform="translate(-100 -24)"/></g></g><path class="cls-3" d="M106,49V64h28V49H106Zm25,3v3H118V52h13Zm-15,0v3h-7V52h7Zm-7,6h7v3h-7V58Zm9,3V58h13v3H118Z" transform="translate(-100 -24)"/><path class="cls-9" d="M105.35,31.23h1.32L107.83,33l1.2-1.76h1.29L108.49,34l2,3h-1.28l-1.37-2.05L106.48,37h-1.31l2-3Z" transform="translate(-100 -24)"/><path class="cls-9" d="M111.32,31.23h1.23v4.53h1.7V37h-2.94V31.23Z" transform="translate(-100 -24)"/><path class="cls-9" d="M116.77,31.15a2.28,2.28,0,0,1,1.61.6l-0.77.85a2.12,2.12,0,0,0-.88-0.36,0.48,0.48,0,0,0-.36.16,0.52,0.52,0,0,0-.15.37,1,1,0,0,0,.77.74,5.41,5.41,0,0,1,.86.44,1.57,1.57,0,0,1,.49.54,1.51,1.51,0,0,1,.2.75,1.7,1.7,0,0,1-.6,1.29,2,2,0,0,1-1.42.55,2.57,2.57,0,0,1-1.77-.84l0.82-1a1.52,1.52,0,0,0,1,.57,0.62,0.62,0,0,0,.43-0.2,0.58,0.58,0,0,0,.21-0.42,1.13,1.13,0,0,0-1-.8,3.14,3.14,0,0,1-.77-0.37,1.32,1.32,0,0,1-.38-0.51,1.57,1.57,0,0,1-.16-0.68,1.65,1.65,0,0,1,.5-1.25,1.82,1.82,0,0,1,1.31-.48h0Z" transform="translate(-100 -24)"/></svg>