<svg id="Layer_2" data-name="Layer 2" xmlns="http://www.w3.org/2000/svg" xmlns:xlink="http://www.w3.org/1999/xlink" viewBox="0 0 41 49"><defs><style>.cls-1{fill:none;}.cls-2{fill:#f6f6f6;}.cls-3{fill:#e0e0e0;}.cls-4{clip-path:url(#clip-path);}.cls-5{fill:#efbe2c;}.cls-6{fill:#e0ad1f;}.cls-7{clip-path:url(#clip-path-2);}.cls-8{fill:#f5d576;}.cls-9{fill:#fff;}</style><clipPath id="clip-path" transform="translate(-236 -92)"><polyline class="cls-1" points="276 111 236 111 236 93 276 93 276 111"/></clipPath><clipPath id="clip-path-2" transform="translate(-236 -92)"><path class="cls-1" d="M276,136a5,5,0,0,1-5,5H241a5,5,0,0,1-5-5V98a5,5,0,0,1,5-5h24l11,11v32"/></clipPath></defs><title>zip</title><path class="cls-2" d="M241,140.5a4.5,4.5,0,0,1-4.5-4.5V98a4.5,4.5,0,0,1,4.5-4.5h23.79l10.71,10.71V136a4.5,4.5,0,0,1-4.5,4.5H241Z" transform="translate(-236 -92)"/><path class="cls-3" d="M264.59,94L275,104.41V136a4,4,0,0,1-4,4H241a4,4,0,0,1-4-4V98a4,4,0,0,1,4-4h23.59M265,93H241a5,5,0,0,0-5,5v38a5,5,0,0,0,5,5h30a5,5,0,0,0,5-5V104Z" transform="translate(-236 -92)"/><g class="cls-4"><path class="cls-5" d="M241,140.5a4.5,4.5,0,0,1-4.5-4.5V98a4.5,4.5,0,0,1,4.5-4.5h23.79l10.71,10.71V136a4.5,4.5,0,0,1-4.5,4.5H241Z" transform="translate(-236 -92)"/><path class="cls-6" d="M264.59,94L275,104.41V136a4,4,0,0,1-4,4H241a4,4,0,0,1-4-4V98a4,4,0,0,1,4-4h23.59M265,93H241a5,5,0,0,0-5,5v38a5,5,0,0,0,5,5h30a5,5,0,0,0,5-5V104Z" transform="translate(-236 -92)"/><g class="cls-7"><polygon class="cls-6" points="30.43 10.5 40.11 20.18 40.11 10.5 30.43 10.5"/></g><g class="cls-7"><path class="cls-8" d="M277,104h-7a5,5,0,0,1-5-5V92h12v12Z" transform="translate(-236 -92)"/></g></g><path class="cls-9" d="M241.66,99.23h4.18l-2.6,4.57h2.51V105h-4.43l2.62-4.58h-2.28V99.23Z" transform="translate(-236 -92)"/><path class="cls-9" d="M246.77,99.23H248V105h-1.24V99.23Z" transform="translate(-236 -92)"/><path class="cls-9" d="M249.2,99.23h2a1.79,1.79,0,0,1,1.28.46,1.61,1.61,0,0,1,.49,1.22,2,2,0,0,1-.24.94,1.49,1.49,0,0,1-.72.67,2.21,2.21,0,0,1-.83.23l-0.72,0V105H249.2V99.23Zm1.22,1v1.48h0.48a0.76,0.76,0,0,0,.76-0.76,0.65,0.65,0,0,0-.25-0.54,1.15,1.15,0,0,0-.71-0.19Z" transform="translate(-236 -92)"/><rect class="cls-3" x="23" y="45" width="6" height="4"/><rect class="cls-3" x="23" y="42" width="3" height="3"/><rect class="cls-3" x="26" y="39" width="3" height="3"/><rect class="cls-3" x="23" y="36" width="3" height="3"/><rect class="cls-3" x="26" y="33" width="3" height="3"/><path class="cls-3" d="M264.4,111h-4.8l-2,5.93A4.61,4.61,0,0,0,262,123h0a4.61,4.61,0,0,0,4.38-6.07Z" transform="translate(-236 -92)"/><circle class="cls-2" cx="26" cy="26" r="2"/></svg>